<?xml version="1.0" encoding="utf-8"?>
<!-- Generator: Adobe Illustrator 21.1.0, SVG Export Plug-In . SVG Version: 6.00 Build 0)  -->
<svg version="1.1" id="Capa_1" xmlns="http://www.w3.org/2000/svg" xmlns:xlink="http://www.w3.org/1999/xlink" x="0px" y="0px"
	 viewBox="0 0 90 90" style="enable-background:new 0 0 90 90;" xml:space="preserve">
<style type="text/css">
	.st0{fill:#FFFFFF;}
</style>
<g>
	<path class="st0" d="M62.2,39.6c3,0.6,5.1,1.8,6.4,3.8c1.2,2,1.9,5.1,1.9,9.3c0,8.4-2.5,15.3-7.6,20.7c-5.1,5.4-11.5,8-19.4,8
		c-3.1,0-6.1-0.6-9.1-1.7c-2.9-1.1-5.4-2.7-7.5-4.7c-2.4-2.2-4.2-4.5-5.4-7c-1.2-2.5-1.8-5-1.8-7.5c0-2.9,0.6-5.1,1.9-6.7
		c1.2-1.6,3.2-2.6,5.9-3.2c-0.5-1.2-0.9-2.2-1.1-3c-0.2-0.8-0.4-1.4-0.4-1.9c0-1.5,0.8-3,2.4-4.6c1.6-1.6,3.1-2.4,4.5-2.4
		c0.6,0,1.2,0.1,1.9,0.3c0.7,0.2,1.4,0.6,2.3,1.1c-2.6-7.3-4.4-12.9-5.6-16.9c-1.2-4-1.8-6.7-1.8-8.2c0-2.1,0.5-3.7,1.6-4.9
		c1.1-1.2,2.5-1.8,4.4-1.8c3.1,0,7.1,7,11.9,21.1c0.8,2.4,1.5,4.3,1.9,5.6c0.4-1,0.9-2.5,1.6-4.4c4.8-13.9,9-20.9,12.4-20.9
		c1.7,0,3.1,0.6,4.1,1.7c1,1.2,1.5,2.7,1.5,4.6c0,1.5-0.6,4.2-1.7,8.1C66.2,28.2,64.5,33.3,62.2,39.6z M26.3,60.1
		c0.5,0.6,1.1,1.4,2,2.5c2.2,3,4.2,4.6,6.1,4.6c0.6,0,1.2-0.2,1.7-0.6c0.5-0.4,0.8-0.8,0.8-1.3c0-0.5-0.3-1.3-1-2.5
		c-0.7-1.2-1.6-2.5-2.8-4c-1.3-1.7-2.4-3-3.3-3.7c-0.9-0.8-1.6-1.2-2.1-1.2c-1.2,0-2.2,0.6-3.2,1.9c-1,1.3-1.5,2.7-1.5,4.4
		c0,1.4,0.3,2.9,1,4.6c0.7,1.7,1.7,3.4,3,5.1c2,2.6,4.4,4.7,7.3,6.1c2.9,1.4,6.2,2.1,9.7,2.1c6.5,0,12-2.4,16.4-7.3
		c4.4-4.9,6.6-11,6.6-18.3c0-2.2-0.2-4-0.5-5.3c-0.3-1.3-0.9-2.3-1.7-2.9c-1.4-1.1-4-2.2-8-3.1c-4-0.9-8.1-1.4-12.4-1.4
		c-1.2,0-2.1,0.2-2.6,0.6c-0.5,0.4-0.8,1.1-0.8,2.1c0,2.3,1.3,3.9,3.8,4.9c2.5,1,6.7,1.5,12.3,1.5h2.1c0.5,0,0.8,0.2,1.1,0.5
		c0.3,0.4,0.5,0.9,0.6,1.6c-0.6,0.5-1.7,1.1-3.5,1.8c-1.8,0.7-3.1,1.4-4.1,2c-2,1.5-3.6,3.2-4.8,5.2c-1.2,2-1.8,3.9-1.8,5.7
		c0,1.1,0.3,2.4,0.8,4c0.5,1.6,0.8,2.5,0.8,2.9v0.4l-0.1,0.5c-1.5-0.1-2.6-1-3.5-2.6c-0.9-1.6-1.3-3.8-1.3-6.5v-0.5
		c-0.3,0.2-0.5,0.4-0.8,0.5c-0.3,0.1-0.5,0.2-0.8,0.2c-0.3,0-0.6,0-0.9-0.1c-0.3-0.1-0.6-0.1-0.9-0.2c0.1,0.4,0.2,0.7,0.2,1.1
		c0.1,0.4,0.1,0.6,0.1,0.8c0,1.2-0.5,2.3-1.5,3.2c-1,0.9-2.1,1.3-3.5,1.3c-2.1,0-4.2-1-6.4-3.1c-2.2-2.1-3.3-4.1-3.3-6
		c0-0.4,0-0.7,0.1-1C25.9,60.5,26.1,60.3,26.3,60.1z M41.3,61.3c0.6,0,1.1-0.3,1.6-0.8c0.5-0.5,0.7-1.1,0.7-1.7
		c0-0.6-0.5-2.1-1.4-4.4c-0.9-2.3-2.1-4.6-3.4-6.8c-1-1.7-2-2.9-3-3.8c-1-0.9-1.9-1.3-2.8-1.3c-0.7,0-1.5,0.4-2.3,1.3
		c-0.9,0.9-1.3,1.7-1.3,2.5c0,0.8,0.4,2,1.3,3.6c0.8,1.6,2,3.3,3.4,5.1c1.5,2,2.9,3.5,4.2,4.6C39.5,60.7,40.6,61.3,41.3,61.3z
		 M46.3,37.1l-5.4-15.6c-1.4-4-2.5-6.6-3.3-7.8c-0.8-1.2-1.6-1.8-2.5-1.8c-0.7,0-1.3,0.3-1.7,0.8c-0.4,0.5-0.7,1.3-0.7,2.2
		c0,1.5,0.6,4.2,1.8,8c1.2,3.8,2.9,8.8,5.3,15c0.2-0.4,0.5-0.6,0.9-0.8c0.4-0.2,0.9-0.2,1.5-0.2c0.2,0,0.6,0,1.2,0.1
		C43.9,36.9,44.9,36.9,46.3,37.1z M51.9,52.3c-1.4-0.1-2.8-0.2-4.1-0.5c-1.3-0.2-2.5-0.6-3.7-1c0.5,1.1,1,2.1,1.4,3.2
		c0.4,1.1,0.8,2.1,1,3.2c0.8-1,1.6-1.9,2.5-2.7C50,53.6,51,52.9,51.9,52.3z M58.6,38.8c2.2-6.1,4-11.1,5.2-15.1
		c1.3-4,1.9-6.4,1.9-7.3c0-1-0.2-1.7-0.6-2.3c-0.4-0.5-1-0.8-1.7-0.8c-0.9,0-1.9,0.8-2.9,2.3c-1,1.6-2,4.1-3.2,7.5l-5,14.5
		L58.6,38.8z"/>
</g>
</svg>
