<svg width="25" height="25" viewBox="0 0 25 25" version="1.1" xmlns="http://www.w3.org/2000/svg" xmlns:xlink="http://www.w3.org/1999/xlink">
<title>instagram-logo</title>
<desc>Created using Figma</desc>
<g id="Canvas" transform="translate(-19005 -58806)">
<g id="instagram-logo">
<g id="Group">
<g id="Vector">
<use xlink:href="#path0_fill" transform="matrix(1 2.77556e-17 -2.77556e-17 1 19005 58806)" fill="#FFFFFF"/>
</g>
<g id="Vector">
<use xlink:href="#path1_fill" transform="matrix(1 2.77556e-17 -2.77556e-17 1 19011.1 58812.1)" fill="#FFFFFF"/>
</g>
<g id="Vector">
<use xlink:href="#path2_fill" transform="matrix(1 2.77556e-17 -2.77556e-17 1 19022.6 58810.2)" fill="#FFFFFF"/>
</g>
</g>
</g>
</g>
<defs>
<path id="path0_fill" d="M 18.1008 0L 6.89895 0C 3.09487 0 0 3.09502 0 6.8991L 0 18.1009C 0 21.9051 3.09487 25 6.89895 25L 18.1008 25C 21.9051 25 25 21.905 25 18.1009L 25 6.8991C 25.0001 3.09502 21.9051 0 18.1008 0ZM 22.782 18.1009C 22.782 20.6821 20.6821 22.7819 18.1009 22.7819L 6.89895 22.7819C 4.31794 22.782 2.21812 20.6821 2.21812 18.1009L 2.21812 6.8991C 2.21812 4.31809 4.31794 2.21812 6.89895 2.21812L 18.1008 2.21812C 20.6819 2.21812 22.7819 4.31809 22.7819 6.8991L 22.7819 18.1009L 22.782 18.1009Z"/>
<path id="path1_fill" d="M 6.44187 1.80511e-07C 2.88977 1.80511e-07 -2.21126e-07 2.88977 -2.21126e-07 6.44187C -2.21126e-07 9.99382 2.88977 12.8834 6.44187 12.8834C 9.99397 12.8834 12.8837 9.99382 12.8837 6.44187C 12.8837 2.88977 9.99397 1.80511e-07 6.44187 1.80511e-07ZM 6.44187 10.6652C 4.11299 10.6652 2.21812 8.7706 2.21812 6.44172C 2.21812 4.11269 4.11284 2.21797 6.44187 2.21797C 8.7709 2.21797 10.6656 4.11269 10.6656 6.44172C 10.6656 8.7706 8.77075 10.6652 6.44187 10.6652Z"/>
<path id="path2_fill" d="M 1.62662 -8.123e-08C 1.19926 -8.123e-08 0.779448 0.173014 0.477636 0.476157C 0.174344 0.777821 -3.51997e-07 1.19779 -3.51997e-07 1.62662C -3.51997e-07 2.05413 0.174492 2.47394 0.477636 2.77709C 0.7793 3.07875 1.19926 3.25324 1.62662 3.25324C 2.05546 3.25324 2.47394 3.07875 2.77709 2.77709C 3.08023 2.47394 3.25325 2.05398 3.25325 1.62662C 3.25325 1.19779 3.08023 0.777821 2.77709 0.476157C 2.47542 0.173014 2.05546 -8.123e-08 1.62662 -8.123e-08Z"/>
</defs>
</svg>
