<?xml version="1.0" encoding="utf-8"?>
<!-- Generator: Adobe Illustrator 21.1.0, SVG Export Plug-In . SVG Version: 6.00 Build 0)  -->
<svg version="1.1" id="Capa_1" xmlns="http://www.w3.org/2000/svg" xmlns:xlink="http://www.w3.org/1999/xlink" x="0px" y="0px"
	 viewBox="0 0 90 90" style="enable-background:new 0 0 90 90;" xml:space="preserve">
<style type="text/css">
	.st0{fill:#FFFFFF;}
</style>
<g>
	<g>
		<path class="st0" d="M24.4,16c0,4.4-3.3,8-8.7,8c-5.1,0-8.3-3.6-8.3-8c0-4.5,3.4-8,8.6-8S24.3,11.4,24.4,16z M7.9,82V30.4H24V82
			H7.9L7.9,82z"/>
		<path class="st0" d="M33.5,46.8c0-6.4-0.2-11.8-0.4-16.5H47l0.7,7.2H48c2.1-3.4,7.3-8.4,16-8.4c10.6,0,18.5,7.1,18.5,22.3V82h-16
			V53.4c0-6.7-2.3-11.2-8.1-11.2c-4.4,0-7.1,3.1-8.2,6c-0.4,1.1-0.5,2.5-0.5,4V82H33.5V46.8z"/>
	</g>
</g>
</svg>
