<?xml version="1.0" encoding="utf-8"?>
<!-- Generator: Adobe Illustrator 21.1.0, SVG Export Plug-In . SVG Version: 6.00 Build 0)  -->
<svg version="1.1" id="Capa_1" xmlns="http://www.w3.org/2000/svg" xmlns:xlink="http://www.w3.org/1999/xlink" x="0px" y="0px"
	 viewBox="0 0 90 90" style="enable-background:new 0 0 90 90;" xml:space="preserve">
<style type="text/css">
	.st0{fill:#FFFFFF;}
</style>
<g>
	<path class="st0" d="M87.1,22.5h-4.6c-1.2,0-4.4,1.3-4.4,2.4v40.6c0,1.1,3.2,2,4.4,2h4.6v9H57v-9h6v-42h-1L47.5,76.6H36.3L22,25.5
		h-1v42.1h6v9H3v-9h3.3c1.3,0,2.7-0.9,2.7-2V24.9c0-1.1-1.4-2.4-2.7-2.4H2.9v-9h31.2l10.2,36.1h0.3l10.3-36.1h32.3L87.1,22.5
		L87.1,22.5z"/>
</g>
</svg>
