<?xml version="1.0" encoding="utf-8"?>
<!-- Generator: Adobe Illustrator 21.1.0, SVG Export Plug-In . SVG Version: 6.00 Build 0)  -->
<svg version="1.1" id="Capa_1" xmlns="http://www.w3.org/2000/svg" xmlns:xlink="http://www.w3.org/1999/xlink" x="0px" y="0px"
	 viewBox="0 0 90 90" style="enable-background:new 0 0 90 90;" xml:space="preserve">
<style type="text/css">
	.st0{fill:#FFFFFF;}
</style>
<g>
	<g>
		<path class="st0" d="M87,18.9c-3.1,1.4-6.4,2.3-9.9,2.7c3.6-2.2,6.3-5.5,7.6-9.5c-3.3,2-7,3.4-10.9,4.2c-3.1-3.4-7.6-5.5-12.6-5.5
			c-9.5,0-17.2,7.7-17.2,17.3c0,1.3,0.2,2.6,0.5,4c-14.3-0.8-27.1-7.6-35.6-18c-1.5,2.5-2.4,5.5-2.4,8.7c0,5.9,3,11.2,7.6,14.3
			c-2.8-0.1-5.5-0.8-7.8-2.2v0.2c0,8.4,5.9,15.3,13.9,16.9c-1.4,0.4-2.9,0.6-4.5,0.6c-1.1,0-2.2-0.1-3.2-0.3
			c2.2,6.9,8.6,11.8,16.1,12c-5.9,4.6-13.3,7.4-21.4,7.4c-1.4,0-2.7-0.1-4.2-0.3c7.6,4.9,16.7,7.7,26.4,7.7
			c31.7,0,49.1-26.2,49.1-49.1l-0.1-2.3C81.8,25.5,84.7,22.3,87,18.9z"/>
	</g>
</g>
</svg>
