<svg width="302" height="302" viewBox="0 0 302 302" fill="none" xmlns="http://www.w3.org/2000/svg">
<path d="M100.075 81.908C108.685 71.4264 137.819 71.2212 153.952 72.6041C155.732 72.7567 157.075 74.261 157.075 76.0481C157.075 76.9229 156.749 77.7637 156.161 78.4111C146.891 88.6099 127.292 110.937 116.075 126.408C101.575 146.408 90.5752 175.908 99.5752 183.408C108.575 190.908 124.575 166.908 136.575 152.408C170.575 116.408 185 131.5 187.5 142.5C169 124 137.575 204 116.075 214.5C103.046 220.863 74.5751 225.408 65.5751 192.908C56.5751 160.408 88.5751 95.908 100.075 81.908Z" fill="#007AFF"/>
<path d="M154.075 184.408C158.475 165.208 156.909 161.075 155.575 161.408C156.198 142.408 179.5 136.5 184 137C188.5 137.5 192.575 157.908 178.575 184.408C167.375 205.608 167.909 223.908 169.575 230.408C148.075 230.408 148.575 208.408 154.075 184.408Z" fill="#007AFF"/>
<path d="M208.575 199.908C200.175 223.108 178.742 229.908 169.075 230.408C160.075 226.908 169.075 198.408 170.575 205.908C172.075 213.408 180.575 208.408 192.075 201.408C203.575 194.408 210.075 193.908 208.575 199.908Z" fill="#007AFF"/>
<path d="M237 219.5C237 225.299 232.299 230 226.5 230C220.701 230 216 225.299 216 219.5C216 213.701 220.701 209 226.5 209C232.299 209 237 213.701 237 219.5Z" fill="#007AFF"/>
</svg>
