<svg width="778" height="563" viewBox="0 0 778 563" version="1.1" xmlns="http://www.w3.org/2000/svg" xmlns:xlink="http://www.w3.org/1999/xlink">
<title>influencer-illustration</title>
<desc>Created using Figma</desc>
<g id="Canvas" transform="translate(-19765 -57292)">
<g id="influencer-illustration">
<g id="invoice" filter="url(#filter0_d)">
<g id="Rectangle 2.9" filter="url(#filter1_d)">
<use xlink:href="#path0_fill" transform="matrix(1 5.55112e-17 -5.55112e-17 1 19785 57296)" fill="#FFFFFF"/>
</g>
<g id="snapchat (1)" opacity="0.5">
<g id="Vector">
<use xlink:href="#path1_fill" transform="matrix(1 -2.77556e-17 2.77556e-17 1 19819 57465.5)" fill="#4F4FBD"/>
<use xlink:href="#path2_stroke" transform="matrix(1 -2.77556e-17 2.77556e-17 1 19819 57465.5)" fill="#4F4FBD"/>
</g>
</g>
<g id="snapchat (1)" opacity="0.5">
<g id="Vector">
<use xlink:href="#path1_fill" transform="matrix(1 -2.77556e-17 2.77556e-17 1 19819 57528.5)" fill="#4F4FBD"/>
<use xlink:href="#path2_stroke" transform="matrix(1 -2.77556e-17 2.77556e-17 1 19819 57528.5)" fill="#4F4FBD"/>
</g>
</g>
<g id="instagram-logo" opacity="0.5">
<g id="Group">
<g id="Vector">
<use xlink:href="#path3_fill" transform="matrix(1 2.77556e-17 -2.77556e-17 1 19820 57400.5)" fill="#4F4FBD"/>
</g>
<g id="Vector">
<use xlink:href="#path4_fill" transform="matrix(1 2.77556e-17 -2.77556e-17 1 19826.1 57406.5)" fill="#4F4FBD"/>
</g>
<g id="Vector">
<use xlink:href="#path5_fill" transform="matrix(1 2.77556e-17 -2.77556e-17 1 19837.6 57404.6)" fill="#4F4FBD"/>
</g>
</g>
</g>
<g id="instagram-logo" opacity="0.5">
<g id="Group">
<g id="Vector">
<use xlink:href="#path3_fill" transform="matrix(1 2.77556e-17 -2.77556e-17 1 19820 57591.5)" fill="#4F4FBD"/>
</g>
<g id="Vector">
<use xlink:href="#path4_fill" transform="matrix(1 2.77556e-17 -2.77556e-17 1 19826.1 57597.5)" fill="#4F4FBD"/>
</g>
<g id="Vector">
<use xlink:href="#path5_fill" transform="matrix(1 2.77556e-17 -2.77556e-17 1 19837.6 57595.6)" fill="#4F4FBD"/>
</g>
</g>
</g>
<g id="Rectangle 2.10" filter="url(#filter2_d)">
<use xlink:href="#path6_fill" transform="matrix(1 5.55112e-17 -5.55112e-17 1 19785 57296.5)" fill="#FFFFFF"/>
</g>
<g id="YOUR EARNINGS">
<use xlink:href="#path7_fill" transform="translate(19810 57311.5)" fill="#7D849E"/>
</g>
<g id="$7,000 USD">
<use xlink:href="#path8_fill" transform="translate(20008 57311.5)" fill="#FF4E00"/>
</g>
<g id="Group 6.1">
<g id="$2000USD">
<use xlink:href="#path9_fill" transform="translate(20016 57401.5)" fill="#FFB994"/>
</g>
<g id="Rectangle 15.1">
<use xlink:href="#path10_fill" transform="translate(19867 57399.5)" fill="#1F06A9" fill-opacity="0.1"/>
</g>
<g id="Rectangle 15.2">
<use xlink:href="#path10_fill" transform="translate(19867 57420.8)" fill="#1F06A9" fill-opacity="0.1"/>
</g>
</g>
<g id="Group 5.6">
<g id="$500USD">
<use xlink:href="#path11_fill" transform="translate(20025 57464.5)" fill="#FFB994"/>
</g>
<g id="Rectangle 15.4">
<use xlink:href="#path10_fill" transform="translate(19867 57462.5)" fill="#1F06A9" fill-opacity="0.1"/>
</g>
<g id="Rectangle 15.5">
<use xlink:href="#path10_fill" transform="translate(19867 57483.8)" fill="#1F06A9" fill-opacity="0.1"/>
</g>
</g>
<g id="Group 4.15">
<g id="$1500USD">
<use xlink:href="#path12_fill" transform="translate(20018 57527.5)" fill="#FFB994"/>
</g>
<g id="Rectangle 15.7">
<use xlink:href="#path10_fill" transform="translate(19867 57525.5)" fill="#1F06A9" fill-opacity="0.1"/>
</g>
<g id="Rectangle 15.8">
<use xlink:href="#path10_fill" transform="translate(19867 57546.8)" fill="#1F06A9" fill-opacity="0.1"/>
</g>
</g>
<g id="Group 3.18">
<g id="$3000USD">
<use xlink:href="#path13_fill" transform="translate(20015 57590.5)" fill="#FFB994"/>
</g>
<g id="Rectangle 15.10">
<use xlink:href="#path10_fill" transform="translate(19867 57588.5)" fill="#1F06A9" fill-opacity="0.1"/>
</g>
<g id="Rectangle 15.11">
<use xlink:href="#path10_fill" transform="translate(19867 57609.8)" fill="#1F06A9" fill-opacity="0.1"/>
</g>
</g>
<g id="This Month">
<use xlink:href="#path14_fill" transform="translate(19810 57360.5)" fill="#7D849E"/>
</g>
</g>
<g id="invoice" filter="url(#filter3_d)">
<g id="Rectangle 2.9" filter="url(#filter4_d)">
<use xlink:href="#path0_fill" transform="matrix(1 5.55112e-17 -5.55112e-17 1 20178 57438.5)" fill="#FFFFFF"/>
</g>
<g id="snapchat (1)" opacity="0.5">
<g id="Vector">
<use xlink:href="#path1_fill" transform="matrix(1 -2.77556e-17 2.77556e-17 1 20212 57607.5)" fill="#4F4FBD"/>
<use xlink:href="#path2_stroke" transform="matrix(1 -2.77556e-17 2.77556e-17 1 20212 57607.5)" fill="#4F4FBD"/>
</g>
</g>
<g id="snapchat (1)" opacity="0.5">
<g id="Vector">
<use xlink:href="#path1_fill" transform="matrix(1 -2.77556e-17 2.77556e-17 1 20212 57544.5)" fill="#4F4FBD"/>
<use xlink:href="#path2_stroke" transform="matrix(1 -2.77556e-17 2.77556e-17 1 20212 57544.5)" fill="#4F4FBD"/>
</g>
</g>
<g id="snapchat (1)" opacity="0.5">
<g id="Vector">
<use xlink:href="#path1_fill" transform="matrix(1 -2.77556e-17 2.77556e-17 1 20212 57670.5)" fill="#4F4FBD"/>
<use xlink:href="#path2_stroke" transform="matrix(1 -2.77556e-17 2.77556e-17 1 20212 57670.5)" fill="#4F4FBD"/>
</g>
</g>
<g id="instagram-logo" opacity="0.5">
<g id="Group">
<g id="Vector">
<use xlink:href="#path3_fill" transform="matrix(1 2.77556e-17 -2.77556e-17 1 20213 57733.9)" fill="#4F4FBD"/>
</g>
<g id="Vector">
<use xlink:href="#path4_fill" transform="matrix(1 2.77556e-17 -2.77556e-17 1 20219.1 57740)" fill="#4F4FBD"/>
</g>
<g id="Vector">
<use xlink:href="#path5_fill" transform="matrix(1 2.77556e-17 -2.77556e-17 1 20230.6 57738.1)" fill="#4F4FBD"/>
</g>
</g>
</g>
<g id="Rectangle 2.10" filter="url(#filter5_d)">
<use xlink:href="#path6_fill" transform="matrix(1 5.55112e-17 -5.55112e-17 1 20178 57438.9)" fill="#FFFFFF"/>
</g>
<g id="YOUR EARNINGS">
<use xlink:href="#path7_fill" transform="translate(20203 57453.9)" fill="#7D849E"/>
</g>
<g id="$7,000 USD">
<use xlink:href="#path8_fill" transform="translate(20401 57453.9)" fill="#FF4E00"/>
</g>
<g id="Group 6.1">
<g id="$2000USD">
<use xlink:href="#path9_fill" transform="translate(20409 57543.9)" fill="#FFB994"/>
</g>
<g id="Rectangle 15.1">
<use xlink:href="#path10_fill" transform="translate(20260 57541.9)" fill="#1F06A9" fill-opacity="0.1"/>
</g>
<g id="Rectangle 15.2">
<use xlink:href="#path10_fill" transform="translate(20260 57563.3)" fill="#1F06A9" fill-opacity="0.1"/>
</g>
</g>
<g id="Group 5.6">
<g id="$500USD">
<use xlink:href="#path11_fill" transform="translate(20418 57606.9)" fill="#FFB994"/>
</g>
<g id="Rectangle 15.4">
<use xlink:href="#path10_fill" transform="translate(20260 57604.9)" fill="#1F06A9" fill-opacity="0.1"/>
</g>
<g id="Rectangle 15.5">
<use xlink:href="#path10_fill" transform="translate(20260 57626.3)" fill="#1F06A9" fill-opacity="0.1"/>
</g>
</g>
<g id="Group 4.15">
<g id="$1500USD">
<use xlink:href="#path12_fill" transform="translate(20411 57669.9)" fill="#FFB994"/>
</g>
<g id="Rectangle 15.7">
<use xlink:href="#path10_fill" transform="translate(20260 57667.9)" fill="#1F06A9" fill-opacity="0.1"/>
</g>
<g id="Rectangle 15.8">
<use xlink:href="#path10_fill" transform="translate(20260 57689.3)" fill="#1F06A9" fill-opacity="0.1"/>
</g>
</g>
<g id="Group 3.18">
<g id="$3000USD">
<use xlink:href="#path13_fill" transform="translate(20408 57732.9)" fill="#FFB994"/>
</g>
<g id="Rectangle 15.10">
<use xlink:href="#path10_fill" transform="translate(20260 57730.9)" fill="#1F06A9" fill-opacity="0.1"/>
</g>
<g id="Rectangle 15.11">
<use xlink:href="#path10_fill" transform="translate(20260 57752.3)" fill="#1F06A9" fill-opacity="0.1"/>
</g>
</g>
<g id="This Month">
<use xlink:href="#path14_fill" transform="translate(20203 57502.9)" fill="#7D849E"/>
</g>
</g>
<g id="note" filter="url(#filter6_d)">
<g id="Rectangle 11.1" filter="url(#filter7_d)">
<use xlink:href="#path15_fill" transform="translate(19785 57709.5)" fill="url(#paint53_linear)"/>
</g>
<g id="Rectangle 11.2" filter="url(#filter8_d)">
<use xlink:href="#path16_fill" transform="translate(19799.2 57726.2)" fill="url(#paint54_linear)"/>
</g>
<g id="Ellipse">
<use xlink:href="#path17_fill" transform="translate(19863.6 57743)" fill="#82C736"/>
</g>
<g id="Mask Group">
<mask id="mask0_alpha" mask-type="alpha">
<g id="Rectangle 11.3">
<use xlink:href="#path16_fill" transform="translate(19799.2 57726.2)" fill="url(#paint56_linear)"/>
</g>
</mask>
<g id="Ellipse" mask="url(#mask0_alpha)">
<use xlink:href="#path17_fill" transform="translate(19785 57708.6)" fill="#7EBF36"/>
</g>
<g id="Ellipse" mask="url(#mask0_alpha)">
<use xlink:href="#path17_fill" transform="translate(19947.5 57708.6)" fill="#82C736"/>
</g>
<g id="Ellipse" mask="url(#mask0_alpha)">
<use xlink:href="#path17_fill" transform="translate(19947.5 57778.3)" fill="#82C736"/>
</g>
<g id="Ellipse" mask="url(#mask0_alpha)">
<use xlink:href="#path17_fill" transform="translate(19779.7 57778.3)" fill="#7EBF36"/>
</g>
</g>
<g id="$">
<use xlink:href="#path18_fill" transform="translate(19871.5 57743.2)" fill="#E2FF5E"/>
</g>
</g>
<g id="note" filter="url(#filter9_d)">
<g id="Rectangle 11.1" filter="url(#filter10_d)">
<use xlink:href="#path15_fill" transform="translate(20177 57296.5)" fill="url(#paint62_linear)"/>
</g>
<g id="Rectangle 11.2" filter="url(#filter11_d)">
<use xlink:href="#path16_fill" transform="translate(20191.2 57313.2)" fill="url(#paint63_linear)"/>
</g>
<g id="Ellipse">
<use xlink:href="#path17_fill" transform="translate(20255.6 57330)" fill="#82C736"/>
</g>
<g id="Mask Group">
<mask id="mask1_alpha" mask-type="alpha">
<g id="Rectangle 11.3">
<use xlink:href="#path16_fill" transform="translate(20191.2 57313.2)" fill="url(#paint65_linear)"/>
</g>
</mask>
<g id="Ellipse" mask="url(#mask1_alpha)">
<use xlink:href="#path17_fill" transform="translate(20177 57295.6)" fill="#7EBF36"/>
</g>
<g id="Ellipse" mask="url(#mask1_alpha)">
<use xlink:href="#path17_fill" transform="translate(20339.5 57295.6)" fill="#82C736"/>
</g>
<g id="Ellipse" mask="url(#mask1_alpha)">
<use xlink:href="#path17_fill" transform="translate(20339.5 57365.3)" fill="#82C736"/>
</g>
<g id="Ellipse" mask="url(#mask1_alpha)">
<use xlink:href="#path17_fill" transform="translate(20171.7 57365.3)" fill="#7EBF36"/>
</g>
</g>
<g id="$">
<use xlink:href="#path18_fill" transform="translate(20263.5 57330.2)" fill="#E2FF5E"/>
</g>
</g>
</g>
</g>
<defs>
<filter id="filter0_d" filterUnits="userSpaceOnUse" x="19765" y="57292" width="385" height="420" color-interpolation-filters="sRGB">
<feFlood flood-opacity="0" result="BackgroundImageFix"/>
<feColorMatrix in="SourceAlpha" type="matrix" values="0 0 0 0 0 0 0 0 0 0 0 0 0 0 0 0 0 0 255 0"/>
<feOffset dx="0" dy="16"/>
<feGaussianBlur stdDeviation="10"/>
<feColorMatrix type="matrix" values="0 0 0 0 0 0 0 0 0 0 0 0 0 0 0 0 0 0 0.1 0"/>
<feBlend mode="normal" in2="BackgroundImageFix" result="effect1_dropShadow"/>
<feBlend mode="normal" in="SourceGraphic" in2="effect1_dropShadow" result="shape"/>
</filter>
<filter id="filter1_d" filterUnits="userSpaceOnUse" x="19765" y="57292" width="384" height="420" color-interpolation-filters="sRGB">
<feFlood flood-opacity="0" result="BackgroundImageFix"/>
<feColorMatrix in="SourceAlpha" type="matrix" values="0 0 0 0 0 0 0 0 0 0 0 0 0 0 0 0 0 0 255 0"/>
<feOffset dx="0" dy="16"/>
<feGaussianBlur stdDeviation="10"/>
<feColorMatrix type="matrix" values="0 0 0 0 0 0 0 0 0 0 0 0 0 0 0 0 0 0 0.025 0"/>
<feBlend mode="normal" in2="BackgroundImageFix" result="effect1_dropShadow"/>
<feBlend mode="normal" in="SourceGraphic" in2="effect1_dropShadow" result="shape"/>
</filter>
<filter id="filter2_d" filterUnits="userSpaceOnUse" x="19765" y="57292" width="385" height="95" color-interpolation-filters="sRGB">
<feFlood flood-opacity="0" result="BackgroundImageFix"/>
<feColorMatrix in="SourceAlpha" type="matrix" values="0 0 0 0 0 0 0 0 0 0 0 0 0 0 0 0 0 0 255 0"/>
<feOffset dx="0" dy="16"/>
<feGaussianBlur stdDeviation="10"/>
<feColorMatrix type="matrix" values="0 0 0 0 0 0 0 0 0 0 0 0 0 0 0 0 0 0 0.025 0"/>
<feBlend mode="normal" in2="BackgroundImageFix" result="effect1_dropShadow"/>
<feBlend mode="normal" in="SourceGraphic" in2="effect1_dropShadow" result="shape"/>
</filter>
<filter id="filter3_d" filterUnits="userSpaceOnUse" x="20158" y="57434" width="385" height="421" color-interpolation-filters="sRGB">
<feFlood flood-opacity="0" result="BackgroundImageFix"/>
<feColorMatrix in="SourceAlpha" type="matrix" values="0 0 0 0 0 0 0 0 0 0 0 0 0 0 0 0 0 0 255 0"/>
<feOffset dx="0" dy="16"/>
<feGaussianBlur stdDeviation="10"/>
<feColorMatrix type="matrix" values="0 0 0 0 0 0 0 0 0 0 0 0 0 0 0 0 0 0 0.1 0"/>
<feBlend mode="normal" in2="BackgroundImageFix" result="effect1_dropShadow"/>
<feBlend mode="normal" in="SourceGraphic" in2="effect1_dropShadow" result="shape"/>
</filter>
<filter id="filter4_d" filterUnits="userSpaceOnUse" x="20158" y="57434" width="384" height="421" color-interpolation-filters="sRGB">
<feFlood flood-opacity="0" result="BackgroundImageFix"/>
<feColorMatrix in="SourceAlpha" type="matrix" values="0 0 0 0 0 0 0 0 0 0 0 0 0 0 0 0 0 0 255 0"/>
<feOffset dx="0" dy="16"/>
<feGaussianBlur stdDeviation="10"/>
<feColorMatrix type="matrix" values="0 0 0 0 0 0 0 0 0 0 0 0 0 0 0 0 0 0 0.025 0"/>
<feBlend mode="normal" in2="BackgroundImageFix" result="effect1_dropShadow"/>
<feBlend mode="normal" in="SourceGraphic" in2="effect1_dropShadow" result="shape"/>
</filter>
<filter id="filter5_d" filterUnits="userSpaceOnUse" x="20158" y="57434" width="385" height="95" color-interpolation-filters="sRGB">
<feFlood flood-opacity="0" result="BackgroundImageFix"/>
<feColorMatrix in="SourceAlpha" type="matrix" values="0 0 0 0 0 0 0 0 0 0 0 0 0 0 0 0 0 0 255 0"/>
<feOffset dx="0" dy="16"/>
<feGaussianBlur stdDeviation="10"/>
<feColorMatrix type="matrix" values="0 0 0 0 0 0 0 0 0 0 0 0 0 0 0 0 0 0 0.025 0"/>
<feBlend mode="normal" in2="BackgroundImageFix" result="effect1_dropShadow"/>
<feBlend mode="normal" in="SourceGraphic" in2="effect1_dropShadow" result="shape"/>
</filter>
<filter id="filter6_d" filterUnits="userSpaceOnUse" x="19765" y="57705" width="236" height="146" color-interpolation-filters="sRGB">
<feFlood flood-opacity="0" result="BackgroundImageFix"/>
<feColorMatrix in="SourceAlpha" type="matrix" values="0 0 0 0 0 0 0 0 0 0 0 0 0 0 0 0 0 0 255 0"/>
<feOffset dx="0" dy="16"/>
<feGaussianBlur stdDeviation="10"/>
<feColorMatrix type="matrix" values="0 0 0 0 0.509804 0 0 0 0 0.780392 0 0 0 0 0.211765 0 0 0 0.15 0"/>
<feBlend mode="normal" in2="BackgroundImageFix" result="effect1_dropShadow"/>
<feBlend mode="normal" in="SourceGraphic" in2="effect1_dropShadow" result="shape"/>
</filter>
<filter id="filter7_d" filterUnits="userSpaceOnUse" x="19765" y="57705" width="236" height="146" color-interpolation-filters="sRGB">
<feFlood flood-opacity="0" result="BackgroundImageFix"/>
<feColorMatrix in="SourceAlpha" type="matrix" values="0 0 0 0 0 0 0 0 0 0 0 0 0 0 0 0 0 0 255 0"/>
<feOffset dx="0" dy="16"/>
<feGaussianBlur stdDeviation="10"/>
<feColorMatrix type="matrix" values="0 0 0 0 0 0 0 0 0 0 0 0 0 0 0 0 0 0 0.025 0"/>
<feBlend mode="normal" in2="BackgroundImageFix" result="effect1_dropShadow"/>
<feBlend mode="normal" in="SourceGraphic" in2="effect1_dropShadow" result="shape"/>
</filter>
<filter id="filter8_d" filterUnits="userSpaceOnUse" x="19779" y="57722" width="208" height="112" color-interpolation-filters="sRGB">
<feFlood flood-opacity="0" result="BackgroundImageFix"/>
<feColorMatrix in="SourceAlpha" type="matrix" values="0 0 0 0 0 0 0 0 0 0 0 0 0 0 0 0 0 0 255 0"/>
<feOffset dx="0" dy="16"/>
<feGaussianBlur stdDeviation="10"/>
<feColorMatrix type="matrix" values="0 0 0 0 0 0 0 0 0 0 0 0 0 0 0 0 0 0 0.025 0"/>
<feBlend mode="normal" in2="BackgroundImageFix" result="effect1_dropShadow"/>
<feBlend mode="normal" in="SourceGraphic" in2="effect1_dropShadow" result="shape"/>
</filter>
<filter id="filter9_d" filterUnits="userSpaceOnUse" x="20157" y="57292" width="236" height="146" color-interpolation-filters="sRGB">
<feFlood flood-opacity="0" result="BackgroundImageFix"/>
<feColorMatrix in="SourceAlpha" type="matrix" values="0 0 0 0 0 0 0 0 0 0 0 0 0 0 0 0 0 0 255 0"/>
<feOffset dx="0" dy="16"/>
<feGaussianBlur stdDeviation="10"/>
<feColorMatrix type="matrix" values="0 0 0 0 0.509804 0 0 0 0 0.780392 0 0 0 0 0.211765 0 0 0 0.25 0"/>
<feBlend mode="normal" in2="BackgroundImageFix" result="effect1_dropShadow"/>
<feBlend mode="normal" in="SourceGraphic" in2="effect1_dropShadow" result="shape"/>
</filter>
<filter id="filter10_d" filterUnits="userSpaceOnUse" x="20157" y="57292" width="236" height="146" color-interpolation-filters="sRGB">
<feFlood flood-opacity="0" result="BackgroundImageFix"/>
<feColorMatrix in="SourceAlpha" type="matrix" values="0 0 0 0 0 0 0 0 0 0 0 0 0 0 0 0 0 0 255 0"/>
<feOffset dx="0" dy="16"/>
<feGaussianBlur stdDeviation="10"/>
<feColorMatrix type="matrix" values="0 0 0 0 0 0 0 0 0 0 0 0 0 0 0 0 0 0 0.025 0"/>
<feBlend mode="normal" in2="BackgroundImageFix" result="effect1_dropShadow"/>
<feBlend mode="normal" in="SourceGraphic" in2="effect1_dropShadow" result="shape"/>
</filter>
<filter id="filter11_d" filterUnits="userSpaceOnUse" x="20171" y="57309" width="208" height="112" color-interpolation-filters="sRGB">
<feFlood flood-opacity="0" result="BackgroundImageFix"/>
<feColorMatrix in="SourceAlpha" type="matrix" values="0 0 0 0 0 0 0 0 0 0 0 0 0 0 0 0 0 0 255 0"/>
<feOffset dx="0" dy="16"/>
<feGaussianBlur stdDeviation="10"/>
<feColorMatrix type="matrix" values="0 0 0 0 0 0 0 0 0 0 0 0 0 0 0 0 0 0 0.025 0"/>
<feBlend mode="normal" in2="BackgroundImageFix" result="effect1_dropShadow"/>
<feBlend mode="normal" in="SourceGraphic" in2="effect1_dropShadow" result="shape"/>
</filter>
<linearGradient id="paint53_linear" x1="0" y1="0" x2="1" y2="0" gradientUnits="userSpaceOnUse" gradientTransform="matrix(196 41.4706 -77.4118 877.43 38.7059 -385.774)">
<stop offset="0" stop-color="#AAD741"/>
<stop offset="1" stop-color="#CBDF48"/>
</linearGradient>
<linearGradient id="paint54_linear" x1="0" y1="0" x2="1" y2="0" gradientUnits="userSpaceOnUse" gradientTransform="matrix(167.512 28.2279 -66.1601 597.242 33.08 -262.585)">
<stop offset="0" stop-color="#82C736"/>
<stop offset="1" stop-color="#ADD842"/>
</linearGradient>
<linearGradient id="paint56_linear" x1="0" y1="0" x2="1" y2="0" gradientUnits="userSpaceOnUse" gradientTransform="matrix(167.512 28.2279 -66.1601 597.242 33.08 -262.585)">
<stop offset="0" stop-color="#82C736"/>
<stop offset="1" stop-color="#ADD842"/>
</linearGradient>
<linearGradient id="paint62_linear" x1="0" y1="0" x2="1" y2="0" gradientUnits="userSpaceOnUse" gradientTransform="matrix(196 41.4706 -77.4118 877.43 38.7059 -385.774)">
<stop offset="0" stop-color="#AAD741"/>
<stop offset="1" stop-color="#CBDF48"/>
</linearGradient>
<linearGradient id="paint63_linear" x1="0" y1="0" x2="1" y2="0" gradientUnits="userSpaceOnUse" gradientTransform="matrix(167.512 28.2279 -66.1601 597.242 33.08 -262.585)">
<stop offset="0" stop-color="#82C736"/>
<stop offset="1" stop-color="#ADD842"/>
</linearGradient>
<linearGradient id="paint65_linear" x1="0" y1="0" x2="1" y2="0" gradientUnits="userSpaceOnUse" gradientTransform="matrix(167.512 28.2279 -66.1601 597.242 33.08 -262.585)">
<stop offset="0" stop-color="#82C736"/>
<stop offset="1" stop-color="#ADD842"/>
</linearGradient>
<path id="path0_fill" d="M 0 0L 344 0L 344 380L 0 380L 0 0Z"/>
<path id="path1_fill" d="M 12.9885 1.38615C 16.478 1.38731 19.3847 4.2888 19.389 7.78239C 19.39 8.60066 19.4152 9.35417 19.4615 10.0483C 19.49 10.4766 19.8466 10.7939 20.2556 10.7939C 20.3158 10.7939 20.3772 10.7871 20.4388 10.7726L 21.532 10.5167C 21.5785 10.5058 21.6252 10.5006 21.6713 10.5006C 21.9489 10.5006 22.2046 10.69 22.2669 10.9706C 22.355 11.3672 22.1326 11.7678 21.7479 11.9026L 20.0885 12.5716C 19.6696 12.7405 19.4446 13.1958 19.5626 13.6314C 20.8938 18.5469 24.6122 18.0357 24.6122 18.6761C 24.6122 19.4803 21.8095 19.5939 21.5563 19.8468C 21.3031 20.0997 21.5453 21.3273 20.9795 21.5649C 20.8729 21.6097 20.7214 21.6253 20.5366 21.6253C 20.1104 21.6253 19.5078 21.5422 18.8726 21.5422C 18.3216 21.5422 17.7461 21.6047 17.2402 21.8381C 15.898 22.4574 14.6041 23.614 13 23.614C 11.396 23.614 10.102 22.4574 8.75988 21.8381C 8.25386 21.6047 7.67855 21.5422 7.1275 21.5422C 6.49235 21.5422 5.88957 21.6253 5.46349 21.6253C 5.27879 21.6253 5.12712 21.6096 5.02053 21.5649C 4.45477 21.3273 4.69699 20.0997 4.44378 19.8468C 4.19058 19.5939 1.38788 19.4803 1.38788 18.6761C 1.38788 18.0356 5.10625 18.5468 6.4375 13.6314C 6.55547 13.1958 6.33047 12.7405 5.9115 12.5715L 4.25214 11.9025C 3.86737 11.7678 3.64492 11.3671 3.73307 10.9706C 3.79542 10.6899 4.05107 10.5005 4.3287 10.5005C 4.37478 10.5005 4.42152 10.5057 4.46804 10.5166L 5.56119 10.7726C 5.62282 10.787 5.68416 10.7939 5.74439 10.7939C 6.15332 10.7939 6.51001 10.4764 6.53854 10.0482C 6.58479 9.35411 6.6101 8.6006 6.6111 7.78233C 6.61532 4.2888 9.4989 1.38737 12.9885 1.38615ZM 12.9889 -1.26906e-09L 12.9884 -1.26906e-09L 12.9879 -1.26906e-09C 11.9463 0.000332674 10.9317 0.209364 9.97228 0.621327C 9.05133 1.01671 8.22249 1.58049 7.50878 2.29701C 6.79602 3.0126 6.23509 3.84334 5.8416 4.76618C 5.43245 5.72579 5.22438 6.74 5.22311 7.78067C 5.22249 8.2916 5.21189 8.78745 5.19146 9.26229L 4.78476 9.16704C 4.63553 9.13211 4.48209 9.11436 4.32881 9.11431C 3.88619 9.11425 3.44956 9.26368 3.09937 9.53503C 2.73402 9.81814 2.47782 10.2213 2.37806 10.6702C 2.14062 11.7388 2.73141 12.8176 3.75522 13.197L 4.97306 13.688C 4.16665 16.1601 2.67967 16.6338 1.67834 16.9529C 1.41264 17.0376 1.18314 17.1107 0.964635 17.219C 0.0939875 17.6506 0 18.3818 0 18.6761C 0 19.2398 0.26714 19.7542 0.752288 20.1245C 0.993836 20.3089 1.29306 20.4611 1.66701 20.5897C 2.1767 20.7649 2.76755 20.8762 3.24776 20.9653C 3.27096 21.143 3.305 21.3339 3.36234 21.5263C 3.60045 22.3253 4.10292 22.6831 4.48253 22.8425C 4.84271 22.9939 5.21489 23.0113 5.46349 23.0113C 5.70664 23.0113 5.96368 22.9923 6.23582 22.9722C 6.52777 22.9506 6.82966 22.9283 7.1275 22.9283C 7.58906 22.9283 7.93264 22.9833 8.17785 23.0964C 8.51455 23.2517 8.87163 23.4612 9.24969 23.6829C 10.3021 24.3003 11.495 25 13 25C 14.505 25 15.6979 24.3003 16.7503 23.6829C 17.1284 23.4612 17.4854 23.2517 17.8222 23.0964C 18.0674 22.9832 18.411 22.9283 18.8726 22.9283C 19.1704 22.9283 19.4723 22.9506 19.7642 22.9722C 20.0363 22.9923 20.2934 23.0113 20.5365 23.0113C 20.7851 23.0113 21.1572 22.9939 21.5175 22.8425C 21.8971 22.6831 22.3996 22.3253 22.6377 21.5263C 22.695 21.3339 22.7291 21.143 22.7522 20.9653C 23.2324 20.8761 23.8234 20.7649 24.333 20.5897C 24.707 20.4611 25.0062 20.3089 25.2477 20.1245C 25.7328 19.7542 26 19.2398 26 18.6761C 26 18.3818 25.906 17.6506 25.0353 17.2191C 24.8167 17.1108 24.5872 17.0376 24.3216 16.953C 23.3202 16.6339 21.8332 16.1601 21.0268 13.688L 22.2446 13.1971C 23.2684 12.8177 23.8593 11.7388 23.6218 10.6702C 23.5221 10.2213 23.2659 9.81814 22.9005 9.53503C 22.5503 9.26373 22.1138 9.11431 21.6713 9.11431C 21.518 9.11431 21.3646 9.13205 21.2152 9.16698L 20.8085 9.26224C 20.7881 8.78745 20.7775 8.2916 20.7768 7.78061C 20.7756 6.73912 20.5658 5.7239 20.1534 4.76302C 19.7575 3.84063 19.1935 3.0101 18.4772 2.29446C 17.7609 1.57888 16.9297 1.01571 16.0069 0.620661C 15.0456 0.209197 14.0302 0.00038812 12.9889 -1.26906e-09Z"/>
<path id="path2_stroke" d="M 12.9885 1.38615L 12.9885 1.26115L 12.9884 1.26115L 12.9885 1.38615ZM 19.389 7.78239L 19.264 7.78254L 19.264 7.78254L 19.389 7.78239ZM 19.4615 10.0483L 19.3367 10.0566L 19.3367 10.0566L 19.4615 10.0483ZM 20.4388 10.7726L 20.4673 10.8944L 20.4673 10.8943L 20.4388 10.7726ZM 21.532 10.5167L 21.5605 10.6384L 21.5605 10.6384L 21.532 10.5167ZM 22.2669 10.9706L 22.1449 10.9977L 22.1449 10.9977L 22.2669 10.9706ZM 21.7479 11.9026L 21.7065 11.7845L 21.7011 11.7866L 21.7479 11.9026ZM 20.0885 12.5716L 20.1352 12.6875L 20.1352 12.6875L 20.0885 12.5716ZM 19.5626 13.6314L 19.6832 13.5988L 19.6832 13.5988L 19.5626 13.6314ZM 20.9795 21.5649L 20.9311 21.4497L 20.9311 21.4497L 20.9795 21.5649ZM 17.2402 21.8381L 17.2925 21.9516L 17.2925 21.9516L 17.2402 21.8381ZM 8.75988 21.8381L 8.70751 21.9516L 8.70751 21.9516L 8.75988 21.8381ZM 5.02053 21.5649L 4.97212 21.6802L 4.97215 21.6802L 5.02053 21.5649ZM 6.4375 13.6314L 6.31685 13.5987L 6.31685 13.5987L 6.4375 13.6314ZM 5.9115 12.5715L 5.95824 12.4556L 5.95824 12.4556L 5.9115 12.5715ZM 4.25214 11.9025L 4.29893 11.7865L 4.29345 11.7845L 4.25214 11.9025ZM 3.73307 10.9706L 3.85509 10.9977L 3.8551 10.9977L 3.73307 10.9706ZM 4.3287 10.5005L 4.32867 10.6255L 4.3287 10.6255L 4.3287 10.5005ZM 4.46804 10.5166L 4.43947 10.6383L 4.43955 10.6384L 4.46804 10.5166ZM 5.56119 10.7726L 5.5327 10.8943L 5.53272 10.8943L 5.56119 10.7726ZM 6.53854 10.0482L 6.66327 10.0565L 6.66327 10.0565L 6.53854 10.0482ZM 6.6111 7.78233L 6.7361 7.78248L 6.7361 7.78248L 6.6111 7.78233ZM 12.9889 -1.26906e-09L 12.989 -0.125L 12.9889 -0.125L 12.9889 -1.26906e-09ZM 12.9879 -1.26906e-09L 12.9879 -0.125L 12.9879 -0.125L 12.9879 -1.26906e-09ZM 9.97228 0.621327L 10.0216 0.736188L 10.0216 0.736186L 9.97228 0.621327ZM 7.50878 2.29701L 7.42022 2.2088L 7.42022 2.2088L 7.50878 2.29701ZM 5.8416 4.76618L 5.72662 4.71716L 5.72662 4.71716L 5.8416 4.76618ZM 5.22311 7.78067L 5.09811 7.78051L 5.09811 7.78052L 5.22311 7.78067ZM 5.19146 9.26229L 5.16296 9.384L 5.30986 9.4184L 5.31635 9.26766L 5.19146 9.26229ZM 4.78476 9.16704L 4.81326 9.04533L 4.81325 9.04533L 4.78476 9.16704ZM 4.32881 9.11431L 4.32885 8.98931L 4.32882 8.98931L 4.32881 9.11431ZM 3.09937 9.53503L 3.0228 9.43622L 3.0228 9.43622L 3.09937 9.53503ZM 2.37806 10.6702L 2.25603 10.6431L 2.25603 10.6431L 2.37806 10.6702ZM 3.75522 13.197L 3.80198 13.081L 3.79866 13.0798L 3.75522 13.197ZM 4.97306 13.688L 5.0919 13.7267L 5.12812 13.6157L 5.0198 13.5721L 4.97306 13.688ZM 1.67834 16.9529L 1.71629 17.072L 1.71629 17.072L 1.67834 16.9529ZM 0.964635 17.219L 0.90913 17.107L 0.909117 17.107L 0.964635 17.219ZM 0.752288 20.1245L 0.828142 20.0252L 0.828133 20.0252L 0.752288 20.1245ZM 1.66701 20.5897L 1.70766 20.4715L 1.70766 20.4715L 1.66701 20.5897ZM 3.24776 20.9653L 3.37171 20.9491L 3.35994 20.859L 3.27058 20.8424L 3.24776 20.9653ZM 3.36234 21.5263L 3.48214 21.4906L 3.48213 21.4906L 3.36234 21.5263ZM 4.48253 22.8425L 4.53094 22.7273L 4.53093 22.7273L 4.48253 22.8425ZM 6.23582 22.9722L 6.24504 23.0968L 6.24505 23.0968L 6.23582 22.9722ZM 8.17785 23.0964L 8.23023 22.9829L 8.23021 22.9829L 8.17785 23.0964ZM 9.24969 23.6829L 9.31293 23.5751L 9.31293 23.5751L 9.24969 23.6829ZM 16.7503 23.6829L 16.8136 23.7908L 16.8136 23.7908L 16.7503 23.6829ZM 17.8222 23.0964L 17.8746 23.2099L 17.8746 23.2099L 17.8222 23.0964ZM 19.7642 22.9722L 19.7734 22.8475L 19.7734 22.8475L 19.7642 22.9722ZM 21.5175 22.8425L 21.4691 22.7273L 21.4691 22.7273L 21.5175 22.8425ZM 22.6377 21.5263L 22.5179 21.4906L 22.5179 21.4906L 22.6377 21.5263ZM 22.7522 20.9653L 22.7294 20.8424L 22.64 20.859L 22.6283 20.9492L 22.7522 20.9653ZM 24.333 20.5897L 24.2923 20.4715L 24.2923 20.4715L 24.333 20.5897ZM 25.2477 20.1245L 25.1719 20.0252L 25.1719 20.0252L 25.2477 20.1245ZM 25.0353 17.2191L 25.0908 17.1071L 25.0908 17.1071L 25.0353 17.2191ZM 24.3216 16.953L 24.3595 16.8339L 24.3595 16.8339L 24.3216 16.953ZM 21.0268 13.688L 20.9801 13.5721L 20.8718 13.6158L 20.908 13.7268L 21.0268 13.688ZM 22.2446 13.1971L 22.2012 13.0798L 22.1979 13.0811L 22.2446 13.1971ZM 23.6218 10.6702L 23.7439 10.6431L 23.7439 10.6431L 23.6218 10.6702ZM 22.9005 9.53503L 22.9771 9.43622L 22.9771 9.43621L 22.9005 9.53503ZM 21.2152 9.16698L 21.1868 9.04527L 21.1867 9.04527L 21.2152 9.16698ZM 20.8085 9.26224L 20.6836 9.26761L 20.6901 9.41835L 20.837 9.38394L 20.8085 9.26224ZM 20.7768 7.78061L 20.9018 7.78046L 20.9018 7.78046L 20.7768 7.78061ZM 20.1534 4.76302L 20.0385 4.81232L 20.0385 4.81233L 20.1534 4.76302ZM 18.4772 2.29446L 18.3888 2.3829L 18.3888 2.3829L 18.4772 2.29446ZM 16.0069 0.620661L 16.056 0.505748L 16.056 0.505747L 16.0069 0.620661ZM 12.9884 1.51115C 16.409 1.51229 19.2598 4.35792 19.264 7.78254L 19.514 7.78223C 19.5097 4.21967 16.547 1.26233 12.9885 1.26115L 12.9884 1.51115ZM 19.264 7.78254C 19.265 8.60327 19.2903 9.35952 19.3367 10.0566L 19.5862 10.04C 19.5401 9.34882 19.515 8.59804 19.514 7.78223L 19.264 7.78254ZM 19.3367 10.0566C 19.3697 10.552 19.7823 10.9189 20.2556 10.9189L 20.2556 10.6689C 19.911 10.6689 19.6102 10.4011 19.5862 10.04L 19.3367 10.0566ZM 20.2556 10.9189C 20.3254 10.9189 20.3963 10.911 20.4673 10.8944L 20.4103 10.6509C 20.3581 10.6631 20.3063 10.6689 20.2556 10.6689L 20.2556 10.9189ZM 20.4673 10.8943L 21.5605 10.6384L 21.5035 10.395L 20.4103 10.6509L 20.4673 10.8943ZM 21.5605 10.6384C 21.5975 10.6297 21.6346 10.6256 21.6713 10.6256L 21.6713 10.3756C 21.6157 10.3756 21.5594 10.3818 21.5034 10.395L 21.5605 10.6384ZM 21.6713 10.6256C 21.894 10.6256 22.096 10.7778 22.1449 10.9977L 22.389 10.9435C 22.3131 10.6022 22.0039 10.3756 21.6713 10.3756L 21.6713 10.6256ZM 22.1449 10.9977C 22.2193 11.3324 22.0315 11.6708 21.7065 11.7846L 21.7892 12.0205C 22.2336 11.8649 22.4908 11.4019 22.389 10.9435L 22.1449 10.9977ZM 21.7011 11.7866L 20.0418 12.4556L 20.1352 12.6875L 21.7946 12.0185L 21.7011 11.7866ZM 20.0418 12.4556C 19.5638 12.6483 19.3075 13.1677 19.4419 13.6641L 19.6832 13.5988C 19.5817 13.224 19.7753 12.8326 20.1352 12.6875L 20.0418 12.4556ZM 19.4419 13.6641C 20.1171 16.1571 21.4033 17.2859 22.5292 17.868C 23.0882 18.157 23.6054 18.3099 23.9721 18.4279C 24.1591 18.4881 24.2978 18.5366 24.3899 18.5868C 24.486 18.6393 24.4872 18.6693 24.4872 18.6761L 24.7372 18.6761C 24.7372 18.5228 24.6221 18.4287 24.5097 18.3674C 24.3932 18.3038 24.2311 18.2487 24.0487 18.19C 23.6766 18.0702 23.1809 17.9235 22.644 17.6459C 21.5779 17.0947 20.3393 16.0213 19.6832 13.5988L 19.4419 13.6641ZM 24.4872 18.6761C 24.4872 18.7365 24.462 18.7968 24.401 18.8605C 24.3384 18.9259 24.2428 18.9894 24.1163 19.05C 23.8634 19.1711 23.5171 19.2661 23.1524 19.3461C 22.7874 19.4261 22.4201 19.4878 22.1164 19.5476C 21.9667 19.5771 21.8321 19.6063 21.7259 19.6367C 21.6728 19.6519 21.624 19.6682 21.5826 19.6861C 21.5436 19.703 21.5005 19.7258 21.4679 19.7584L 21.6446 19.9352C 21.6437 19.9362 21.6521 19.9284 21.682 19.9155C 21.7095 19.9036 21.7469 19.8907 21.7947 19.877C 21.8902 19.8497 22.0161 19.8222 22.1647 19.7929C 22.4578 19.7352 22.8387 19.6708 23.2059 19.5903C 23.5736 19.5097 23.9438 19.4098 24.2243 19.2755C 24.3645 19.2083 24.4899 19.1291 24.5815 19.0334C 24.6748 18.936 24.7372 18.8167 24.7372 18.6761L 24.4872 18.6761ZM 21.4679 19.7584C 21.4161 19.8102 21.3844 19.8785 21.363 19.9453C 21.3411 20.0134 21.3264 20.091 21.3151 20.1711C 21.2935 20.3248 21.2804 20.5256 21.2609 20.6975C 21.2402 20.8795 21.2109 21.0493 21.1566 21.1855C 21.1028 21.3204 21.0304 21.408 20.9311 21.4497L 21.0279 21.6802C 21.2116 21.603 21.321 21.448 21.3888 21.2781C 21.4561 21.1094 21.4882 20.9119 21.5093 20.7257C 21.5316 20.5294 21.5408 20.361 21.5627 20.206C 21.5731 20.1317 21.5855 20.0701 21.601 20.0217C 21.617 19.972 21.6332 19.9467 21.6446 19.9352L 21.4679 19.7584ZM 20.9311 21.4497C 20.849 21.4841 20.7191 21.5003 20.5366 21.5003L 20.5366 21.7503C 20.7236 21.7503 20.8967 21.7353 21.0279 21.6801L 20.9311 21.4497ZM 20.5366 21.5003C 20.3293 21.5003 20.078 21.48 19.7921 21.4591C 19.5086 21.4383 19.1951 21.4172 18.8726 21.4172L 18.8726 21.6672C 19.1852 21.6672 19.4907 21.6877 19.7738 21.7084C 20.0546 21.729 20.3177 21.7503 20.5366 21.7503L 20.5366 21.5003ZM 18.8726 21.4172C 18.3141 21.4172 17.7176 21.4802 17.1878 21.7246L 17.2925 21.9516C 17.7746 21.7292 18.329 21.6672 18.8726 21.6672L 18.8726 21.4172ZM 17.1878 21.7246C 16.8464 21.8822 16.5094 22.0732 16.174 22.2689C 15.8371 22.4655 15.5027 22.6661 15.1598 22.8478C 14.4745 23.2109 13.7717 23.489 13 23.489L 13 23.739C 13.8324 23.739 14.5786 23.4387 15.2769 23.0687C 15.6257 22.8839 15.9667 22.6793 16.3 22.4848C 16.6348 22.2895 16.9629 22.1037 17.2925 21.9516L 17.1878 21.7246ZM 13 23.489C 12.2284 23.489 11.5255 23.2109 10.8403 22.8478C 10.4973 22.6661 10.163 22.4655 9.82604 22.2689C 9.49062 22.0732 9.15365 21.8822 8.81224 21.7246L 8.70751 21.9516C 9.03717 22.1037 9.36526 22.2895 9.70005 22.4848C 10.0333 22.6793 10.3744 22.8839 10.7232 23.0687C 11.4215 23.4387 12.1676 23.739 13 23.739L 13 23.489ZM 8.81225 21.7246C 8.28233 21.4801 7.68603 21.4172 7.1275 21.4172L 7.1275 21.6672C 7.67107 21.6672 8.22538 21.7292 8.70751 21.9516L 8.81225 21.7246ZM 7.1275 21.4172C 6.80495 21.4172 6.49147 21.4383 6.20796 21.4591C 5.92208 21.48 5.67074 21.5003 5.46349 21.5003L 5.46349 21.7503C 5.68232 21.7503 5.94541 21.729 6.22623 21.7084C 6.50942 21.6877 6.81491 21.6672 7.1275 21.6672L 7.1275 21.4172ZM 5.46349 21.5003C 5.28108 21.5003 5.15097 21.4841 5.06891 21.4496L 4.97215 21.6802C 5.10327 21.7352 5.27649 21.7503 5.46349 21.7503L 5.46349 21.5003ZM 5.06894 21.4497C 4.9697 21.408 4.89727 21.3204 4.84345 21.1855C 4.78912 21.0493 4.75982 20.8795 4.73915 20.6975C 4.71963 20.5256 4.70659 20.3248 4.68494 20.1711C 4.67366 20.091 4.65894 20.0134 4.63706 19.9453C 4.61562 19.8785 4.58396 19.8102 4.53212 19.7584L 4.35544 19.9352C 4.3669 19.9467 4.38306 19.972 4.39905 20.0217C 4.4146 20.0701 4.42692 20.1317 4.43738 20.206C 4.45921 20.361 4.46845 20.5294 4.49075 20.7257C 4.51189 20.9119 4.54395 21.1094 4.61124 21.2781C 4.67903 21.448 4.78848 21.603 4.97212 21.6802L 5.06894 21.4497ZM 4.53212 19.7584C 4.49951 19.7258 4.45643 19.703 4.41744 19.6861C 4.37609 19.6682 4.3273 19.6519 4.27419 19.6367C 4.16793 19.6063 4.03331 19.5771 3.88364 19.5476C 3.57997 19.4878 3.2127 19.4261 2.84765 19.346C 2.48299 19.2661 2.13667 19.171 1.88374 19.0499C 1.75729 18.9894 1.66168 18.9258 1.5991 18.8604C 1.5381 18.7967 1.51288 18.7365 1.51288 18.6761L 1.26288 18.6761C 1.26288 18.8167 1.32525 18.9359 1.41852 19.0333C 1.51019 19.1291 1.63553 19.2083 1.77578 19.2754C 2.05627 19.4097 2.42645 19.5096 2.79411 19.5902C 3.16139 19.6708 3.54226 19.7352 3.83531 19.7929C 3.984 19.8222 4.10988 19.8497 4.20536 19.877C 4.25312 19.8907 4.29051 19.9036 4.31803 19.9155C 4.34791 19.9284 4.3564 19.9362 4.35544 19.9352L 4.53212 19.7584ZM 1.51288 18.6761C 1.51288 18.6692 1.51403 18.6392 1.61015 18.5867C 1.70223 18.5365 1.841 18.4881 2.02799 18.4279C 2.39471 18.3098 2.91183 18.1569 3.47088 17.8679C 4.59673 17.2858 5.883 16.157 6.55816 13.6641L 6.31685 13.5987C 5.66075 16.0212 4.42221 17.0946 3.35606 17.6458C 2.81911 17.9234 2.32345 18.0701 1.95137 18.1899C 1.76896 18.2486 1.60684 18.3037 1.49037 18.3673C 1.37793 18.4287 1.26288 18.5228 1.26288 18.6761L 1.51288 18.6761ZM 6.55816 13.6641C 6.6926 13.1677 6.43621 12.6483 5.95824 12.4556L 5.86475 12.6875C 6.22473 12.8326 6.41835 13.224 6.31685 13.5987L 6.55816 13.6641ZM 5.95824 12.4556L 4.29888 11.7866L 4.2054 12.0184L 5.86475 12.6875L 5.95824 12.4556ZM 4.29345 11.7845C 3.96842 11.6707 3.78069 11.3324 3.85509 10.9977L 3.61105 10.9435C 3.50914 11.4019 3.76631 11.8648 4.21083 12.0205L 4.29345 11.7845ZM 3.8551 10.9977C 3.90396 10.7777 4.106 10.6255 4.32867 10.6255L 4.32872 10.3755C 3.99613 10.3754 3.68687 10.6021 3.61105 10.9435L 3.8551 10.9977ZM 4.3287 10.6255C 4.36534 10.6255 4.40249 10.6297 4.43947 10.6383L 4.49661 10.395C 4.44055 10.3818 4.38421 10.3755 4.3287 10.3755L 4.3287 10.6255ZM 4.43955 10.6384L 5.5327 10.8943L 5.58969 10.6509L 4.49654 10.3949L 4.43955 10.6384ZM 5.53272 10.8943C 5.60371 10.9109 5.67461 10.9189 5.74439 10.9189L 5.74439 10.6689C 5.69371 10.6689 5.64192 10.6631 5.58967 10.6509L 5.53272 10.8943ZM 5.74439 10.9189C 6.21767 10.9189 6.63026 10.5519 6.66327 10.0565L 6.41382 10.0399C 6.38976 10.401 6.08897 10.6689 5.74439 10.6689L 5.74439 10.9189ZM 6.66327 10.0565C 6.70971 9.35947 6.7351 8.60322 6.7361 7.78248L 6.4861 7.78218C 6.4851 8.59798 6.45987 9.34876 6.41382 10.0399L 6.66327 10.0565ZM 6.7361 7.78248C 6.74024 4.35734 9.56847 1.51234 12.9885 1.51115L 12.9884 1.26115C 9.42933 1.26239 6.4904 4.22025 6.4861 7.78218L 6.7361 7.78248ZM 12.9889 -0.125L 12.9884 -0.125L 12.9884 0.125L 12.9889 0.125L 12.9889 -0.125ZM 12.9884 -0.125L 12.9879 -0.125L 12.9879 0.125L 12.9884 0.125L 12.9884 -0.125ZM 12.9879 -0.125C 11.9293 -0.124662 10.8979 0.0878351 9.92296 0.506468L 10.0216 0.736186C 10.9655 0.330892 11.9634 0.125327 12.988 0.125L 12.9879 -0.125ZM 9.92296 0.506465C 8.98722 0.908203 8.14508 1.48107 7.42022 2.2088L 7.59735 2.38523C 8.29989 1.6799 9.11544 1.12522 10.0216 0.736188L 9.92296 0.506465ZM 7.42022 2.2088C 6.69632 2.93557 6.12639 3.77959 5.72662 4.71716L 5.95659 4.81521C 6.3438 3.9071 6.89572 3.08963 7.59735 2.38523L 7.42022 2.2088ZM 5.72662 4.71716C 5.3109 5.69218 5.0994 6.72301 5.09811 7.78051L 5.34811 7.78082C 5.34936 6.75699 5.55401 5.7594 5.95659 4.81521L 5.72662 4.71716ZM 5.09811 7.78052C 5.0975 8.28983 5.08693 8.78394 5.06658 9.25692L 5.31635 9.26766C 5.33686 8.79097 5.34749 8.29337 5.34811 7.78082L 5.09811 7.78052ZM 5.21997 9.14059L 4.81326 9.04533L 4.75625 9.28874L 5.16296 9.384L 5.21997 9.14059ZM 4.81325 9.04533C 4.65469 9.00821 4.4917 8.98937 4.32885 8.98931L 4.32876 9.23931C 4.47247 9.23936 4.61637 9.256 4.75627 9.28875L 4.81325 9.04533ZM 4.32882 8.98931C 3.85845 8.98925 3.39489 9.14791 3.0228 9.43622L 3.17593 9.63384C 3.50423 9.37945 3.91392 9.23926 4.32879 9.23931L 4.32882 8.98931ZM 3.0228 9.43622C 2.63454 9.73709 2.36216 10.1655 2.25603 10.6431L 2.50008 10.6973C 2.59348 10.277 2.8335 9.89919 3.17593 9.63384L 3.0228 9.43622ZM 2.25603 10.6431C 2.00499 11.7729 2.6296 12.9132 3.71179 13.3142L 3.79866 13.0798C 2.83322 12.7221 2.27624 11.7048 2.50008 10.6973L 2.25603 10.6431ZM 3.70849 13.3129L 4.92633 13.8039L 5.0198 13.5721L 3.80196 13.0811L 3.70849 13.3129ZM 4.85423 13.6492C 4.4578 14.8645 3.89771 15.5791 3.3218 16.0294C 2.74362 16.4814 2.14135 16.6742 1.64039 16.8338L 1.71629 17.072C 2.21666 16.9126 2.85855 16.7089 3.47579 16.2263C 4.09531 15.7419 4.68192 14.9836 5.0919 13.7267L 4.85423 13.6492ZM 1.64039 16.8338C 1.37649 16.9179 1.13765 16.9938 0.90913 17.107L 1.02014 17.331C 1.22864 17.2277 1.4488 17.1573 1.71629 17.072L 1.64039 16.8338ZM 0.909117 17.107C -0.0209039 17.568 -0.125 18.3565 -0.125 18.6761L 0.125 18.6761C 0.125 18.407 0.208879 17.7332 1.02015 17.331L 0.909117 17.107ZM -0.125 18.6761C -0.125 19.2823 0.16327 19.8322 0.676444 20.2239L 0.828133 20.0252C 0.371009 19.6762 0.125 19.1972 0.125 18.6761L -0.125 18.6761ZM 0.676435 20.2239C 0.931291 20.4185 1.24336 20.5762 1.62637 20.7079L 1.70766 20.4715C 1.34277 20.346 1.05638 20.1994 0.828142 20.0252L 0.676435 20.2239ZM 1.62637 20.7079C 2.14624 20.8866 2.74624 20.9993 3.22494 21.0882L 3.27058 20.8424C 2.78886 20.753 2.20716 20.6432 1.70766 20.4715L 1.62637 20.7079ZM 3.12381 20.9815C 3.14753 21.1632 3.18267 21.3611 3.24255 21.562L 3.48213 21.4906C 3.42733 21.3067 3.39439 21.1229 3.37171 20.9491L 3.12381 20.9815ZM 3.24255 21.562C 3.49328 22.4034 4.0268 22.7867 4.43414 22.9578L 4.53093 22.7273C 4.17903 22.5795 3.70761 22.2473 3.48214 21.4906L 3.24255 21.562ZM 4.43412 22.9578C 4.81786 23.119 5.21044 23.1363 5.46349 23.1363L 5.46349 22.8863C 5.21934 22.8863 4.86757 22.8687 4.53094 22.7273L 4.43412 22.9578ZM 5.46349 23.1363C 5.71212 23.1363 5.97394 23.1169 6.24504 23.0968L 6.2266 22.8475C 5.95342 22.8677 5.70117 22.8863 5.46349 22.8863L 5.46349 23.1363ZM 6.24505 23.0968C 6.53776 23.0752 6.83505 23.0533 7.1275 23.0533L 7.1275 22.8033C 6.82427 22.8033 6.51778 22.8259 6.22658 22.8475L 6.24505 23.0968ZM 7.1275 23.0533C 7.58205 23.0533 7.90443 23.1079 8.1255 23.2099L 8.23021 22.9829C 7.96086 22.8586 7.59607 22.8033 7.1275 22.8033L 7.1275 23.0533ZM 8.12548 23.2099C 8.45551 23.3622 8.80699 23.5682 9.18645 23.7908L 9.31293 23.5751C 8.93627 23.3542 8.5736 23.1413 8.23023 22.9829L 8.12548 23.2099ZM 9.18645 23.7908C 10.2358 24.4063 11.4565 25.125 13 25.125L 13 24.875C 11.5335 24.875 10.3684 24.1942 9.31293 23.5751L 9.18645 23.7908ZM 13 25.125C 14.5436 25.125 15.7642 24.4063 16.8136 23.7908L 16.6871 23.5751C 15.6315 24.1942 14.4665 24.875 13 24.875L 13 25.125ZM 16.8136 23.7908C 17.193 23.5682 17.5445 23.3622 17.8746 23.2099L 17.7698 22.9829C 17.4264 23.1413 17.0637 23.3541 16.6871 23.5751L 16.8136 23.7908ZM 17.8746 23.2099C 18.0956 23.1079 18.418 23.0533 18.8726 23.0533L 18.8726 22.8033C 18.404 22.8033 18.0392 22.8586 17.7698 22.9829L 17.8746 23.2099ZM 18.8726 23.0533C 19.165 23.0533 19.4623 23.0752 19.755 23.0968L 19.7734 22.8475C 19.4823 22.826 19.1758 22.8033 18.8726 22.8033L 18.8726 23.0533ZM 19.755 23.0968C 20.0261 23.1169 20.2879 23.1363 20.5365 23.1363L 20.5365 22.8863C 20.2988 22.8863 20.0466 22.8677 19.7734 22.8475L 19.755 23.0968ZM 20.5365 23.1363C 20.7896 23.1363 21.1821 23.119 21.5659 22.9578L 21.4691 22.7273C 21.1324 22.8687 20.7807 22.8863 20.5365 22.8863L 20.5365 23.1363ZM 21.5659 22.9578C 21.9732 22.7867 22.5067 22.4034 22.7575 21.562L 22.5179 21.4906C 22.2924 22.2473 21.821 22.5795 21.4691 22.7273L 21.5659 22.9578ZM 22.7575 21.562C 22.8173 21.3611 22.8525 21.1632 22.8762 20.9815L 22.6283 20.9492C 22.6057 21.1229 22.5727 21.3067 22.5179 21.4906L 22.7575 21.562ZM 22.7751 21.0882C 23.2537 20.9993 23.8538 20.8866 24.3736 20.7079L 24.2923 20.4715C 23.7929 20.6432 23.2112 20.7529 22.7294 20.8424L 22.7751 21.0882ZM 24.3736 20.7079C 24.7567 20.5762 25.0687 20.4185 25.3236 20.2239L 25.1719 20.0252C 24.9436 20.1994 24.6573 20.346 24.2923 20.4715L 24.3736 20.7079ZM 25.3236 20.2239C 25.8367 19.8322 26.125 19.2823 26.125 18.6761L 25.875 18.6761C 25.875 19.1972 25.6289 19.6762 25.1719 20.0252L 25.3236 20.2239ZM 26.125 18.6761C 26.125 18.3565 26.0209 17.568 25.0908 17.1071L 24.9797 17.3311C 25.7911 17.7332 25.875 18.407 25.875 18.6761L 26.125 18.6761ZM 25.0908 17.1071C 24.8622 16.9938 24.6234 16.918 24.3595 16.8339L 24.2836 17.0721C 24.5511 17.1573 24.7712 17.2277 24.9798 17.3311L 25.0908 17.1071ZM 24.3595 16.8339C 23.8585 16.6743 23.2563 16.4815 22.6781 16.0294C 22.1022 15.5791 21.5421 14.8646 21.1457 13.6493L 20.908 13.7268C 21.318 14.9836 21.9046 15.742 22.5241 16.2264C 23.1413 16.709 23.7832 16.9126 24.2836 17.0721L 24.3595 16.8339ZM 21.0736 13.804L 22.2913 13.313L 22.1979 13.0811L 20.9801 13.5721L 21.0736 13.804ZM 22.288 13.3143C 23.3702 12.9133 23.9949 11.7729 23.7439 10.6431L 23.4998 10.6973C 23.7237 11.7048 23.1666 12.7221 22.2012 13.0799L 22.288 13.3143ZM 23.7439 10.6431C 23.6377 10.1655 23.3654 9.73709 22.9771 9.43622L 22.824 9.63384C 23.1664 9.89919 23.4064 10.277 23.4998 10.6973L 23.7439 10.6431ZM 22.9771 9.43621C 22.605 9.14797 22.1416 8.98931 21.6713 8.98931L 21.6713 9.23931C 22.0861 9.23931 22.4957 9.3795 22.824 9.63385L 22.9771 9.43621ZM 21.6713 8.98931C 21.5084 8.98931 21.3454 9.00816 21.1868 9.04527L 21.2437 9.2887C 21.3837 9.25594 21.5276 9.23931 21.6713 9.23931L 21.6713 8.98931ZM 21.1867 9.04527L 20.78 9.14053L 20.837 9.38394L 21.2437 9.28869L 21.1867 9.04527ZM 20.9334 9.25686C 20.913 8.78394 20.9024 8.28983 20.9018 7.78046L 20.6518 7.78076C 20.6525 8.29337 20.6631 8.79097 20.6836 9.26761L 20.9334 9.25686ZM 20.9018 7.78046C 20.9005 6.72199 20.6873 5.69007 20.2683 4.71372L 20.0385 4.81233C 20.4443 5.75774 20.6506 6.75624 20.6518 7.78076L 20.9018 7.78046ZM 20.2683 4.71372C 19.8661 3.77658 19.293 2.9328 18.5655 2.20603L 18.3888 2.3829C 19.0941 3.0874 19.649 3.90467 20.0385 4.81232L 20.2683 4.71372ZM 18.5655 2.20603C 17.8381 1.47931 16.9936 0.907111 16.056 0.505748L 15.9577 0.735575C 16.8657 1.12432 17.6837 1.67845 18.3888 2.3829L 18.5655 2.20603ZM 16.056 0.505747C 15.0793 0.0876623 14.0472 -0.124606 12.989 -0.125L 12.9889 0.125C 14.0132 0.125382 15.0119 0.330732 15.9577 0.735576L 16.056 0.505747Z"/>
<path id="path3_fill" d="M 18.1008 0L 6.89895 0C 3.09487 0 0 3.09502 0 6.8991L 0 18.1009C 0 21.9051 3.09487 25 6.89895 25L 18.1008 25C 21.9051 25 25 21.905 25 18.1009L 25 6.8991C 25.0001 3.09502 21.9051 0 18.1008 0ZM 22.782 18.1009C 22.782 20.6821 20.6821 22.7819 18.1009 22.7819L 6.89895 22.7819C 4.31794 22.782 2.21812 20.6821 2.21812 18.1009L 2.21812 6.8991C 2.21812 4.31809 4.31794 2.21812 6.89895 2.21812L 18.1008 2.21812C 20.6819 2.21812 22.7819 4.31809 22.7819 6.8991L 22.7819 18.1009L 22.782 18.1009Z"/>
<path id="path4_fill" d="M 6.44187 1.80511e-07C 2.88977 1.80511e-07 -2.21126e-07 2.88977 -2.21126e-07 6.44187C -2.21126e-07 9.99382 2.88977 12.8834 6.44187 12.8834C 9.99397 12.8834 12.8837 9.99382 12.8837 6.44187C 12.8837 2.88977 9.99397 1.80511e-07 6.44187 1.80511e-07ZM 6.44187 10.6652C 4.11299 10.6652 2.21812 8.7706 2.21812 6.44172C 2.21812 4.11269 4.11284 2.21797 6.44187 2.21797C 8.7709 2.21797 10.6656 4.11269 10.6656 6.44172C 10.6656 8.7706 8.77075 10.6652 6.44187 10.6652Z"/>
<path id="path5_fill" d="M 1.62662 -8.123e-08C 1.19927 -8.123e-08 0.779448 0.173014 0.477636 0.476157C 0.174344 0.777821 -3.51997e-07 1.19779 -3.51997e-07 1.62662C -3.51997e-07 2.05413 0.174492 2.47394 0.477636 2.77709C 0.7793 3.07875 1.19927 3.25324 1.62662 3.25324C 2.05546 3.25324 2.47395 3.07875 2.77709 2.77709C 3.08023 2.47394 3.25325 2.05398 3.25325 1.62662C 3.25325 1.19779 3.08023 0.777821 2.77709 0.476157C 2.47542 0.173014 2.05546 -8.123e-08 1.62662 -8.123e-08Z"/>
<path id="path6_fill" d="M 0 0L 344 0L 344 54L 0 54L 0 0Z"/>
<path id="path7_fill" d="M 0.158203 5.39648L 3.04102 5.39648L 5.73926 9.79102L 6.16992 10.6348L 6.62695 9.79102L 9.3252 5.39648L 12.208 5.39648L 7.43555 13.3242L 7.43555 18L 4.93066 18L 4.93066 13.3242L 0.158203 5.39648ZM 12.1289 11.6807C 12.1289 10.749 12.29 9.88184 12.6123 9.0791C 12.9346 8.27637 13.3799 7.58789 13.9482 7.01367C 14.5225 6.43945 15.2139 5.98828 16.0225 5.66016C 16.8369 5.33203 17.7158 5.16797 18.6592 5.16797C 19.9131 5.16797 21.0352 5.44922 22.0254 6.01172C 23.0215 6.56836 23.7949 7.3418 24.3457 8.33203C 24.9023 9.32227 25.1807 10.4385 25.1807 11.6807C 25.1807 12.9287 24.9023 14.0508 24.3457 15.0469C 23.7949 16.043 23.0215 16.8252 22.0254 17.3936C 21.0352 17.9561 19.9131 18.2373 18.6592 18.2373C 17.3994 18.2373 16.2715 17.9561 15.2754 17.3936C 14.2793 16.8252 13.5059 16.043 12.9551 15.0469C 12.4043 14.0508 12.1289 12.9287 12.1289 11.6807ZM 14.7041 11.6807C 14.7041 12.9229 15.0674 13.9424 15.7939 14.7393C 16.5205 15.5303 17.4756 15.9258 18.6592 15.9258C 19.8369 15.9258 20.7891 15.5273 21.5156 14.7305C 22.2422 13.9336 22.6055 12.917 22.6055 11.6807C 22.6055 10.4561 22.2422 9.44824 21.5156 8.65723C 20.7891 7.86621 19.8369 7.4707 18.6592 7.4707C 17.4756 7.4707 16.5205 7.86621 15.7939 8.65723C 15.0674 9.44824 14.7041 10.4561 14.7041 11.6807ZM 26.9561 12.9199L 26.9561 5.39648L 29.4434 5.39648L 29.4434 12.9199C 29.4434 13.8867 29.6602 14.6309 30.0938 15.1523C 30.5332 15.668 31.1982 15.9258 32.0889 15.9258C 32.9678 15.9258 33.624 15.668 34.0576 15.1523C 34.4971 14.6367 34.7168 13.8926 34.7168 12.9199L 34.7168 5.39648L 37.1953 5.39648L 37.1953 12.9199C 37.1953 14.6074 36.75 15.917 35.8594 16.8486C 34.9746 17.7744 33.7178 18.2373 32.0889 18.2373C 30.4541 18.2373 29.1885 17.7744 28.292 16.8486C 27.4014 15.917 26.9561 14.6074 26.9561 12.9199ZM 39.5947 18L 39.5947 5.39648L 43.4883 5.39648C 44.8301 5.39648 45.9023 5.76562 46.7051 6.50391C 47.5137 7.24219 47.918 8.21191 47.918 9.41309C 47.918 10.1924 47.7246 10.8779 47.3379 11.4697C 46.957 12.0615 46.418 12.5156 45.7207 12.832L 48.4541 18L 45.624 18L 43.1807 13.2803L 42.0645 13.2803L 42.0645 18L 39.5947 18ZM 42.0645 11.0918L 43.4883 11.0918C 44.0742 11.0918 44.5342 10.9482 44.8682 10.6611C 45.208 10.374 45.3779 9.95801 45.3779 9.41309C 45.3779 8.85644 45.208 8.43457 44.8682 8.14746C 44.5342 7.85449 44.0742 7.70801 43.4883 7.70801L 42.0645 7.70801L 42.0645 11.0918ZM 53.5869 18L 53.5869 5.39648L 60.8467 5.39648L 60.8467 7.70801L 56.0566 7.70801L 56.0566 10.3711L 60.1963 10.3711L 60.1963 12.6914L 56.0566 12.6914L 56.0566 15.6973L 60.8467 15.6973L 60.8467 18L 53.5869 18ZM 61.9189 18L 66.7969 5.39648L 69.5127 5.39648L 74.3906 18L 71.71 18L 70.6641 15.2139L 65.6455 15.2139L 64.5996 18L 61.9189 18ZM 66.4189 13.0518L 69.873 13.0518L 68.3789 9.10547L 68.1416 8.40234L 67.9131 9.10547L 66.4189 13.0518ZM 75.9287 18L 75.9287 5.39648L 79.8223 5.39648C 81.1641 5.39648 82.2363 5.76562 83.0391 6.50391C 83.8477 7.24219 84.252 8.21191 84.252 9.41309C 84.252 10.1924 84.0586 10.8779 83.6719 11.4697C 83.291 12.0615 82.752 12.5156 82.0547 12.832L 84.7881 18L 81.958 18L 79.5146 13.2803L 78.3984 13.2803L 78.3984 18L 75.9287 18ZM 78.3984 11.0918L 79.8223 11.0918C 80.4082 11.0918 80.8682 10.9482 81.2021 10.6611C 81.542 10.374 81.7119 9.95801 81.7119 9.41309C 81.7119 8.85644 81.542 8.43457 81.2021 8.14746C 80.8682 7.85449 80.4082 7.70801 79.8223 7.70801L 78.3984 7.70801L 78.3984 11.0918ZM 86.3701 18L 86.3701 5.39648L 88.8223 5.39648L 93.9902 13.0342L 94.5088 13.8955L 94.5088 5.39648L 96.9961 5.39648L 96.9961 18L 94.5088 18L 89.3232 10.3887L 88.8398 9.55371L 88.8398 18L 86.3701 18ZM 99.5361 18L 99.5361 5.39648L 102.006 5.39648L 102.006 18L 99.5361 18ZM 104.563 18L 104.563 5.39648L 107.016 5.39648L 112.184 13.0342L 112.702 13.8955L 112.702 5.39648L 115.189 5.39648L 115.189 18L 112.702 18L 107.517 10.3887L 107.033 9.55371L 107.033 18L 104.563 18ZM 117.123 11.6807C 117.123 10.4385 117.39 9.32227 117.923 8.33203C 118.456 7.3418 119.203 6.56836 120.164 6.01172C 121.125 5.44922 122.212 5.16797 123.425 5.16797C 124.972 5.16797 126.234 5.55469 127.213 6.32812C 128.191 7.0957 128.854 8.1416 129.199 9.46582L 126.483 9.46582C 126.003 8.13574 124.963 7.4707 123.363 7.4707C 122.279 7.4707 121.397 7.86621 120.718 8.65723C 120.038 9.44824 119.698 10.4561 119.698 11.6807C 119.698 12.9229 120.044 13.9424 120.735 14.7393C 121.433 15.5303 122.347 15.9258 123.478 15.9258C 124.397 15.9258 125.139 15.7148 125.701 15.293C 126.27 14.8711 126.583 14.2734 126.642 13.5L 123.636 13.5L 123.636 11.1973L 129.287 11.1973L 129.287 12.2959C 129.287 13.5322 129.041 14.6016 128.549 15.5039C 128.062 16.4063 127.383 17.0889 126.51 17.5518C 125.643 18.0088 124.632 18.2373 123.478 18.2373C 122.247 18.2373 121.146 17.9561 120.173 17.3936C 119.206 16.8252 118.456 16.043 117.923 15.0469C 117.39 14.0508 117.123 12.9287 117.123 11.6807ZM 130.852 14.1504L 133.348 14.1504C 133.377 14.7715 133.559 15.2461 133.893 15.5742C 134.227 15.8965 134.707 16.0576 135.334 16.0576C 135.85 16.0576 136.254 15.9258 136.547 15.6621C 136.84 15.3984 136.986 15.0557 136.986 14.6338C 136.986 14.2178 136.813 13.8721 136.468 13.5967C 136.122 13.3154 135.551 13.043 134.754 12.7793C 133.535 12.3867 132.627 11.8975 132.029 11.3115C 131.432 10.7256 131.133 9.93164 131.133 8.92969C 131.133 7.81055 131.49 6.90527 132.205 6.21387C 132.92 5.5166 133.89 5.16797 135.114 5.16797C 136.315 5.16797 137.265 5.48731 137.962 6.12598C 138.665 6.76465 139.043 7.69922 139.096 8.92969L 136.591 8.92969C 136.573 8.4375 136.424 8.05371 136.143 7.77832C 135.861 7.50293 135.501 7.36523 135.062 7.36523C 134.616 7.36523 134.268 7.48242 134.016 7.7168C 133.764 7.95117 133.638 8.28223 133.638 8.70996C 133.638 8.94434 133.676 9.14648 133.752 9.31641C 133.834 9.48047 133.978 9.63281 134.183 9.77344C 134.394 9.91406 134.613 10.0342 134.842 10.1338C 135.076 10.2334 135.413 10.3594 135.853 10.5117C 137.177 10.957 138.114 11.4814 138.665 12.085C 139.216 12.6826 139.491 13.459 139.491 14.4141C 139.491 15.5977 139.096 16.5322 138.305 17.2178C 137.52 17.8975 136.518 18.2373 135.299 18.2373C 133.898 18.2373 132.814 17.8652 132.047 17.1211C 131.285 16.377 130.887 15.3867 130.852 14.1504Z"/>
<path id="path8_fill" d="M 0.755859 14.1504L 3.26074 14.1504C 3.29004 14.7715 3.46875 15.2461 3.79688 15.5742C 4.13086 15.8965 4.61133 16.0576 5.23828 16.0576C 5.75391 16.0576 6.1582 15.9258 6.45117 15.6621C 6.74414 15.3984 6.89062 15.0557 6.89062 14.6338C 6.89062 14.2178 6.71777 13.8721 6.37207 13.5967C 6.02637 13.3154 5.45508 13.043 4.6582 12.7793C 3.43945 12.3867 2.53125 11.8975 1.93359 11.3115C 1.3418 10.7256 1.0459 9.93164 1.0459 8.92969C 1.0459 7.95117 1.33008 7.12793 1.89844 6.45996C 2.4668 5.78613 3.24902 5.37305 4.24512 5.2207L 4.24512 3.4541L 5.95898 3.4541L 5.95898 5.23828C 6.88477 5.39648 7.61133 5.78906 8.13867 6.41602C 8.67188 7.03711 8.95898 7.875 9 8.92969L 6.49512 8.92969C 6.47754 8.4375 6.32812 8.05371 6.04688 7.77832C 5.76562 7.50293 5.40527 7.36523 4.96582 7.36523C 4.52051 7.36523 4.17187 7.48242 3.91992 7.7168C 3.66797 7.95117 3.54199 8.28223 3.54199 8.70996C 3.54199 8.94434 3.58008 9.14648 3.65625 9.31641C 3.73828 9.48047 3.88184 9.63281 4.08691 9.77344C 4.29785 9.91406 4.51758 10.0342 4.74609 10.1338C 4.98047 10.2334 5.31738 10.3594 5.75684 10.5117C 7.08105 10.957 8.01855 11.4814 8.56934 12.085C 9.12012 12.6826 9.39551 13.459 9.39551 14.4141C 9.39551 15.4746 9.0791 16.333 8.44629 16.9893C 7.81934 17.6396 6.99023 18.0352 5.95898 18.1758L 5.95898 19.9424L 4.24512 19.9424L 4.24512 18.1582C 3.1377 17.9883 2.28516 17.5518 1.6875 16.8486C 1.0957 16.1396 0.785156 15.2402 0.755859 14.1504ZM 10.793 7.72559L 10.793 5.39648L 18.6064 5.39648L 18.6064 7.40039L 13.9922 18L 11.3115 18L 15.7764 7.72559L 10.793 7.72559ZM 19.8633 16.7783C 19.8633 16.3975 19.998 16.0752 20.2676 15.8115C 20.5371 15.542 20.8682 15.4072 21.2607 15.4072C 21.665 15.4072 21.999 15.5449 22.2627 15.8203C 22.5322 16.0957 22.667 16.4678 22.667 16.9365C 22.667 17.5107 22.5264 18.1084 22.2451 18.7295C 21.9639 19.3506 21.6064 19.9043 21.1729 20.3906L 20.5049 20.1445C 20.7979 19.5352 20.9795 18.8496 21.0498 18.0879C 20.7041 18.0527 20.4199 17.915 20.1973 17.6748C 19.9746 17.4346 19.8633 17.1357 19.8633 16.7783ZM 23.9238 11.6807C 23.9238 9.64746 24.3105 8.05371 25.084 6.89941C 25.8633 5.74512 26.9648 5.16797 28.3887 5.16797C 29.8184 5.16797 30.9229 5.74805 31.7021 6.9082C 32.4814 8.0625 32.8711 9.65332 32.8711 11.6807C 32.8711 13.7197 32.4785 15.3223 31.6934 16.4883C 30.9141 17.6543 29.8125 18.2373 28.3887 18.2373C 26.9648 18.2373 25.8633 17.6543 25.084 16.4883C 24.3105 15.3223 23.9238 13.7197 23.9238 11.6807ZM 26.4199 11.6807C 26.4199 13.0342 26.584 14.0801 26.9121 14.8184C 27.2461 15.5566 27.7383 15.9258 28.3887 15.9258C 29.0391 15.9258 29.5283 15.5566 29.8564 14.8184C 30.1846 14.0801 30.3486 13.0342 30.3486 11.6807C 30.3486 10.333 30.1846 9.2959 29.8564 8.56934C 29.5283 7.83691 29.0391 7.4707 28.3887 7.4707C 27.7383 7.4707 27.2461 7.83691 26.9121 8.56934C 26.584 9.30176 26.4199 10.3389 26.4199 11.6807ZM 34.2246 11.6807C 34.2246 9.64746 34.6113 8.05371 35.3848 6.89941C 36.1641 5.74512 37.2656 5.16797 38.6895 5.16797C 40.1191 5.16797 41.2236 5.74805 42.0029 6.9082C 42.7822 8.0625 43.1719 9.65332 43.1719 11.6807C 43.1719 13.7197 42.7793 15.3223 41.9941 16.4883C 41.2148 17.6543 40.1133 18.2373 38.6895 18.2373C 37.2656 18.2373 36.1641 17.6543 35.3848 16.4883C 34.6113 15.3223 34.2246 13.7197 34.2246 11.6807ZM 36.7207 11.6807C 36.7207 13.0342 36.8848 14.0801 37.2129 14.8184C 37.5469 15.5566 38.0391 15.9258 38.6895 15.9258C 39.3398 15.9258 39.8291 15.5566 40.1572 14.8184C 40.4854 14.0801 40.6494 13.0342 40.6494 11.6807C 40.6494 10.333 40.4854 9.2959 40.1572 8.56934C 39.8291 7.83691 39.3398 7.4707 38.6895 7.4707C 38.0391 7.4707 37.5469 7.83691 37.2129 8.56934C 36.8848 9.30176 36.7207 10.3389 36.7207 11.6807ZM 44.5254 11.6807C 44.5254 9.64746 44.9121 8.05371 45.6855 6.89941C 46.4648 5.74512 47.5664 5.16797 48.9902 5.16797C 50.4199 5.16797 51.5244 5.74805 52.3037 6.9082C 53.083 8.0625 53.4727 9.65332 53.4727 11.6807C 53.4727 13.7197 53.0801 15.3223 52.2949 16.4883C 51.5156 17.6543 50.4141 18.2373 48.9902 18.2373C 47.5664 18.2373 46.4648 17.6543 45.6855 16.4883C 44.9121 15.3223 44.5254 13.7197 44.5254 11.6807ZM 47.0215 11.6807C 47.0215 13.0342 47.1855 14.0801 47.5137 14.8184C 47.8477 15.5566 48.3398 15.9258 48.9902 15.9258C 49.6406 15.9258 50.1299 15.5566 50.458 14.8184C 50.7861 14.0801 50.9502 13.0342 50.9502 11.6807C 50.9502 10.333 50.7861 9.2959 50.458 8.56934C 50.1299 7.83691 49.6406 7.4707 48.9902 7.4707C 48.3398 7.4707 47.8477 7.83691 47.5137 8.56934C 47.1855 9.30176 47.0215 10.3389 47.0215 11.6807ZM 58.8076 12.9199L 58.8076 5.39648L 61.2949 5.39648L 61.2949 12.9199C 61.2949 13.8867 61.5117 14.6309 61.9453 15.1523C 62.3848 15.668 63.0498 15.9258 63.9404 15.9258C 64.8193 15.9258 65.4756 15.668 65.9092 15.1523C 66.3486 14.6367 66.5684 13.8926 66.5684 12.9199L 66.5684 5.39648L 69.0469 5.39648L 69.0469 12.9199C 69.0469 14.6074 68.6016 15.917 67.7109 16.8486C 66.8262 17.7744 65.5693 18.2373 63.9404 18.2373C 62.3057 18.2373 61.04 17.7744 60.1436 16.8486C 59.2529 15.917 58.8076 14.6074 58.8076 12.9199ZM 70.8223 14.1504L 73.3184 14.1504C 73.3477 14.7715 73.5293 15.2461 73.8633 15.5742C 74.1973 15.8965 74.6777 16.0576 75.3047 16.0576C 75.8203 16.0576 76.2246 15.9258 76.5176 15.6621C 76.8105 15.3984 76.957 15.0557 76.957 14.6338C 76.957 14.2178 76.7842 13.8721 76.4385 13.5967C 76.0928 13.3154 75.5215 13.043 74.7246 12.7793C 73.5059 12.3867 72.5977 11.8975 72 11.3115C 71.4023 10.7256 71.1035 9.93164 71.1035 8.92969C 71.1035 7.81055 71.4609 6.90527 72.1758 6.21387C 72.8906 5.5166 73.8604 5.16797 75.085 5.16797C 76.2861 5.16797 77.2354 5.48731 77.9326 6.12598C 78.6357 6.76465 79.0137 7.69922 79.0664 8.92969L 76.5615 8.92969C 76.5439 8.4375 76.3945 8.05371 76.1133 7.77832C 75.832 7.50293 75.4717 7.36523 75.0322 7.36523C 74.5869 7.36523 74.2383 7.48242 73.9863 7.7168C 73.7344 7.95117 73.6084 8.28223 73.6084 8.70996C 73.6084 8.94434 73.6465 9.14648 73.7227 9.31641C 73.8047 9.48047 73.9482 9.63281 74.1533 9.77344C 74.3643 9.91406 74.584 10.0342 74.8125 10.1338C 75.0469 10.2334 75.3838 10.3594 75.8232 10.5117C 77.1475 10.957 78.085 11.4814 78.6357 12.085C 79.1865 12.6826 79.4619 13.459 79.4619 14.4141C 79.4619 15.5977 79.0664 16.5322 78.2754 17.2178C 77.4902 17.8975 76.4883 18.2373 75.2695 18.2373C 73.8691 18.2373 72.7852 17.8652 72.0176 17.1211C 71.2559 16.377 70.8574 15.3867 70.8223 14.1504ZM 81.3252 18L 81.3252 5.39648L 86.0449 5.39648C 87.0234 5.39648 87.9199 5.55176 88.7344 5.8623C 89.5547 6.16699 90.2432 6.59473 90.7998 7.14551C 91.3564 7.69629 91.7871 8.36133 92.0918 9.14062C 92.4023 9.91992 92.5576 10.7725 92.5576 11.6982C 92.5576 12.624 92.4023 13.4766 92.0918 14.2559C 91.7871 15.0352 91.3564 15.7002 90.7998 16.251C 90.2432 16.8018 89.5547 17.2324 88.7344 17.543C 87.9199 17.8477 87.0234 18 86.0449 18L 81.3252 18ZM 83.7949 15.6973L 86.0449 15.6973C 87.2988 15.6973 88.2686 15.3486 88.9541 14.6514C 89.6396 13.9541 89.9824 12.9697 89.9824 11.6982C 89.9824 10.4326 89.6396 9.45117 88.9541 8.75391C 88.2744 8.05664 87.3047 7.70801 86.0449 7.70801L 83.7949 7.70801L 83.7949 15.6973Z"/>
<path id="path9_fill" d="M 1.20312 14.1504L 3.70801 14.1504C 3.7373 14.7715 3.91602 15.2461 4.24414 15.5742C 4.57812 15.8965 5.05859 16.0576 5.68555 16.0576C 6.20117 16.0576 6.60547 15.9258 6.89844 15.6621C 7.19141 15.3984 7.33789 15.0557 7.33789 14.6338C 7.33789 14.2178 7.16504 13.8721 6.81934 13.5967C 6.47363 13.3154 5.90234 13.043 5.10547 12.7793C 3.88672 12.3867 2.97852 11.8975 2.38086 11.3115C 1.78906 10.7256 1.49316 9.93164 1.49316 8.92969C 1.49316 7.95117 1.77734 7.12793 2.3457 6.45996C 2.91406 5.78613 3.69629 5.37305 4.69238 5.2207L 4.69238 3.4541L 6.40625 3.4541L 6.40625 5.23828C 7.33203 5.39648 8.05859 5.78906 8.58594 6.41602C 9.11914 7.03711 9.40625 7.875 9.44727 8.92969L 6.94238 8.92969C 6.9248 8.4375 6.77539 8.05371 6.49414 7.77832C 6.21289 7.50293 5.85254 7.36523 5.41309 7.36523C 4.96777 7.36523 4.61914 7.48242 4.36719 7.7168C 4.11523 7.95117 3.98926 8.28223 3.98926 8.70996C 3.98926 8.94434 4.02734 9.14648 4.10352 9.31641C 4.18555 9.48047 4.3291 9.63281 4.53418 9.77344C 4.74512 9.91406 4.96484 10.0342 5.19336 10.1338C 5.42773 10.2334 5.76465 10.3594 6.2041 10.5117C 7.52832 10.957 8.46582 11.4814 9.0166 12.085C 9.56738 12.6826 9.84277 13.459 9.84277 14.4141C 9.84277 15.4746 9.52637 16.333 8.89355 16.9893C 8.2666 17.6396 7.4375 18.0352 6.40625 18.1758L 6.40625 19.9424L 4.69238 19.9424L 4.69238 18.1582C 3.58496 17.9883 2.73242 17.5518 2.13477 16.8486C 1.54297 16.1396 1.23242 15.2402 1.20312 14.1504ZM 11.2402 9.2373C 11.2227 8.00098 11.5742 7.01367 12.2949 6.27539C 13.0215 5.53711 13.9824 5.16797 15.1777 5.16797C 16.3906 5.16797 17.3193 5.49902 17.9639 6.16113C 18.6143 6.81738 18.9395 7.70508 18.9395 8.82422C 18.9395 9.52148 18.8047 10.1514 18.5352 10.7139C 18.2656 11.2705 17.8789 11.8564 17.375 12.4717L 14.7471 15.6973L 18.9746 15.6973L 18.9746 18L 11.3105 18L 11.3105 16.1982L 15.1777 11.5928C 15.6348 11.0537 15.96 10.5967 16.1533 10.2217C 16.3467 9.84668 16.4434 9.42188 16.4434 8.94727C 16.4434 8.47852 16.332 8.11523 16.1094 7.85742C 15.8926 7.59961 15.5703 7.4707 15.1426 7.4707C 14.6914 7.4707 14.3398 7.61719 14.0879 7.91016C 13.8359 8.20313 13.7129 8.64551 13.7188 9.2373L 11.2402 9.2373ZM 20.2227 11.6807C 20.2227 9.64746 20.6094 8.05371 21.3828 6.89941C 22.1621 5.74512 23.2637 5.16797 24.6875 5.16797C 26.1172 5.16797 27.2217 5.74805 28.001 6.9082C 28.7803 8.0625 29.1699 9.65332 29.1699 11.6807C 29.1699 13.7197 28.7773 15.3223 27.9922 16.4883C 27.2129 17.6543 26.1113 18.2373 24.6875 18.2373C 23.2637 18.2373 22.1621 17.6543 21.3828 16.4883C 20.6094 15.3223 20.2227 13.7197 20.2227 11.6807ZM 22.7188 11.6807C 22.7188 13.0342 22.8828 14.0801 23.2109 14.8184C 23.5449 15.5566 24.0371 15.9258 24.6875 15.9258C 25.3379 15.9258 25.8271 15.5566 26.1553 14.8184C 26.4834 14.0801 26.6475 13.0342 26.6475 11.6807C 26.6475 10.333 26.4834 9.2959 26.1553 8.56934C 25.8271 7.83691 25.3379 7.4707 24.6875 7.4707C 24.0371 7.4707 23.5449 7.83691 23.2109 8.56934C 22.8828 9.30176 22.7188 10.3389 22.7188 11.6807ZM 30.5234 11.6807C 30.5234 9.64746 30.9102 8.05371 31.6836 6.89941C 32.4629 5.74512 33.5645 5.16797 34.9883 5.16797C 36.418 5.16797 37.5225 5.74805 38.3018 6.9082C 39.0811 8.0625 39.4707 9.65332 39.4707 11.6807C 39.4707 13.7197 39.0781 15.3223 38.293 16.4883C 37.5137 17.6543 36.4121 18.2373 34.9883 18.2373C 33.5645 18.2373 32.4629 17.6543 31.6836 16.4883C 30.9102 15.3223 30.5234 13.7197 30.5234 11.6807ZM 33.0195 11.6807C 33.0195 13.0342 33.1836 14.0801 33.5117 14.8184C 33.8457 15.5566 34.3379 15.9258 34.9883 15.9258C 35.6387 15.9258 36.1279 15.5566 36.4561 14.8184C 36.7842 14.0801 36.9482 13.0342 36.9482 11.6807C 36.9482 10.333 36.7842 9.2959 36.4561 8.56934C 36.1279 7.83691 35.6387 7.4707 34.9883 7.4707C 34.3379 7.4707 33.8457 7.83691 33.5117 8.56934C 33.1836 9.30176 33.0195 10.3389 33.0195 11.6807ZM 40.8242 11.6807C 40.8242 9.64746 41.2109 8.05371 41.9844 6.89941C 42.7637 5.74512 43.8652 5.16797 45.2891 5.16797C 46.7188 5.16797 47.8232 5.74805 48.6025 6.9082C 49.3818 8.0625 49.7715 9.65332 49.7715 11.6807C 49.7715 13.7197 49.3789 15.3223 48.5938 16.4883C 47.8145 17.6543 46.7129 18.2373 45.2891 18.2373C 43.8652 18.2373 42.7637 17.6543 41.9844 16.4883C 41.2109 15.3223 40.8242 13.7197 40.8242 11.6807ZM 43.3203 11.6807C 43.3203 13.0342 43.4844 14.0801 43.8125 14.8184C 44.1465 15.5566 44.6387 15.9258 45.2891 15.9258C 45.9395 15.9258 46.4287 15.5566 46.7568 14.8184C 47.085 14.0801 47.249 13.0342 47.249 11.6807C 47.249 10.333 47.085 9.2959 46.7568 8.56934C 46.4287 7.83691 45.9395 7.4707 45.2891 7.4707C 44.6387 7.4707 44.1465 7.83691 43.8125 8.56934C 43.4844 9.30176 43.3203 10.3389 43.3203 11.6807ZM 51.5557 12.9199L 51.5557 5.39648L 54.043 5.39648L 54.043 12.9199C 54.043 13.8867 54.2598 14.6309 54.6934 15.1523C 55.1328 15.668 55.7979 15.9258 56.6885 15.9258C 57.5674 15.9258 58.2236 15.668 58.6572 15.1523C 59.0967 14.6367 59.3164 13.8926 59.3164 12.9199L 59.3164 5.39648L 61.7949 5.39648L 61.7949 12.9199C 61.7949 14.6074 61.3496 15.917 60.459 16.8486C 59.5742 17.7744 58.3174 18.2373 56.6885 18.2373C 55.0537 18.2373 53.7881 17.7744 52.8916 16.8486C 52.001 15.917 51.5557 14.6074 51.5557 12.9199ZM 63.5703 14.1504L 66.0664 14.1504C 66.0957 14.7715 66.2773 15.2461 66.6113 15.5742C 66.9453 15.8965 67.4258 16.0576 68.0527 16.0576C 68.5684 16.0576 68.9727 15.9258 69.2656 15.6621C 69.5586 15.3984 69.7051 15.0557 69.7051 14.6338C 69.7051 14.2178 69.5322 13.8721 69.1865 13.5967C 68.8408 13.3154 68.2695 13.043 67.4727 12.7793C 66.2539 12.3867 65.3457 11.8975 64.748 11.3115C 64.1504 10.7256 63.8516 9.93164 63.8516 8.92969C 63.8516 7.81055 64.209 6.90527 64.9238 6.21387C 65.6387 5.5166 66.6084 5.16797 67.833 5.16797C 69.0342 5.16797 69.9834 5.48731 70.6807 6.12598C 71.3838 6.76465 71.7617 7.69922 71.8145 8.92969L 69.3096 8.92969C 69.292 8.4375 69.1426 8.05371 68.8613 7.77832C 68.5801 7.50293 68.2197 7.36523 67.7803 7.36523C 67.335 7.36523 66.9863 7.48242 66.7344 7.7168C 66.4824 7.95117 66.3564 8.28223 66.3564 8.70996C 66.3564 8.94434 66.3945 9.14648 66.4707 9.31641C 66.5527 9.48047 66.6963 9.63281 66.9014 9.77344C 67.1123 9.91406 67.332 10.0342 67.5605 10.1338C 67.7949 10.2334 68.1318 10.3594 68.5713 10.5117C 69.8955 10.957 70.833 11.4814 71.3838 12.085C 71.9346 12.6826 72.21 13.459 72.21 14.4141C 72.21 15.5977 71.8145 16.5322 71.0234 17.2178C 70.2383 17.8975 69.2363 18.2373 68.0176 18.2373C 66.6172 18.2373 65.5332 17.8652 64.7656 17.1211C 64.0039 16.377 63.6055 15.3867 63.5703 14.1504ZM 74.0732 18L 74.0732 5.39648L 78.793 5.39648C 79.7715 5.39648 80.668 5.55176 81.4824 5.8623C 82.3027 6.16699 82.9912 6.59473 83.5479 7.14551C 84.1045 7.69629 84.5352 8.36133 84.8398 9.14062C 85.1504 9.91992 85.3057 10.7725 85.3057 11.6982C 85.3057 12.624 85.1504 13.4766 84.8398 14.2559C 84.5352 15.0352 84.1045 15.7002 83.5479 16.251C 82.9912 16.8018 82.3027 17.2324 81.4824 17.543C 80.668 17.8477 79.7715 18 78.793 18L 74.0732 18ZM 76.543 15.6973L 78.793 15.6973C 80.0469 15.6973 81.0166 15.3486 81.7021 14.6514C 82.3877 13.9541 82.7305 12.9697 82.7305 11.6982C 82.7305 10.4326 82.3877 9.45117 81.7021 8.75391C 81.0225 8.05664 80.0527 7.70801 78.793 7.70801L 76.543 7.70801L 76.543 15.6973Z"/>
<path id="path10_fill" d="M 0 0L 114 0L 114 10L 0 10L 0 0Z"/>
<path id="path11_fill" d="M 1.67773 14.1504L 4.18262 14.1504C 4.21191 14.7715 4.39062 15.2461 4.71875 15.5742C 5.05273 15.8965 5.5332 16.0576 6.16016 16.0576C 6.67578 16.0576 7.08008 15.9258 7.37305 15.6621C 7.66602 15.3984 7.8125 15.0557 7.8125 14.6338C 7.8125 14.2178 7.63965 13.8721 7.29395 13.5967C 6.94824 13.3154 6.37695 13.043 5.58008 12.7793C 4.36133 12.3867 3.45312 11.8975 2.85547 11.3115C 2.26367 10.7256 1.96777 9.93164 1.96777 8.92969C 1.96777 7.95117 2.25195 7.12793 2.82031 6.45996C 3.38867 5.78613 4.1709 5.37305 5.16699 5.2207L 5.16699 3.4541L 6.88086 3.4541L 6.88086 5.23828C 7.80664 5.39648 8.5332 5.78906 9.06055 6.41602C 9.59375 7.03711 9.88086 7.875 9.92188 8.92969L 7.41699 8.92969C 7.39941 8.4375 7.25 8.05371 6.96875 7.77832C 6.6875 7.50293 6.32715 7.36523 5.8877 7.36523C 5.44238 7.36523 5.09375 7.48242 4.8418 7.7168C 4.58984 7.95117 4.46387 8.28223 4.46387 8.70996C 4.46387 8.94434 4.50195 9.14648 4.57812 9.31641C 4.66016 9.48047 4.80371 9.63281 5.00879 9.77344C 5.21973 9.91406 5.43945 10.0342 5.66797 10.1338C 5.90234 10.2334 6.23926 10.3594 6.67871 10.5117C 8.00293 10.957 8.94043 11.4814 9.49121 12.085C 10.042 12.6826 10.3174 13.459 10.3174 14.4141C 10.3174 15.4746 10.001 16.333 9.36816 16.9893C 8.74121 17.6396 7.91211 18.0352 6.88086 18.1758L 6.88086 19.9424L 5.16699 19.9424L 5.16699 18.1582C 4.05957 17.9883 3.20703 17.5518 2.60938 16.8486C 2.01758 16.1396 1.70703 15.2402 1.67773 14.1504ZM 11.873 14.3262L 14.3604 14.3262C 14.3662 14.8594 14.5186 15.2607 14.8174 15.5303C 15.1162 15.7939 15.5205 15.9258 16.0303 15.9258C 16.5752 15.9258 16.9941 15.75 17.2871 15.3984C 17.5801 15.041 17.7266 14.5635 17.7266 13.9658C 17.7266 13.3506 17.5713 12.876 17.2607 12.542C 16.9561 12.208 16.5283 12.041 15.9775 12.041C 15.4092 12.041 14.8994 12.1904 14.4482 12.4893L 12.2334 12.4893L 12.2334 5.39648L 19.5635 5.39648L 19.5635 7.70801L 14.7383 7.70801L 14.7383 10.2393C 15.2305 9.99902 15.7988 9.87891 16.4434 9.87891C 16.9766 9.87891 17.4658 9.95801 17.9111 10.1162C 18.3564 10.2686 18.752 10.5029 19.0977 10.8193C 19.4434 11.1299 19.7129 11.543 19.9062 12.0586C 20.1055 12.5742 20.2051 13.1689 20.2051 13.8428C 20.2051 15.1846 19.8301 16.2539 19.0801 17.0508C 18.3301 17.8418 17.3076 18.2373 16.0127 18.2373C 14.7236 18.2373 13.71 17.9004 12.9717 17.2266C 12.2393 16.5469 11.873 15.5801 11.873 14.3262ZM 21.5234 11.6807C 21.5234 9.64746 21.9102 8.05371 22.6836 6.89941C 23.4629 5.74512 24.5645 5.16797 25.9883 5.16797C 27.418 5.16797 28.5225 5.74805 29.3018 6.9082C 30.0811 8.0625 30.4707 9.65332 30.4707 11.6807C 30.4707 13.7197 30.0781 15.3223 29.293 16.4883C 28.5137 17.6543 27.4121 18.2373 25.9883 18.2373C 24.5645 18.2373 23.4629 17.6543 22.6836 16.4883C 21.9102 15.3223 21.5234 13.7197 21.5234 11.6807ZM 24.0195 11.6807C 24.0195 13.0342 24.1836 14.0801 24.5117 14.8184C 24.8457 15.5566 25.3379 15.9258 25.9883 15.9258C 26.6387 15.9258 27.1279 15.5566 27.4561 14.8184C 27.7842 14.0801 27.9482 13.0342 27.9482 11.6807C 27.9482 10.333 27.7842 9.2959 27.4561 8.56934C 27.1279 7.83691 26.6387 7.4707 25.9883 7.4707C 25.3379 7.4707 24.8457 7.83691 24.5117 8.56934C 24.1836 9.30176 24.0195 10.3389 24.0195 11.6807ZM 31.8242 11.6807C 31.8242 9.64746 32.2109 8.05371 32.9844 6.89941C 33.7637 5.74512 34.8652 5.16797 36.2891 5.16797C 37.7188 5.16797 38.8232 5.74805 39.6025 6.9082C 40.3818 8.0625 40.7715 9.65332 40.7715 11.6807C 40.7715 13.7197 40.3789 15.3223 39.5938 16.4883C 38.8145 17.6543 37.7129 18.2373 36.2891 18.2373C 34.8652 18.2373 33.7637 17.6543 32.9844 16.4883C 32.2109 15.3223 31.8242 13.7197 31.8242 11.6807ZM 34.3203 11.6807C 34.3203 13.0342 34.4844 14.0801 34.8125 14.8184C 35.1465 15.5566 35.6387 15.9258 36.2891 15.9258C 36.9395 15.9258 37.4287 15.5566 37.7568 14.8184C 38.085 14.0801 38.249 13.0342 38.249 11.6807C 38.249 10.333 38.085 9.2959 37.7568 8.56934C 37.4287 7.83691 36.9395 7.4707 36.2891 7.4707C 35.6387 7.4707 35.1465 7.83691 34.8125 8.56934C 34.4844 9.30176 34.3203 10.3389 34.3203 11.6807ZM 42.5557 12.9199L 42.5557 5.39648L 45.043 5.39648L 45.043 12.9199C 45.043 13.8867 45.2598 14.6309 45.6934 15.1523C 46.1328 15.668 46.7979 15.9258 47.6885 15.9258C 48.5674 15.9258 49.2236 15.668 49.6572 15.1523C 50.0967 14.6367 50.3164 13.8926 50.3164 12.9199L 50.3164 5.39648L 52.7949 5.39648L 52.7949 12.9199C 52.7949 14.6074 52.3496 15.917 51.459 16.8486C 50.5742 17.7744 49.3174 18.2373 47.6885 18.2373C 46.0537 18.2373 44.7881 17.7744 43.8916 16.8486C 43.001 15.917 42.5557 14.6074 42.5557 12.9199ZM 54.5703 14.1504L 57.0664 14.1504C 57.0957 14.7715 57.2773 15.2461 57.6113 15.5742C 57.9453 15.8965 58.4258 16.0576 59.0527 16.0576C 59.5684 16.0576 59.9727 15.9258 60.2656 15.6621C 60.5586 15.3984 60.7051 15.0557 60.7051 14.6338C 60.7051 14.2178 60.5322 13.8721 60.1865 13.5967C 59.8408 13.3154 59.2695 13.043 58.4727 12.7793C 57.2539 12.3867 56.3457 11.8975 55.748 11.3115C 55.1504 10.7256 54.8516 9.93164 54.8516 8.92969C 54.8516 7.81055 55.209 6.90527 55.9238 6.21387C 56.6387 5.5166 57.6084 5.16797 58.833 5.16797C 60.0342 5.16797 60.9834 5.48731 61.6807 6.12598C 62.3838 6.76465 62.7617 7.69922 62.8145 8.92969L 60.3096 8.92969C 60.292 8.4375 60.1426 8.05371 59.8613 7.77832C 59.5801 7.50293 59.2197 7.36523 58.7803 7.36523C 58.335 7.36523 57.9863 7.48242 57.7344 7.7168C 57.4824 7.95117 57.3564 8.28223 57.3564 8.70996C 57.3564 8.94434 57.3945 9.14648 57.4707 9.31641C 57.5527 9.48047 57.6963 9.63281 57.9014 9.77344C 58.1123 9.91406 58.332 10.0342 58.5605 10.1338C 58.7949 10.2334 59.1318 10.3594 59.5713 10.5117C 60.8955 10.957 61.833 11.4814 62.3838 12.085C 62.9346 12.6826 63.21 13.459 63.21 14.4141C 63.21 15.5977 62.8145 16.5322 62.0234 17.2178C 61.2383 17.8975 60.2363 18.2373 59.0176 18.2373C 57.6172 18.2373 56.5332 17.8652 55.7656 17.1211C 55.0039 16.377 54.6055 15.3867 54.5703 14.1504ZM 65.0732 18L 65.0732 5.39648L 69.793 5.39648C 70.7715 5.39648 71.668 5.55176 72.4824 5.8623C 73.3027 6.16699 73.9912 6.59473 74.5479 7.14551C 75.1045 7.69629 75.5352 8.36133 75.8398 9.14062C 76.1504 9.91992 76.3057 10.7725 76.3057 11.6982C 76.3057 12.624 76.1504 13.4766 75.8398 14.2559C 75.5352 15.0352 75.1045 15.7002 74.5479 16.251C 73.9912 16.8018 73.3027 17.2324 72.4824 17.543C 71.668 17.8477 70.7715 18 69.793 18L 65.0732 18ZM 67.543 15.6973L 69.793 15.6973C 71.0469 15.6973 72.0166 15.3486 72.7021 14.6514C 73.3877 13.9541 73.7305 12.9697 73.7305 11.6982C 73.7305 10.4326 73.3877 9.45117 72.7021 8.75391C 72.0225 8.05664 71.0527 7.70801 69.793 7.70801L 67.543 7.70801L 67.543 15.6973Z"/>
<path id="path12_fill" d="M 1.75195 14.1504L 4.25684 14.1504C 4.28613 14.7715 4.46484 15.2461 4.79297 15.5742C 5.12695 15.8965 5.60742 16.0576 6.23438 16.0576C 6.75 16.0576 7.1543 15.9258 7.44727 15.6621C 7.74023 15.3984 7.88672 15.0557 7.88672 14.6338C 7.88672 14.2178 7.71387 13.8721 7.36816 13.5967C 7.02246 13.3154 6.45117 13.043 5.6543 12.7793C 4.43555 12.3867 3.52734 11.8975 2.92969 11.3115C 2.33789 10.7256 2.04199 9.93164 2.04199 8.92969C 2.04199 7.95117 2.32617 7.12793 2.89453 6.45996C 3.46289 5.78613 4.24512 5.37305 5.24121 5.2207L 5.24121 3.4541L 6.95508 3.4541L 6.95508 5.23828C 7.88086 5.39648 8.60742 5.78906 9.13477 6.41602C 9.66797 7.03711 9.95508 7.875 9.99609 8.92969L 7.49121 8.92969C 7.47363 8.4375 7.32422 8.05371 7.04297 7.77832C 6.76172 7.50293 6.40137 7.36523 5.96191 7.36523C 5.5166 7.36523 5.16797 7.48242 4.91602 7.7168C 4.66406 7.95117 4.53809 8.28223 4.53809 8.70996C 4.53809 8.94434 4.57617 9.14648 4.65234 9.31641C 4.73438 9.48047 4.87793 9.63281 5.08301 9.77344C 5.29395 9.91406 5.51367 10.0342 5.74219 10.1338C 5.97656 10.2334 6.31348 10.3594 6.75293 10.5117C 8.07715 10.957 9.01465 11.4814 9.56543 12.085C 10.1162 12.6826 10.3916 13.459 10.3916 14.4141C 10.3916 15.4746 10.0752 16.333 9.44238 16.9893C 8.81543 17.6396 7.98633 18.0352 6.95508 18.1758L 6.95508 19.9424L 5.24121 19.9424L 5.24121 18.1582C 4.13379 17.9883 3.28125 17.5518 2.68359 16.8486C 2.0918 16.1396 1.78125 15.2402 1.75195 14.1504ZM 11.6924 9.27246L 11.6924 7.18066C 12.6943 7.18066 13.4561 7.04883 13.9775 6.78516C 14.5049 6.51563 14.8477 6.05273 15.0059 5.39648L 16.8252 5.39648L 16.8252 18L 14.3467 18L 14.3467 9.27246L 11.6924 9.27246ZM 18.873 14.3262L 21.3604 14.3262C 21.3662 14.8594 21.5186 15.2607 21.8174 15.5303C 22.1162 15.7939 22.5205 15.9258 23.0303 15.9258C 23.5752 15.9258 23.9941 15.75 24.2871 15.3984C 24.5801 15.041 24.7266 14.5635 24.7266 13.9658C 24.7266 13.3506 24.5713 12.876 24.2607 12.542C 23.9561 12.208 23.5283 12.041 22.9775 12.041C 22.4092 12.041 21.8994 12.1904 21.4482 12.4893L 19.2334 12.4893L 19.2334 5.39648L 26.5635 5.39648L 26.5635 7.70801L 21.7383 7.70801L 21.7383 10.2393C 22.2305 9.99902 22.7988 9.87891 23.4434 9.87891C 23.9766 9.87891 24.4658 9.95801 24.9111 10.1162C 25.3564 10.2686 25.752 10.5029 26.0977 10.8193C 26.4434 11.1299 26.7129 11.543 26.9062 12.0586C 27.1055 12.5742 27.2051 13.1689 27.2051 13.8428C 27.2051 15.1846 26.8301 16.2539 26.0801 17.0508C 25.3301 17.8418 24.3076 18.2373 23.0127 18.2373C 21.7236 18.2373 20.71 17.9004 19.9717 17.2266C 19.2393 16.5469 18.873 15.5801 18.873 14.3262ZM 28.5234 11.6807C 28.5234 9.64746 28.9102 8.05371 29.6836 6.89941C 30.4629 5.74512 31.5645 5.16797 32.9883 5.16797C 34.418 5.16797 35.5225 5.74805 36.3018 6.9082C 37.0811 8.0625 37.4707 9.65332 37.4707 11.6807C 37.4707 13.7197 37.0781 15.3223 36.293 16.4883C 35.5137 17.6543 34.4121 18.2373 32.9883 18.2373C 31.5645 18.2373 30.4629 17.6543 29.6836 16.4883C 28.9102 15.3223 28.5234 13.7197 28.5234 11.6807ZM 31.0195 11.6807C 31.0195 13.0342 31.1836 14.0801 31.5117 14.8184C 31.8457 15.5566 32.3379 15.9258 32.9883 15.9258C 33.6387 15.9258 34.1279 15.5566 34.4561 14.8184C 34.7842 14.0801 34.9482 13.0342 34.9482 11.6807C 34.9482 10.333 34.7842 9.2959 34.4561 8.56934C 34.1279 7.83691 33.6387 7.4707 32.9883 7.4707C 32.3379 7.4707 31.8457 7.83691 31.5117 8.56934C 31.1836 9.30176 31.0195 10.3389 31.0195 11.6807ZM 38.8242 11.6807C 38.8242 9.64746 39.2109 8.05371 39.9844 6.89941C 40.7637 5.74512 41.8652 5.16797 43.2891 5.16797C 44.7188 5.16797 45.8232 5.74805 46.6025 6.9082C 47.3818 8.0625 47.7715 9.65332 47.7715 11.6807C 47.7715 13.7197 47.3789 15.3223 46.5938 16.4883C 45.8145 17.6543 44.7129 18.2373 43.2891 18.2373C 41.8652 18.2373 40.7637 17.6543 39.9844 16.4883C 39.2109 15.3223 38.8242 13.7197 38.8242 11.6807ZM 41.3203 11.6807C 41.3203 13.0342 41.4844 14.0801 41.8125 14.8184C 42.1465 15.5566 42.6387 15.9258 43.2891 15.9258C 43.9395 15.9258 44.4287 15.5566 44.7568 14.8184C 45.085 14.0801 45.249 13.0342 45.249 11.6807C 45.249 10.333 45.085 9.2959 44.7568 8.56934C 44.4287 7.83691 43.9395 7.4707 43.2891 7.4707C 42.6387 7.4707 42.1465 7.83691 41.8125 8.56934C 41.4844 9.30176 41.3203 10.3389 41.3203 11.6807ZM 49.5557 12.9199L 49.5557 5.39648L 52.043 5.39648L 52.043 12.9199C 52.043 13.8867 52.2598 14.6309 52.6934 15.1523C 53.1328 15.668 53.7979 15.9258 54.6885 15.9258C 55.5674 15.9258 56.2236 15.668 56.6572 15.1523C 57.0967 14.6367 57.3164 13.8926 57.3164 12.9199L 57.3164 5.39648L 59.7949 5.39648L 59.7949 12.9199C 59.7949 14.6074 59.3496 15.917 58.459 16.8486C 57.5742 17.7744 56.3174 18.2373 54.6885 18.2373C 53.0537 18.2373 51.7881 17.7744 50.8916 16.8486C 50.001 15.917 49.5557 14.6074 49.5557 12.9199ZM 61.5703 14.1504L 64.0664 14.1504C 64.0957 14.7715 64.2773 15.2461 64.6113 15.5742C 64.9453 15.8965 65.4258 16.0576 66.0527 16.0576C 66.5684 16.0576 66.9727 15.9258 67.2656 15.6621C 67.5586 15.3984 67.7051 15.0557 67.7051 14.6338C 67.7051 14.2178 67.5322 13.8721 67.1865 13.5967C 66.8408 13.3154 66.2695 13.043 65.4727 12.7793C 64.2539 12.3867 63.3457 11.8975 62.748 11.3115C 62.1504 10.7256 61.8516 9.93164 61.8516 8.92969C 61.8516 7.81055 62.209 6.90527 62.9238 6.21387C 63.6387 5.5166 64.6084 5.16797 65.833 5.16797C 67.0342 5.16797 67.9834 5.48731 68.6807 6.12598C 69.3838 6.76465 69.7617 7.69922 69.8145 8.92969L 67.3096 8.92969C 67.292 8.4375 67.1426 8.05371 66.8613 7.77832C 66.5801 7.50293 66.2197 7.36523 65.7803 7.36523C 65.335 7.36523 64.9863 7.48242 64.7344 7.7168C 64.4824 7.95117 64.3564 8.28223 64.3564 8.70996C 64.3564 8.94434 64.3945 9.14648 64.4707 9.31641C 64.5527 9.48047 64.6963 9.63281 64.9014 9.77344C 65.1123 9.91406 65.332 10.0342 65.5605 10.1338C 65.7949 10.2334 66.1318 10.3594 66.5713 10.5117C 67.8955 10.957 68.833 11.4814 69.3838 12.085C 69.9346 12.6826 70.21 13.459 70.21 14.4141C 70.21 15.5977 69.8145 16.5322 69.0234 17.2178C 68.2383 17.8975 67.2363 18.2373 66.0176 18.2373C 64.6172 18.2373 63.5332 17.8652 62.7656 17.1211C 62.0039 16.377 61.6055 15.3867 61.5703 14.1504ZM 72.0732 18L 72.0732 5.39648L 76.793 5.39648C 77.7715 5.39648 78.668 5.55176 79.4824 5.8623C 80.3027 6.16699 80.9912 6.59473 81.5479 7.14551C 82.1045 7.69629 82.5352 8.36133 82.8398 9.14062C 83.1504 9.91992 83.3057 10.7725 83.3057 11.6982C 83.3057 12.624 83.1504 13.4766 82.8398 14.2559C 82.5352 15.0352 82.1045 15.7002 81.5479 16.251C 80.9912 16.8018 80.3027 17.2324 79.4824 17.543C 78.668 17.8477 77.7715 18 76.793 18L 72.0732 18ZM 74.543 15.6973L 76.793 15.6973C 78.0469 15.6973 79.0166 15.3486 79.7021 14.6514C 80.3877 13.9541 80.7305 12.9697 80.7305 11.6982C 80.7305 10.4326 80.3877 9.45117 79.7021 8.75391C 79.0225 8.05664 78.0527 7.70801 76.793 7.70801L 74.543 7.70801L 74.543 15.6973Z"/>
<path id="path13_fill" d="M 1.32422 14.1504L 3.8291 14.1504C 3.8584 14.7715 4.03711 15.2461 4.36523 15.5742C 4.69922 15.8965 5.17969 16.0576 5.80664 16.0576C 6.32227 16.0576 6.72656 15.9258 7.01953 15.6621C 7.3125 15.3984 7.45898 15.0557 7.45898 14.6338C 7.45898 14.2178 7.28613 13.8721 6.94043 13.5967C 6.59473 13.3154 6.02344 13.043 5.22656 12.7793C 4.00781 12.3867 3.09961 11.8975 2.50195 11.3115C 1.91016 10.7256 1.61426 9.93164 1.61426 8.92969C 1.61426 7.95117 1.89844 7.12793 2.4668 6.45996C 3.03516 5.78613 3.81738 5.37305 4.81348 5.2207L 4.81348 3.4541L 6.52734 3.4541L 6.52734 5.23828C 7.45312 5.39648 8.17969 5.78906 8.70703 6.41602C 9.24023 7.03711 9.52734 7.875 9.56836 8.92969L 7.06348 8.92969C 7.0459 8.4375 6.89648 8.05371 6.61523 7.77832C 6.33398 7.50293 5.97363 7.36523 5.53418 7.36523C 5.08887 7.36523 4.74023 7.48242 4.48828 7.7168C 4.23633 7.95117 4.11035 8.28223 4.11035 8.70996C 4.11035 8.94434 4.14844 9.14648 4.22461 9.31641C 4.30664 9.48047 4.4502 9.63281 4.65527 9.77344C 4.86621 9.91406 5.08594 10.0342 5.31445 10.1338C 5.54883 10.2334 5.88574 10.3594 6.3252 10.5117C 7.64941 10.957 8.58691 11.4814 9.1377 12.085C 9.68848 12.6826 9.96387 13.459 9.96387 14.4141C 9.96387 15.4746 9.64746 16.333 9.01465 16.9893C 8.3877 17.6396 7.55859 18.0352 6.52734 18.1758L 6.52734 19.9424L 4.81348 19.9424L 4.81348 18.1582C 3.70605 17.9883 2.85352 17.5518 2.25586 16.8486C 1.66406 16.1396 1.35352 15.2402 1.32422 14.1504ZM 11.3965 14.1504L 13.8574 14.1504C 13.8633 14.7422 14.0303 15.1875 14.3584 15.4863C 14.6924 15.7793 15.1377 15.9258 15.6943 15.9258C 16.1807 15.9258 16.5732 15.7793 16.8721 15.4863C 17.1709 15.1875 17.3203 14.7832 17.3203 14.2734C 17.3203 13.6992 17.1299 13.2686 16.749 12.9814C 16.374 12.6885 15.8438 12.542 15.1582 12.542L 14.4023 12.542L 14.4023 10.4238L 15.123 10.4238C 15.7266 10.4238 16.1689 10.3037 16.4502 10.0635C 16.7373 9.82324 16.8809 9.45117 16.8809 8.94727C 16.8809 8.49023 16.7637 8.12988 16.5293 7.86621C 16.2949 7.60254 15.9639 7.4707 15.5361 7.4707C 15.1143 7.4707 14.7686 7.61426 14.499 7.90137C 14.2295 8.18262 14.0947 8.60156 14.0947 9.1582L 11.6074 9.1582C 11.6074 7.92188 11.959 6.94922 12.6621 6.24023C 13.3711 5.52539 14.3174 5.16797 15.501 5.16797C 16.708 5.16797 17.6543 5.5166 18.3398 6.21387C 19.0254 6.90527 19.3682 7.78125 19.3682 8.8418C 19.3682 9.52734 19.2129 10.0898 18.9023 10.5293C 18.5977 10.9629 18.2314 11.2705 17.8037 11.4521C 18.3662 11.6162 18.8379 11.9414 19.2188 12.4277C 19.6055 12.9141 19.7988 13.5645 19.7988 14.3789C 19.7988 15.5625 19.418 16.5029 18.6562 17.2002C 17.9004 17.8916 16.8838 18.2373 15.6064 18.2373C 14.2998 18.2373 13.2715 17.8799 12.5215 17.165C 11.7715 16.4443 11.3965 15.4395 11.3965 14.1504ZM 21.2227 11.6807C 21.2227 9.64746 21.6094 8.05371 22.3828 6.89941C 23.1621 5.74512 24.2637 5.16797 25.6875 5.16797C 27.1172 5.16797 28.2217 5.74805 29.001 6.9082C 29.7803 8.0625 30.1699 9.65332 30.1699 11.6807C 30.1699 13.7197 29.7773 15.3223 28.9922 16.4883C 28.2129 17.6543 27.1113 18.2373 25.6875 18.2373C 24.2637 18.2373 23.1621 17.6543 22.3828 16.4883C 21.6094 15.3223 21.2227 13.7197 21.2227 11.6807ZM 23.7188 11.6807C 23.7188 13.0342 23.8828 14.0801 24.2109 14.8184C 24.5449 15.5566 25.0371 15.9258 25.6875 15.9258C 26.3379 15.9258 26.8271 15.5566 27.1553 14.8184C 27.4834 14.0801 27.6475 13.0342 27.6475 11.6807C 27.6475 10.333 27.4834 9.2959 27.1553 8.56934C 26.8271 7.83691 26.3379 7.4707 25.6875 7.4707C 25.0371 7.4707 24.5449 7.83691 24.2109 8.56934C 23.8828 9.30176 23.7188 10.3389 23.7188 11.6807ZM 31.5234 11.6807C 31.5234 9.64746 31.9102 8.05371 32.6836 6.89941C 33.4629 5.74512 34.5645 5.16797 35.9883 5.16797C 37.418 5.16797 38.5225 5.74805 39.3018 6.9082C 40.0811 8.0625 40.4707 9.65332 40.4707 11.6807C 40.4707 13.7197 40.0781 15.3223 39.293 16.4883C 38.5137 17.6543 37.4121 18.2373 35.9883 18.2373C 34.5645 18.2373 33.4629 17.6543 32.6836 16.4883C 31.9102 15.3223 31.5234 13.7197 31.5234 11.6807ZM 34.0195 11.6807C 34.0195 13.0342 34.1836 14.0801 34.5117 14.8184C 34.8457 15.5566 35.3379 15.9258 35.9883 15.9258C 36.6387 15.9258 37.1279 15.5566 37.4561 14.8184C 37.7842 14.0801 37.9482 13.0342 37.9482 11.6807C 37.9482 10.333 37.7842 9.2959 37.4561 8.56934C 37.1279 7.83691 36.6387 7.4707 35.9883 7.4707C 35.3379 7.4707 34.8457 7.83691 34.5117 8.56934C 34.1836 9.30176 34.0195 10.3389 34.0195 11.6807ZM 41.8242 11.6807C 41.8242 9.64746 42.2109 8.05371 42.9844 6.89941C 43.7637 5.74512 44.8652 5.16797 46.2891 5.16797C 47.7188 5.16797 48.8232 5.74805 49.6025 6.9082C 50.3818 8.0625 50.7715 9.65332 50.7715 11.6807C 50.7715 13.7197 50.3789 15.3223 49.5938 16.4883C 48.8145 17.6543 47.7129 18.2373 46.2891 18.2373C 44.8652 18.2373 43.7637 17.6543 42.9844 16.4883C 42.2109 15.3223 41.8242 13.7197 41.8242 11.6807ZM 44.3203 11.6807C 44.3203 13.0342 44.4844 14.0801 44.8125 14.8184C 45.1465 15.5566 45.6387 15.9258 46.2891 15.9258C 46.9395 15.9258 47.4287 15.5566 47.7568 14.8184C 48.085 14.0801 48.249 13.0342 48.249 11.6807C 48.249 10.333 48.085 9.2959 47.7568 8.56934C 47.4287 7.83691 46.9395 7.4707 46.2891 7.4707C 45.6387 7.4707 45.1465 7.83691 44.8125 8.56934C 44.4844 9.30176 44.3203 10.3389 44.3203 11.6807ZM 52.5557 12.9199L 52.5557 5.39648L 55.043 5.39648L 55.043 12.9199C 55.043 13.8867 55.2598 14.6309 55.6934 15.1523C 56.1328 15.668 56.7979 15.9258 57.6885 15.9258C 58.5674 15.9258 59.2236 15.668 59.6572 15.1523C 60.0967 14.6367 60.3164 13.8926 60.3164 12.9199L 60.3164 5.39648L 62.7949 5.39648L 62.7949 12.9199C 62.7949 14.6074 62.3496 15.917 61.459 16.8486C 60.5742 17.7744 59.3174 18.2373 57.6885 18.2373C 56.0537 18.2373 54.7881 17.7744 53.8916 16.8486C 53.001 15.917 52.5557 14.6074 52.5557 12.9199ZM 64.5703 14.1504L 67.0664 14.1504C 67.0957 14.7715 67.2773 15.2461 67.6113 15.5742C 67.9453 15.8965 68.4258 16.0576 69.0527 16.0576C 69.5684 16.0576 69.9727 15.9258 70.2656 15.6621C 70.5586 15.3984 70.7051 15.0557 70.7051 14.6338C 70.7051 14.2178 70.5322 13.8721 70.1865 13.5967C 69.8408 13.3154 69.2695 13.043 68.4727 12.7793C 67.2539 12.3867 66.3457 11.8975 65.748 11.3115C 65.1504 10.7256 64.8516 9.93164 64.8516 8.92969C 64.8516 7.81055 65.209 6.90527 65.9238 6.21387C 66.6387 5.5166 67.6084 5.16797 68.833 5.16797C 70.0342 5.16797 70.9834 5.48731 71.6807 6.12598C 72.3838 6.76465 72.7617 7.69922 72.8145 8.92969L 70.3096 8.92969C 70.292 8.4375 70.1426 8.05371 69.8613 7.77832C 69.5801 7.50293 69.2197 7.36523 68.7803 7.36523C 68.335 7.36523 67.9863 7.48242 67.7344 7.7168C 67.4824 7.95117 67.3564 8.28223 67.3564 8.70996C 67.3564 8.94434 67.3945 9.14648 67.4707 9.31641C 67.5527 9.48047 67.6963 9.63281 67.9014 9.77344C 68.1123 9.91406 68.332 10.0342 68.5605 10.1338C 68.7949 10.2334 69.1318 10.3594 69.5713 10.5117C 70.8955 10.957 71.833 11.4814 72.3838 12.085C 72.9346 12.6826 73.21 13.459 73.21 14.4141C 73.21 15.5977 72.8145 16.5322 72.0234 17.2178C 71.2383 17.8975 70.2363 18.2373 69.0176 18.2373C 67.6172 18.2373 66.5332 17.8652 65.7656 17.1211C 65.0039 16.377 64.6055 15.3867 64.5703 14.1504ZM 75.0732 18L 75.0732 5.39648L 79.793 5.39648C 80.7715 5.39648 81.668 5.55176 82.4824 5.8623C 83.3027 6.16699 83.9912 6.59473 84.5479 7.14551C 85.1045 7.69629 85.5352 8.36133 85.8398 9.14062C 86.1504 9.91992 86.3057 10.7725 86.3057 11.6982C 86.3057 12.624 86.1504 13.4766 85.8398 14.2559C 85.5352 15.0352 85.1045 15.7002 84.5479 16.251C 83.9912 16.8018 83.3027 17.2324 82.4824 17.543C 81.668 17.8477 80.7715 18 79.793 18L 75.0732 18ZM 77.543 15.6973L 79.793 15.6973C 81.0469 15.6973 82.0166 15.3486 82.7021 14.6514C 83.3877 13.9541 83.7305 12.9697 83.7305 11.6982C 83.7305 10.4326 83.3877 9.45117 82.7021 8.75391C 82.0225 8.05664 81.0527 7.70801 79.793 7.70801L 77.543 7.70801L 77.543 15.6973Z"/>
<path id="path14_fill" d="M 0.157227 5.66699L 0.157227 4.19727L 8.40137 4.19727L 8.40137 5.66699L 5.05176 5.66699L 5.05176 14L 3.48633 14L 3.48633 5.66699L 0.157227 5.66699ZM 9.58398 14L 9.58398 3.78027L 11.0674 3.78027L 11.0674 7.74512C 11.4274 7.08887 12.0472 6.76074 12.9268 6.76074C 13.6514 6.76074 14.2142 6.99772 14.6152 7.47168C 15.0208 7.94564 15.2236 8.59049 15.2236 9.40625L 15.2236 14L 13.7266 14L 13.7266 9.7002C 13.7266 9.22168 13.6217 8.85482 13.4121 8.59961C 13.207 8.3444 12.9108 8.2168 12.5234 8.2168C 12.0859 8.2168 11.7327 8.39681 11.4639 8.75684C 11.1995 9.1123 11.0674 9.60449 11.0674 10.2334L 11.0674 14L 9.58398 14ZM 16.9736 4.79883C 16.9736 4.52995 17.0648 4.30436 17.2471 4.12207C 17.4339 3.93978 17.6595 3.84863 17.9238 3.84863C 17.9466 3.84863 17.9671 3.84863 17.9854 3.84863C 18.1631 3.84863 18.3249 3.90104 18.4707 4.00586C 18.6348 4.12435 18.7487 4.27018 18.8125 4.44336C 18.8626 4.56185 18.8877 4.6849 18.8877 4.8125C 18.8877 4.8763 18.8831 4.93555 18.874 4.99023C 18.8421 5.18164 18.7533 5.33887 18.6074 5.46191C 18.4707 5.60319 18.3021 5.6875 18.1016 5.71484C 18.0423 5.72396 17.9831 5.72852 17.9238 5.72852C 17.7962 5.72852 17.6732 5.70573 17.5547 5.66016C 17.3815 5.59635 17.2357 5.4847 17.1172 5.3252C 17.0169 5.19303 16.9668 5.04264 16.9668 4.87402C 16.9668 4.85124 16.9691 4.82617 16.9736 4.79883ZM 17.1855 14L 17.1855 6.91797L 18.6689 6.91797L 18.6689 14L 17.1855 14ZM 20.2207 11.8604L 21.7178 11.8604C 21.7223 12.1885 21.8294 12.4437 22.0391 12.626C 22.2533 12.8037 22.5472 12.8926 22.9209 12.8926C 23.2581 12.8926 23.5202 12.8197 23.707 12.6738C 23.8939 12.5234 23.9873 12.3206 23.9873 12.0654C 23.9873 11.7874 23.8893 11.5778 23.6934 11.4365C 23.4974 11.2907 23.1328 11.1608 22.5996 11.0469C 21.8294 10.8828 21.2666 10.639 20.9111 10.3154C 20.5602 9.99186 20.3848 9.5498 20.3848 8.98926C 20.3848 8.37402 20.6012 7.84993 21.0342 7.41699C 21.4717 6.97949 22.0778 6.76074 22.8525 6.76074C 23.5498 6.76074 24.1286 6.96582 24.5889 7.37598C 25.0492 7.77702 25.2861 8.31934 25.2998 9.00293L 23.8164 9.00293C 23.8027 8.36035 23.4723 8.03906 22.8252 8.03906C 22.529 8.03906 22.2965 8.11426 22.1279 8.26465C 21.9639 8.41048 21.8818 8.60872 21.8818 8.85938C 21.8818 9.11458 21.9707 9.30827 22.1484 9.44043C 22.3307 9.56803 22.6725 9.6888 23.1738 9.80273C 24.0078 9.9668 24.6003 10.2152 24.9512 10.5479C 25.3066 10.876 25.4844 11.3363 25.4844 11.9287C 25.4844 12.6214 25.2451 13.166 24.7666 13.5625C 24.2881 13.959 23.6637 14.1572 22.8936 14.1572C 22.0687 14.1572 21.4215 13.9544 20.9521 13.5488C 20.4873 13.1387 20.2435 12.5758 20.2207 11.8604ZM 29.9004 14L 29.9004 4.19727L 31.6641 4.19727L 34.7676 10.9922L 35.0068 11.5938L 35.2734 10.9922L 38.3838 4.19727L 40.1611 4.19727L 40.1611 14L 38.5889 14L 38.5889 7.19824L 38.3086 7.99121L 35.6631 14L 34.3643 14L 31.7324 7.99121L 31.4658 7.19824L 31.4658 14L 29.9004 14ZM 42.6904 13.1182C 42.0114 12.4391 41.6719 11.5527 41.6719 10.459C 41.6719 9.36523 42.0114 8.47884 42.6904 7.7998C 43.3831 7.1071 44.2559 6.76074 45.3086 6.76074C 46.3613 6.76074 47.234 7.1071 47.9268 7.7998C 48.6195 8.49251 48.9658 9.37891 48.9658 10.459C 48.9658 11.5391 48.6195 12.4255 47.9268 13.1182C 47.234 13.8109 46.3613 14.1572 45.3086 14.1572C 44.2559 14.1572 43.3831 13.8109 42.6904 13.1182ZM 43.7979 8.79102C 43.4059 9.22396 43.21 9.77995 43.21 10.459C 43.21 11.138 43.4059 11.694 43.7979 12.127C 44.1943 12.5645 44.7025 12.7832 45.3223 12.7832C 45.9466 12.7832 46.4502 12.5645 46.833 12.127C 47.2249 11.694 47.4209 11.138 47.4209 10.459C 47.4209 9.77995 47.2249 9.22396 46.833 8.79102C 46.4502 8.35352 45.9466 8.13477 45.3223 8.13477C 44.7025 8.13477 44.1943 8.35352 43.7979 8.79102ZM 50.4629 14L 50.4629 6.91797L 51.748 6.91797L 51.8574 7.86816C 52.0352 7.53092 52.2926 7.26204 52.6299 7.06152C 52.9717 6.861 53.3636 6.76074 53.8057 6.76074C 54.5303 6.76074 55.0931 6.99772 55.4941 7.47168C 55.8997 7.94564 56.1025 8.59049 56.1025 9.40625L 56.1025 14L 54.6055 14L 54.6055 9.7002C 54.6055 9.22168 54.5007 8.85482 54.291 8.59961C 54.0859 8.3444 53.7897 8.2168 53.4023 8.2168C 52.9648 8.2168 52.6117 8.39681 52.3428 8.75684C 52.0785 9.1123 51.9463 9.60449 51.9463 10.2334L 51.9463 14L 50.4629 14ZM 57.1826 8.28516L 57.1826 6.91797L 58.4268 6.91797L 58.4404 5.18164L 59.9375 5.18164L 59.9238 6.91797L 61.6465 6.91797L 61.6465 8.28516L 59.9102 8.28516L 59.8828 11.6484C 59.8828 12.0449 59.9535 12.3275 60.0947 12.4961C 60.236 12.6602 60.4867 12.7422 60.8467 12.7422C 61.1247 12.7422 61.3913 12.7035 61.6465 12.626L 61.6465 13.9453C 61.3685 14.0456 61.0039 14.0957 60.5527 14.0957C 59.819 14.0957 59.2744 13.9248 58.9189 13.583C 58.568 13.2367 58.3949 12.6989 58.3994 11.9697L 58.4268 8.28516L 57.1826 8.28516ZM 63.123 14L 63.123 3.78027L 64.6064 3.78027L 64.6064 7.74512C 64.9665 7.08887 65.5863 6.76074 66.4658 6.76074C 67.1904 6.76074 67.7533 6.99772 68.1543 7.47168C 68.5599 7.94564 68.7627 8.59049 68.7627 9.40625L 68.7627 14L 67.2656 14L 67.2656 9.7002C 67.2656 9.22168 67.1608 8.85482 66.9512 8.59961C 66.7461 8.3444 66.4499 8.2168 66.0625 8.2168C 65.625 8.2168 65.2718 8.39681 65.0029 8.75684C 64.7386 9.1123 64.6064 9.60449 64.6064 10.2334L 64.6064 14L 63.123 14Z"/>
<path id="path15_fill" d="M 0 0L 196 0L 196 105L 0 105L 0 0Z"/>
<path id="path16_fill" d="M 0 0L 167.512 0L 167.512 71.4706L 0 71.4706L 0 0Z"/>
<path id="path17_fill" d="M 37.964 18.9706C 37.964 29.4478 29.4654 37.9412 18.982 37.9412C 8.49852 37.9412 0 29.4478 0 18.9706C 0 8.49342 8.49852 0 18.982 0C 29.4654 0 37.964 8.49342 37.964 18.9706Z"/>
<path id="path18_fill" d="M 0 25.1677L 5.89738 25.1677C 5.96636 26.6291 6.38711 27.7459 7.15963 28.5179C 7.94595 29.2762 9.07714 29.6553 10.5532 29.6553C 11.7672 29.6553 12.719 29.3451 13.4088 28.7247C 14.0985 28.1043 14.4434 27.2978 14.4434 26.3051C 14.4434 25.3263 14.0365 24.5129 13.2226 23.8649C 12.4086 23.2031 11.0636 22.562 9.1875 21.9416C 6.31813 21.0179 4.1799 19.8667 2.7728 18.4881C 1.3795 17.1094 0.682855 15.2413 0.682855 12.8837C 0.682855 10.5813 1.35191 8.6443 2.69003 7.07261C 4.02815 5.48713 5.86979 4.51517 8.21495 4.15671L 8.21495 0L 12.25 0L 12.25 4.19807C 14.4296 4.57031 16.1402 5.49403 17.3818 6.96921C 18.6371 8.43061 19.3131 10.4021 19.4096 12.8837L 13.5122 12.8837C 13.4709 11.7256 13.1191 10.8226 12.4569 10.1746C 11.7948 9.52665 10.9464 9.20267 9.91174 9.20267C 8.86332 9.20267 8.04251 9.4784 7.44932 10.0299C 6.85614 10.5813 6.55954 11.3603 6.55954 12.3667C 6.55954 12.9182 6.64921 13.3938 6.82855 13.7937C 7.02168 14.1797 7.35966 14.5381 7.84248 14.869C 8.3391 15.1999 8.85642 15.4825 9.39443 15.7169C 9.94623 15.9513 10.7394 16.2477 11.7741 16.6062C 14.8918 17.654 17.099 18.8879 18.3957 20.3079C 19.6924 21.7142 20.3408 23.5409 20.3408 25.7881C 20.3408 28.2835 19.5959 30.3033 18.106 31.8474C 16.6299 33.3778 14.6779 34.3084 12.25 34.6392L 12.25 38.796L 8.21495 38.796L 8.21495 34.5979C 5.60769 34.1981 3.60051 33.171 2.19341 31.5165C 0.800113 29.8483 0.0689752 27.7321 0 25.1677Z"/>
</defs>
</svg>
