<?xml version="1.0" encoding="utf-8"?>
<!-- Generator: Adobe Illustrator 21.1.0, SVG Export Plug-In . SVG Version: 6.00 Build 0)  -->
<svg version="1.1" id="Layer_1" xmlns="http://www.w3.org/2000/svg" xmlns:xlink="http://www.w3.org/1999/xlink" x="0px" y="0px"
	 viewBox="0 0 128 128" style="enable-background:new 0 0 128 128;" xml:space="preserve">
<style type="text/css">
	.st0{fill:#9EB2B5;}
</style>
<path id="Shape" class="st0" d="M21.7,37.9c0.1-1.4-0.4-2.7-1.4-3.6L9.9,21.8v-1.9h32.2L67,74.5l21.9-54.6h30.7v1.9l-8.9,8.5
	c-0.8,0.6-1.1,1.5-1,2.5v62.4c-0.2,0.9,0.2,1.9,1,2.5l8.7,8.5v1.9H75.8v-1.9l9-8.7c0.9-0.9,0.9-1.1,0.9-2.5V44.5l-24.9,63.3h-3.4
	l-29-63.3V87c-0.2,1.8,0.4,3.6,1.6,4.9L41.6,106v1.9H8.5V106l11.7-14.1c1.2-1.3,1.8-3.1,1.5-4.9V37.9z"/>
</svg>
