<?xml version="1.0" encoding="utf-8"?>
<!-- Generator: Adobe Illustrator 21.1.0, SVG Export Plug-In . SVG Version: 6.00 Build 0)  -->
<svg version="1.1" id="Layer_1" xmlns="http://www.w3.org/2000/svg" xmlns:xlink="http://www.w3.org/1999/xlink" x="0px" y="0px"
	 viewBox="0 0 310 310" style="enable-background:new 0 0 310 310;" xml:space="preserve">
<style type="text/css">
	.st0{fill:#9EB2B5;}
</style>
<g id="XMLID_801_">
	<path id="XMLID_802_" class="st0" d="M88.6,110.7H38.7c-2.2,0-4,1.8-4,4V275c0,2.2,1.8,4,4,4h49.9c2.2,0,4-1.8,4-4V114.7
		C92.6,112.5,90.8,110.7,88.6,110.7z"/>
	<path id="XMLID_803_" class="st0" d="M63.7,31c-18.2,0-32.9,14.8-32.9,32.9s14.8,32.9,32.9,32.9S96.6,82,96.6,63.9
		C96.6,45.8,81.8,31,63.7,31z"/>
	<path id="XMLID_804_" class="st0" d="M215.5,106.7c-20,0-34.9,8.6-43.8,18.4v-10.4c0-2.2-1.8-4-4-4h-47.8c-2.2,0-4,1.8-4,4V275
		c0,2.2,1.8,4,4,4h49.8c2.2,0,4-1.8,4-4v-79.3c0-26.7,7.3-37.1,25.9-37.1c20.3,0,21.9,16.7,21.9,38.5V275c0,2.2,1.8,4,4,4h49.8
		c2.2,0,4-1.8,4-4v-87.9C279.3,147.3,271.7,106.7,215.5,106.7z"/>
</g>
</svg>
