<?xml version="1.0" encoding="utf-8"?>
<!-- Generator: Adobe Illustrator 21.1.0, SVG Export Plug-In . SVG Version: 6.00 Build 0)  -->
<svg version="1.1" id="Layer_1" xmlns="http://www.w3.org/2000/svg" xmlns:xlink="http://www.w3.org/1999/xlink" x="0px" y="0px"
	 viewBox="0 0 128 128" style="enable-background:new 0 0 128 128;" xml:space="preserve">
<style type="text/css">
	.st0{fill:#9EB2B5;}
</style>
<g>
	<path class="st0" d="M122.1,28.9c-0.2-0.2-0.4-0.3-0.7-0.2c-3.4,1.5-6.9,2.6-10.5,3.2c3.9-2.9,6.8-6.9,8.2-11.6
		c0.1-0.2,0-0.5-0.2-0.6c-0.2-0.1-0.4-0.2-0.6,0c-4.4,2.6-9.1,4.4-14,5.4C99.8,20.6,93.7,18,87.4,18c-12.9,0-23.4,10.5-23.4,23.4
		c0,1.6,0.2,3.1,0.5,4.6c-17.9-1.1-34.6-9.7-46-23.6c-0.1-0.1-0.3-0.2-0.5-0.2c-0.2,0-0.3,0.1-0.4,0.3c-2.1,3.6-3.2,7.6-3.2,11.8
		c0,7.2,3.3,13.9,8.8,18.3c-2.9-0.3-5.7-1.2-8.2-2.6c-0.2-0.1-0.4-0.1-0.5,0c-0.2,0.1-0.3,0.3-0.3,0.5l0,0.3C14.2,61,21,70,30.6,73
		c-2.5,0.4-5.2,0.4-7.8-0.1c-0.2,0-0.4,0-0.5,0.2c-0.1,0.1-0.2,0.4-0.1,0.5c2.9,9,10.9,15.4,20.3,16.2c-7.8,5.7-17.1,8.7-26.8,8.7
		c-1.8,0-3.6-0.1-5.4-0.3c-0.3,0-0.5,0.1-0.6,0.4c-0.1,0.2,0,0.5,0.2,0.7c10.6,6.8,22.8,10.4,35.3,10.4c41,0,65.6-33.3,65.6-65.6
		c0-0.9,0-1.8-0.1-2.7c4.4-3.2,8.2-7.2,11.3-11.8C122.2,29.4,122.2,29.1,122.1,28.9z"/>
</g>
</svg>
