<svg width="79" height="64" viewBox="0 0 79 64" version="1.1" xmlns="http://www.w3.org/2000/svg" xmlns:xlink="http://www.w3.org/1999/xlink">
<title>deals</title>
<desc>Created using Figma</desc>
<g id="Canvas" transform="translate(-19072 -59210)">
<g id="deals">
<g id="Rectangle 11">
<use xlink:href="#path0_fill" transform="translate(19072 59231.6)" fill="#A6DFFF"/>
</g>
<g id="Rectangle 11.1">
<use xlink:href="#path1_fill" transform="translate(19074 59210)" fill="#FFFFFF"/>
</g>
<g id="Rectangle 12">
<use xlink:href="#path2_fill" transform="translate(19082 59216)" fill="#FF4E00"/>
</g>
<g id="Rectangle 12.1">
<use xlink:href="#path3_fill" transform="translate(19082 59227)" fill="#006DFF" fill-opacity="0.1"/>
</g>
<g id="Rectangle 12.2">
<use xlink:href="#path3_fill" transform="translate(19082 59236)" fill="#006DFF" fill-opacity="0.1"/>
</g>
<g id="Rectangle 12.3">
<use xlink:href="#path3_fill" transform="translate(19082 59245)" fill="#006DFF" fill-opacity="0.1"/>
</g>
<g id="Rectangle 11.3">
<use xlink:href="#path4_fill" transform="translate(19072 59231.6)" fill="#006DFF"/>
</g>
<g id="Rectangle 11.4">
<use xlink:href="#path4_fill" transform="matrix(-1 0 0 1 19150.3 59231.6)" fill="#006DFF"/>
</g>
<g id="Rectangle 11.2">
<use xlink:href="#path5_fill" transform="translate(19072 59251.8)" fill="url(#paint8_linear)"/>
</g>
</g>
</g>
<defs>
<linearGradient id="paint8_linear" x1="0" y1="0" x2="1" y2="0" gradientUnits="userSpaceOnUse" gradientTransform="matrix(-9 -86.5 304.027 -31.6329 -107.014 56.4903)">
<stop offset="0" stop-color="#140C42"/>
<stop offset="1" stop-color="#2E0AFF"/>
</linearGradient>
<path id="path0_fill" d="M 0 0L 77.9361 0L 77.9361 42.3913L 0 42.3913L 0 0Z"/>
<path id="path1_fill" d="M 0 0L 75 0L 75 49L 0 49L 0 0Z"/>
<path id="path2_fill" d="M 0 0L 21 0L 21 4L 0 4L 0 0Z"/>
<path id="path3_fill" d="M 0 0L 60 0L 60 2L 0 2L 0 0Z"/>
<path id="path4_fill" d="M 0 0L 1.62367 0L 18.5098 42.3913L 0 42.3913L 0 0Z"/>
<path id="path5_fill" d="M 10.3915 0L 67.5446 0L 77.9361 22.1739L 0 22.1739L 10.3915 0Z"/>
</defs>
</svg>
