<svg width="49" height="75" viewBox="0 0 49 75" version="1.1" xmlns="http://www.w3.org/2000/svg" xmlns:xlink="http://www.w3.org/1999/xlink">
<title>film</title>
<desc>Created using Figma</desc>
<g id="Canvas" transform="translate(-19347 -59202)">
<g id="film">
<g id="Vector">
<use xlink:href="#path0_fill" transform="translate(19347 59202)" fill="url(#paint0_linear)"/>
</g>
<g id="Rectangle">
<use xlink:href="#path1_fill" transform="translate(19361 59222)" fill="#465566"/>
</g>
<g id="Rectangle">
<use xlink:href="#path1_fill" transform="translate(19361 59239)" fill="url(#paint2_linear)"/>
</g>
<g id="Rectangle">
<use xlink:href="#path1_fill" transform="translate(19361 59256)" fill="#465566"/>
</g>
<g id="AD">
<use xlink:href="#path2_fill" transform="translate(19366 59244)" fill="#FFFFFF"/>
<use xlink:href="#path3_fill" transform="translate(19366 59244)" fill="#FFFFFF"/>
</g>
</g>
</g>
<defs>
<linearGradient id="paint0_linear" x1="0" y1="0" x2="1" y2="0" gradientUnits="userSpaceOnUse" gradientTransform="matrix(3.00038e-15 75 -49 4.59243e-15 49 -4.59243e-15)">
<stop offset="0" stop-color="#324D5B"/>
<stop offset="1" stop-color="#324D5B" stop-opacity="0"/>
</linearGradient>
<linearGradient id="paint2_linear" x1="0" y1="0" x2="1" y2="0" gradientUnits="userSpaceOnUse" gradientTransform="matrix(26 18.5 -27.1333 38.1333 13.5667 -19.0667)">
<stop offset="0" stop-color="#FF4E00"/>
<stop offset="1" stop-color="#FF005C"/>
</linearGradient>
<path id="path0_fill" d="M 46.7229 0L 32.1402 0C 30.8569 0 29.807 1.05465 29.807 2.34377L 29.807 6.85546C 29.807 11.1328 26.3071 14.6485 21.9908 14.6485L 9.39133 14.6485L 9.39133 15.4102C 9.39133 16.2891 8.63303 16.9922 7.69967 16.9922L 5.77476 16.9922C 4.8414 16.9922 4.0831 16.2891 4.0831 15.4102L 4.0831 14.6485L 2.33324 14.6485C 1.04991 14.6485 -9.0396e-09 15.7031 -9.0396e-09 16.9922L -9.0396e-09 72.6562C -9.0396e-09 73.9454 1.04991 75 2.33324 75L 46.6644 75C 47.9478 75 48.9977 73.9454 48.9977 72.6562L 48.9977 2.34377C 49.0562 1.05465 48.0063 0 46.7229 0ZM 9.39148 68.7304C 9.39148 69.6094 8.63318 70.3125 7.69982 70.3125L 5.7749 70.3125C 4.84155 70.3125 4.08325 69.6094 4.08325 68.7304L 4.08325 67.1484C 4.08325 66.2694 4.84155 65.5663 5.7749 65.5663L 7.69982 65.5663C 8.63318 65.5663 9.39148 66.2694 9.39148 67.1484L 9.39148 68.7304ZM 9.39148 61.1132C 9.39148 61.9922 8.63318 62.6953 7.69982 62.6953L 5.7749 62.6953C 4.84155 62.6953 4.08325 61.9922 4.08325 61.1132L 4.08325 59.5312C 4.08325 58.6522 4.84155 57.9491 5.7749 57.9491L 7.69982 57.9491C 8.63318 57.9491 9.39148 58.6522 9.39148 59.5312L 9.39148 61.1132ZM 9.39148 53.4961C 9.39148 54.375 8.63318 55.0781 7.69982 55.0781L 5.7749 55.0781C 4.84155 55.0781 4.08325 54.375 4.08325 53.4961L 4.08325 51.914C 4.08325 51.0351 4.84155 50.332 5.7749 50.332L 7.69982 50.332C 8.63318 50.332 9.39148 51.0351 9.39148 51.914L 9.39148 53.4961ZM 9.39148 45.8789C 9.39148 46.7578 8.63318 47.4609 7.69982 47.4609L 5.7749 47.4609C 4.84155 47.4609 4.08325 46.7578 4.08325 45.8789L 4.08325 44.2968C 4.08325 43.4179 4.84155 42.7148 5.7749 42.7148L 7.69982 42.7148C 8.63318 42.7148 9.39148 43.4179 9.39148 44.2968L 9.39148 45.8789ZM 9.39148 38.2617C 9.39148 39.1407 8.63318 39.8438 7.69982 39.8438L 5.7749 39.8438C 4.84155 39.8438 4.08325 39.1407 4.08325 38.2617L 4.08325 36.6797C 4.08325 35.8007 4.84155 35.0976 5.7749 35.0976L 7.69982 35.0976C 8.63318 35.0976 9.39148 35.8007 9.39148 36.6797L 9.39148 38.2617ZM 9.39148 30.6445C 9.39148 31.5235 8.63318 32.2266 7.69982 32.2266L 5.7749 32.2266C 4.84155 32.2266 4.08325 31.5235 4.08325 30.6445L 4.08325 29.0625C 4.08325 28.1835 4.84155 27.4804 5.7749 27.4804L 7.69982 27.4804C 8.63318 27.4804 9.39148 28.1835 9.39148 29.0625L 9.39148 30.6445ZM 9.39148 23.0274C 9.39148 23.9063 8.63318 24.6094 7.69982 24.6094L 5.7749 24.6094C 4.84155 24.6094 4.08325 23.9063 4.08325 23.0274L 4.08325 21.4453C 4.08325 20.5664 4.84155 19.8633 5.7749 19.8633L 7.69982 19.8633C 8.63318 19.8633 9.39148 20.5664 9.39148 21.4453L 9.39148 23.0274ZM 44.9731 68.7304C 44.9731 69.6094 44.2148 70.3125 43.2814 70.3125L 41.3565 70.3125C 40.4231 70.3125 39.6648 69.6094 39.6648 68.7304L 39.6648 67.1484C 39.6648 66.2694 40.4231 65.5663 41.3565 65.5663L 43.2814 65.5663C 44.2148 65.5663 44.9731 66.2694 44.9731 67.1484L 44.9731 68.7304ZM 44.9731 61.1132C 44.9731 61.9922 44.2148 62.6953 43.2814 62.6953L 41.3565 62.6953C 40.4231 62.6953 39.6648 61.9922 39.6648 61.1132L 39.6648 59.5312C 39.6648 58.6522 40.4231 57.9491 41.3565 57.9491L 43.2814 57.9491C 44.2148 57.9491 44.9731 58.6522 44.9731 59.5312L 44.9731 61.1132ZM 44.9731 53.4961C 44.9731 54.375 44.2148 55.0781 43.2814 55.0781L 41.3565 55.0781C 40.4231 55.0781 39.6648 54.375 39.6648 53.4961L 39.6648 51.914C 39.6648 51.0351 40.4231 50.332 41.3565 50.332L 43.2814 50.332C 44.2148 50.332 44.9731 51.0351 44.9731 51.914L 44.9731 53.4961ZM 44.9731 45.8789C 44.9731 46.7578 44.2148 47.4609 43.2814 47.4609L 41.3565 47.4609C 40.4231 47.4609 39.6648 46.7578 39.6648 45.8789L 39.6648 44.2968C 39.6648 43.4179 40.4231 42.7148 41.3565 42.7148L 43.2814 42.7148C 44.2148 42.7148 44.9731 43.4179 44.9731 44.2968L 44.9731 45.8789ZM 44.9731 38.2617C 44.9731 39.1407 44.2148 39.8438 43.2814 39.8438L 41.3565 39.8438C 40.4231 39.8438 39.6648 39.1407 39.6648 38.2617L 39.6648 36.6797C 39.6648 35.8007 40.4231 35.0976 41.3565 35.0976L 43.2814 35.0976C 44.2148 35.0976 44.9731 35.8007 44.9731 36.6797L 44.9731 38.2617ZM 44.9731 30.6445C 44.9731 31.5235 44.2148 32.2266 43.2814 32.2266L 41.3565 32.2266C 40.4231 32.2266 39.6648 31.5235 39.6648 30.6445L 39.6648 29.0625C 39.6648 28.1835 40.4231 27.4804 41.3565 27.4804L 43.2814 27.4804C 44.2148 27.4804 44.9731 28.1835 44.9731 29.0625L 44.9731 30.6445ZM 44.9731 23.0274C 44.9731 23.9063 44.2148 24.6094 43.2814 24.6094L 41.3565 24.6094C 40.4231 24.6094 39.6648 23.9063 39.6648 23.0274L 39.6648 21.4453C 39.6648 20.5664 40.4231 19.8633 41.3565 19.8633L 43.2814 19.8633C 44.2148 19.8633 44.9731 20.5664 44.9731 21.4453L 44.9731 23.0274ZM 44.9731 15.4102C 44.9731 16.2891 44.2148 16.9922 43.2814 16.9922L 41.3565 16.9922C 40.4231 16.9922 39.6648 16.2891 39.6648 15.4102L 39.6648 13.8281C 39.6648 12.9492 40.4231 12.2461 41.3565 12.2461L 43.2814 12.2461C 44.2148 12.2461 44.9731 12.9492 44.9731 13.8281L 44.9731 15.4102ZM 44.9731 7.79302C 44.9731 8.67197 44.2148 9.37507 43.2814 9.37507L 41.3565 9.37507C 40.4231 9.37507 39.6648 8.67197 39.6648 7.79302L 39.6648 6.21097C 39.7232 5.39064 40.4815 4.68754 41.4147 4.68754L 43.3396 4.68754C 44.273 4.68754 45.0313 5.39064 45.0313 6.26959L 45.0313 7.79302L 44.9731 7.79302ZM 46.7229 0L 32.1402 0C 30.8569 0 29.807 1.05465 29.807 2.34377L 29.807 6.85546C 29.807 11.1328 26.3071 14.6485 21.9908 14.6485L 9.39133 14.6485L 9.39133 15.4102C 9.39133 16.2891 8.63303 16.9922 7.69967 16.9922L 5.77476 16.9922C 4.8414 16.9922 4.0831 16.2891 4.0831 15.4102L 4.0831 14.6485L 2.33324 14.6485C 1.04991 14.6485 -9.0396e-09 15.7031 -9.0396e-09 16.9922L -9.0396e-09 72.6562C -9.0396e-09 73.9454 1.04991 75 2.33324 75L 46.6644 75C 47.9478 75 48.9977 73.9454 48.9977 72.6562L 48.9977 2.34377C 49.0562 1.05465 48.0063 0 46.7229 0ZM 9.39148 68.7304C 9.39148 69.6094 8.63318 70.3125 7.69982 70.3125L 5.7749 70.3125C 4.84155 70.3125 4.08325 69.6094 4.08325 68.7304L 4.08325 67.1484C 4.08325 66.2694 4.84155 65.5663 5.7749 65.5663L 7.69982 65.5663C 8.63318 65.5663 9.39148 66.2694 9.39148 67.1484L 9.39148 68.7304ZM 9.39148 61.1132C 9.39148 61.9922 8.63318 62.6953 7.69982 62.6953L 5.7749 62.6953C 4.84155 62.6953 4.08325 61.9922 4.08325 61.1132L 4.08325 59.5312C 4.08325 58.6522 4.84155 57.9491 5.7749 57.9491L 7.69982 57.9491C 8.63318 57.9491 9.39148 58.6522 9.39148 59.5312L 9.39148 61.1132ZM 9.39148 53.4961C 9.39148 54.375 8.63318 55.0781 7.69982 55.0781L 5.7749 55.0781C 4.84155 55.0781 4.08325 54.375 4.08325 53.4961L 4.08325 51.914C 4.08325 51.0351 4.84155 50.332 5.7749 50.332L 7.69982 50.332C 8.63318 50.332 9.39148 51.0351 9.39148 51.914L 9.39148 53.4961ZM 9.39148 45.8789C 9.39148 46.7578 8.63318 47.4609 7.69982 47.4609L 5.7749 47.4609C 4.84155 47.4609 4.08325 46.7578 4.08325 45.8789L 4.08325 44.2968C 4.08325 43.4179 4.84155 42.7148 5.7749 42.7148L 7.69982 42.7148C 8.63318 42.7148 9.39148 43.4179 9.39148 44.2968L 9.39148 45.8789ZM 9.39148 38.2617C 9.39148 39.1407 8.63318 39.8438 7.69982 39.8438L 5.7749 39.8438C 4.84155 39.8438 4.08325 39.1407 4.08325 38.2617L 4.08325 36.6797C 4.08325 35.8007 4.84155 35.0976 5.7749 35.0976L 7.69982 35.0976C 8.63318 35.0976 9.39148 35.8007 9.39148 36.6797L 9.39148 38.2617ZM 9.39148 30.6445C 9.39148 31.5235 8.63318 32.2266 7.69982 32.2266L 5.7749 32.2266C 4.84155 32.2266 4.08325 31.5235 4.08325 30.6445L 4.08325 29.0625C 4.08325 28.1835 4.84155 27.4804 5.7749 27.4804L 7.69982 27.4804C 8.63318 27.4804 9.39148 28.1835 9.39148 29.0625L 9.39148 30.6445ZM 9.39148 23.0274C 9.39148 23.9063 8.63318 24.6094 7.69982 24.6094L 5.7749 24.6094C 4.84155 24.6094 4.08325 23.9063 4.08325 23.0274L 4.08325 21.4453C 4.08325 20.5664 4.84155 19.8633 5.7749 19.8633L 7.69982 19.8633C 8.63318 19.8633 9.39148 20.5664 9.39148 21.4453L 9.39148 23.0274ZM 44.9731 68.7304C 44.9731 69.6094 44.2148 70.3125 43.2814 70.3125L 41.3565 70.3125C 40.4231 70.3125 39.6648 69.6094 39.6648 68.7304L 39.6648 67.1484C 39.6648 66.2694 40.4231 65.5663 41.3565 65.5663L 43.2814 65.5663C 44.2148 65.5663 44.9731 66.2694 44.9731 67.1484L 44.9731 68.7304ZM 44.9731 61.1132C 44.9731 61.9922 44.2148 62.6953 43.2814 62.6953L 41.3565 62.6953C 40.4231 62.6953 39.6648 61.9922 39.6648 61.1132L 39.6648 59.5312C 39.6648 58.6522 40.4231 57.9491 41.3565 57.9491L 43.2814 57.9491C 44.2148 57.9491 44.9731 58.6522 44.9731 59.5312L 44.9731 61.1132ZM 44.9731 53.4961C 44.9731 54.375 44.2148 55.0781 43.2814 55.0781L 41.3565 55.0781C 40.4231 55.0781 39.6648 54.375 39.6648 53.4961L 39.6648 51.914C 39.6648 51.0351 40.4231 50.332 41.3565 50.332L 43.2814 50.332C 44.2148 50.332 44.9731 51.0351 44.9731 51.914L 44.9731 53.4961ZM 44.9731 45.8789C 44.9731 46.7578 44.2148 47.4609 43.2814 47.4609L 41.3565 47.4609C 40.4231 47.4609 39.6648 46.7578 39.6648 45.8789L 39.6648 44.2968C 39.6648 43.4179 40.4231 42.7148 41.3565 42.7148L 43.2814 42.7148C 44.2148 42.7148 44.9731 43.4179 44.9731 44.2968L 44.9731 45.8789ZM 44.9731 38.2617C 44.9731 39.1407 44.2148 39.8438 43.2814 39.8438L 41.3565 39.8438C 40.4231 39.8438 39.6648 39.1407 39.6648 38.2617L 39.6648 36.6797C 39.6648 35.8007 40.4231 35.0976 41.3565 35.0976L 43.2814 35.0976C 44.2148 35.0976 44.9731 35.8007 44.9731 36.6797L 44.9731 38.2617ZM 44.9731 30.6445C 44.9731 31.5235 44.2148 32.2266 43.2814 32.2266L 41.3565 32.2266C 40.4231 32.2266 39.6648 31.5235 39.6648 30.6445L 39.6648 29.0625C 39.6648 28.1835 40.4231 27.4804 41.3565 27.4804L 43.2814 27.4804C 44.2148 27.4804 44.9731 28.1835 44.9731 29.0625L 44.9731 30.6445ZM 44.9731 23.0274C 44.9731 23.9063 44.2148 24.6094 43.2814 24.6094L 41.3565 24.6094C 40.4231 24.6094 39.6648 23.9063 39.6648 23.0274L 39.6648 21.4453C 39.6648 20.5664 40.4231 19.8633 41.3565 19.8633L 43.2814 19.8633C 44.2148 19.8633 44.9731 20.5664 44.9731 21.4453L 44.9731 23.0274ZM 44.9731 15.4102C 44.9731 16.2891 44.2148 16.9922 43.2814 16.9922L 41.3565 16.9922C 40.4231 16.9922 39.6648 16.2891 39.6648 15.4102L 39.6648 13.8281C 39.6648 12.9492 40.4231 12.2461 41.3565 12.2461L 43.2814 12.2461C 44.2148 12.2461 44.9731 12.9492 44.9731 13.8281L 44.9731 15.4102ZM 44.9731 7.79302C 44.9731 8.67197 44.2148 9.37507 43.2814 9.37507L 41.3565 9.37507C 40.4231 9.37507 39.6648 8.67197 39.6648 7.79302L 39.6648 6.21097C 39.7232 5.39064 40.4815 4.68754 41.4147 4.68754L 43.3396 4.68754C 44.273 4.68754 45.0313 5.39064 45.0313 6.26959L 45.0313 7.79302L 44.9731 7.79302Z"/>
<path id="path1_fill" d="M 0 1C 0 0.447715 0.447715 0 1 0L 21 0C 21.5523 0 22 0.447715 22 1L 22 14C 22 14.5523 21.5523 15 21 15L 1 15C 0.447715 15 0 14.5523 0 14L 0 1Z"/>
<path id="path2_fill" d="M 2.08003 0L 0 5L 1.41707 5L 1.80656 4.03175L 3.84516 4.03175L 4.23465 5L 5.73459 5L 3.65456 0L 2.08003 0ZM 2.80929 1.54762L 2.84244 1.54762L 3.4391 3.02381L 2.21262 3.02381L 2.80929 1.54762Z"/>
<path id="path3_fill" d="M 7.54433 3.93651L 7.54433 1.06349L 8.09956 1.06349C 9.01112 1.06349 9.54978 1.5873 9.54978 2.49206C 9.54978 3.4127 9.01112 3.93651 8.09956 3.93651L 7.54433 3.93651ZM 6.13554 5L 8.199 5C 9.93098 5 11 4.06349 11 2.5C 11 0.936508 9.93098 0 8.199 0L 6.13554 0L 6.13554 5Z"/>
</defs>
</svg>
