<svg width="129" height="79" viewBox="0 0 129 79" version="1.1" xmlns="http://www.w3.org/2000/svg" xmlns:xlink="http://www.w3.org/1999/xlink">
<title>post</title>
<desc>Created using Figma</desc>
<g id="Canvas" transform="translate(-19609 -59201)">
<g id="post">
<g id="snapchat (1)">
<g id="Vector">
<use xlink:href="#path0_fill" transform="matrix(0.965926 0.258819 -0.258819 0.965926 19712.5 59235)" fill="#4F4FBD"/>
<use xlink:href="#path1_stroke" transform="matrix(0.965926 0.258819 -0.258819 0.965926 19712.5 59235)" fill="#4F4FBD"/>
</g>
</g>
<g id="instagram-logo">
<g id="Group">
<g id="Vector">
<use xlink:href="#path2_fill" transform="matrix(0.965926 -0.258819 0.258819 0.965926 19609 59207.5)" fill="#4F4FBD"/>
</g>
<g id="Vector">
<use xlink:href="#path3_fill" transform="matrix(0.965926 -0.258819 0.258819 0.965926 19616.4 59211.8)" fill="#4F4FBD"/>
</g>
<g id="Vector">
<use xlink:href="#path4_fill" transform="matrix(0.965926 -0.258819 0.258819 0.965926 19627.1 59207)" fill="#4F4FBD"/>
</g>
</g>
</g>
<g id="snapchat-upload">
<g id="Vector">
<use xlink:href="#path5_fill" transform="translate(19646 59205)" fill="url(#paint5_linear)"/>
</g>
<g id="Vector">
<use xlink:href="#path6_fill" transform="translate(19652.2 59259.2)" fill="#140C42"/>
</g>
<g id="Group">
<g id="Vector">
<use xlink:href="#path7_fill" transform="translate(19652.2 59265.5)" fill="#7D849E"/>
</g>
<g id="Vector">
<use xlink:href="#path6_fill" transform="translate(19652.2 59268.6)" fill="#7D849E"/>
</g>
<g id="Vector">
<use xlink:href="#path8_fill" transform="translate(19652.2 59271.7)" fill="#7D849E"/>
</g>
</g>
<g id="Group">
<g id="Vector">
<use xlink:href="#path9_fill" transform="translate(19651.9 59220.9)" fill="#FFD600"/>
</g>
<g id="Vector">
<use xlink:href="#path10_fill" transform="translate(19651.9 59211.6)" fill="#FF460A"/>
</g>
</g>
<g id="Vector">
<use xlink:href="#path11_fill" transform="translate(19664.4 59211.6)" fill="#140C42"/>
</g>
<g id="Vector">
<use xlink:href="#path12_fill" transform="translate(19661 59228.3)" fill="#FFFFFF"/>
</g>
</g>
</g>
</g>
<defs>
<linearGradient id="paint5_linear" x1="0" y1="0" x2="1" y2="0" gradientUnits="userSpaceOnUse" gradientTransform="matrix(54.5 99.5 -74.625 40.875 43.3125 -26.9375)">
<stop offset="0" stop-color="#FFFFFF"/>
<stop offset="1" stop-color="#EDEDED"/>
</linearGradient>
<path id="path0_fill" d="M 12.9885 1.38615C 16.478 1.38731 19.3847 4.2888 19.389 7.78239C 19.39 8.60066 19.4152 9.35417 19.4615 10.0483C 19.49 10.4766 19.8466 10.7939 20.2556 10.7939C 20.3158 10.7939 20.3772 10.7871 20.4388 10.7726L 21.532 10.5167C 21.5785 10.5058 21.6252 10.5006 21.6713 10.5006C 21.9489 10.5006 22.2046 10.69 22.2669 10.9706C 22.355 11.3672 22.1326 11.7678 21.7479 11.9026L 20.0885 12.5716C 19.6696 12.7405 19.4446 13.1958 19.5626 13.6314C 20.8938 18.5469 24.6122 18.0357 24.6122 18.6761C 24.6122 19.4803 21.8095 19.5939 21.5563 19.8468C 21.3031 20.0997 21.5453 21.3273 20.9795 21.5649C 20.8729 21.6097 20.7214 21.6253 20.5366 21.6253C 20.1104 21.6253 19.5078 21.5422 18.8726 21.5422C 18.3216 21.5422 17.7461 21.6047 17.2402 21.8381C 15.898 22.4574 14.6041 23.614 13 23.614C 11.396 23.614 10.102 22.4574 8.75988 21.8381C 8.25385 21.6047 7.67855 21.5422 7.1275 21.5422C 6.49235 21.5422 5.88957 21.6253 5.46349 21.6253C 5.27879 21.6253 5.12712 21.6096 5.02053 21.5649C 4.45477 21.3273 4.69699 20.0997 4.44378 19.8468C 4.19058 19.5939 1.38788 19.4802 1.38788 18.6761C 1.38788 18.0356 5.10625 18.5468 6.4375 13.6314C 6.55547 13.1958 6.33047 12.7405 5.9115 12.5715L 4.25214 11.9025C 3.86737 11.7678 3.64492 11.3671 3.73307 10.9706C 3.79542 10.6899 4.05107 10.5005 4.3287 10.5005C 4.37478 10.5005 4.42152 10.5057 4.46804 10.5166L 5.56119 10.7726C 5.62282 10.787 5.68416 10.7939 5.74439 10.7939C 6.15332 10.7939 6.51001 10.4764 6.53854 10.0482C 6.58479 9.35411 6.6101 8.6006 6.6111 7.78233C 6.61532 4.28879 9.4989 1.38737 12.9885 1.38615ZM 12.9889 -1.26906e-09L 12.9884 -1.26906e-09L 12.9879 -1.26906e-09C 11.9463 0.000332674 10.9317 0.209364 9.97228 0.621327C 9.05133 1.01671 8.22249 1.58049 7.50878 2.29701C 6.79602 3.0126 6.23509 3.84334 5.8416 4.76618C 5.43245 5.72579 5.22438 6.74 5.22311 7.78067C 5.2225 8.2916 5.21189 8.78745 5.19146 9.26229L 4.78476 9.16704C 4.63553 9.13211 4.48209 9.11436 4.32881 9.11431C 3.88618 9.11425 3.44956 9.26368 3.09937 9.53503C 2.73402 9.81814 2.47782 10.2213 2.37806 10.6702C 2.14062 11.7388 2.73141 12.8176 3.75522 13.197L 4.97306 13.688C 4.16665 16.1601 2.67967 16.6338 1.67834 16.9529C 1.41264 17.0376 1.18314 17.1107 0.964635 17.219C 0.0939875 17.6506 0 18.3818 0 18.6761C 0 19.2398 0.26714 19.7542 0.752288 20.1245C 0.993836 20.3089 1.29306 20.4611 1.66701 20.5897C 2.1767 20.7649 2.76755 20.8762 3.24776 20.9653C 3.27096 21.143 3.305 21.3339 3.36234 21.5263C 3.60045 22.3253 4.10292 22.6831 4.48253 22.8425C 4.84271 22.9939 5.21489 23.0113 5.46349 23.0113C 5.70664 23.0113 5.96368 22.9923 6.23582 22.9722C 6.52777 22.9506 6.82966 22.9283 7.1275 22.9283C 7.58906 22.9283 7.93264 22.9833 8.17785 23.0964C 8.51455 23.2517 8.87163 23.4612 9.24969 23.6829C 10.3021 24.3003 11.495 25 13 25C 14.505 25 15.6979 24.3003 16.7503 23.6829C 17.1284 23.4612 17.4854 23.2517 17.8222 23.0964C 18.0674 22.9832 18.411 22.9283 18.8726 22.9283C 19.1704 22.9283 19.4723 22.9506 19.7642 22.9722C 20.0363 22.9923 20.2934 23.0113 20.5365 23.0113C 20.7851 23.0113 21.1572 22.9939 21.5175 22.8425C 21.8971 22.6831 22.3996 22.3253 22.6377 21.5263C 22.695 21.3339 22.7291 21.143 22.7522 20.9653C 23.2325 20.8761 23.8234 20.7649 24.333 20.5897C 24.707 20.4611 25.0062 20.3089 25.2477 20.1245C 25.7328 19.7542 26 19.2398 26 18.6761C 26 18.3818 25.906 17.6506 25.0353 17.2191C 24.8167 17.1108 24.5872 17.0376 24.3216 16.953C 23.3202 16.6339 21.8332 16.1601 21.0268 13.688L 22.2446 13.1971C 23.2684 12.8177 23.8593 11.7388 23.6218 10.6702C 23.5221 10.2213 23.2659 9.81814 22.9005 9.53503C 22.5503 9.26373 22.1138 9.11431 21.6713 9.11431C 21.518 9.11431 21.3646 9.13205 21.2152 9.16698L 20.8085 9.26224C 20.7881 8.78745 20.7775 8.2916 20.7768 7.78061C 20.7756 6.73912 20.5658 5.7239 20.1534 4.76302C 19.7575 3.84063 19.1935 3.0101 18.4772 2.29446C 17.7609 1.57888 16.9297 1.01571 16.0068 0.620661C 15.0456 0.209197 14.0302 0.00038812 12.9889 -1.26906e-09Z"/>
<path id="path1_stroke" d="M 12.9885 1.38615L 12.9885 1.26115L 12.9884 1.26115L 12.9885 1.38615ZM 19.389 7.78239L 19.264 7.78254L 19.264 7.78254L 19.389 7.78239ZM 19.4615 10.0483L 19.3367 10.0566L 19.3367 10.0566L 19.4615 10.0483ZM 20.4388 10.7726L 20.4673 10.8944L 20.4673 10.8943L 20.4388 10.7726ZM 21.532 10.5167L 21.5605 10.6384L 21.5605 10.6384L 21.532 10.5167ZM 22.2669 10.9706L 22.1449 10.9977L 22.1449 10.9977L 22.2669 10.9706ZM 21.7479 11.9026L 21.7065 11.7845L 21.7011 11.7866L 21.7479 11.9026ZM 20.0885 12.5716L 20.1352 12.6875L 20.1352 12.6875L 20.0885 12.5716ZM 19.5626 13.6314L 19.6832 13.5988L 19.6832 13.5988L 19.5626 13.6314ZM 20.9795 21.5649L 20.9311 21.4497L 20.9311 21.4497L 20.9795 21.5649ZM 17.2402 21.8381L 17.2925 21.9516L 17.2925 21.9516L 17.2402 21.8381ZM 8.75988 21.8381L 8.70751 21.9516L 8.70751 21.9516L 8.75988 21.8381ZM 5.02053 21.5649L 4.97212 21.6802L 4.97215 21.6802L 5.02053 21.5649ZM 6.4375 13.6314L 6.31685 13.5987L 6.31685 13.5987L 6.4375 13.6314ZM 5.9115 12.5715L 5.95824 12.4556L 5.95824 12.4556L 5.9115 12.5715ZM 4.25214 11.9025L 4.29893 11.7865L 4.29345 11.7845L 4.25214 11.9025ZM 3.73307 10.9706L 3.85509 10.9977L 3.8551 10.9977L 3.73307 10.9706ZM 4.3287 10.5005L 4.32867 10.6255L 4.3287 10.6255L 4.3287 10.5005ZM 4.46804 10.5166L 4.43947 10.6383L 4.43955 10.6384L 4.46804 10.5166ZM 5.56119 10.7726L 5.5327 10.8943L 5.53272 10.8943L 5.56119 10.7726ZM 6.53854 10.0482L 6.66327 10.0565L 6.66327 10.0565L 6.53854 10.0482ZM 6.6111 7.78233L 6.7361 7.78248L 6.7361 7.78248L 6.6111 7.78233ZM 12.9889 -1.26906e-09L 12.989 -0.125L 12.9889 -0.125L 12.9889 -1.26906e-09ZM 12.9879 -1.26906e-09L 12.9879 -0.125L 12.9879 -0.125L 12.9879 -1.26906e-09ZM 9.97228 0.621327L 10.0216 0.736188L 10.0216 0.736186L 9.97228 0.621327ZM 7.50878 2.29701L 7.42022 2.2088L 7.42022 2.2088L 7.50878 2.29701ZM 5.8416 4.76618L 5.72662 4.71716L 5.72662 4.71716L 5.8416 4.76618ZM 5.22311 7.78067L 5.09811 7.78051L 5.09811 7.78052L 5.22311 7.78067ZM 5.19146 9.26229L 5.16296 9.384L 5.30986 9.4184L 5.31635 9.26766L 5.19146 9.26229ZM 4.78476 9.16704L 4.81326 9.04533L 4.81325 9.04533L 4.78476 9.16704ZM 4.32881 9.11431L 4.32885 8.98931L 4.32882 8.98931L 4.32881 9.11431ZM 3.09937 9.53503L 3.0228 9.43622L 3.0228 9.43622L 3.09937 9.53503ZM 2.37806 10.6702L 2.25603 10.6431L 2.25603 10.6431L 2.37806 10.6702ZM 3.75522 13.197L 3.80198 13.081L 3.79866 13.0798L 3.75522 13.197ZM 4.97306 13.688L 5.0919 13.7267L 5.12812 13.6157L 5.0198 13.5721L 4.97306 13.688ZM 1.67834 16.9529L 1.71629 17.072L 1.71629 17.072L 1.67834 16.9529ZM 0.964635 17.219L 0.90913 17.107L 0.909117 17.107L 0.964635 17.219ZM 0.752288 20.1245L 0.828142 20.0252L 0.828133 20.0252L 0.752288 20.1245ZM 1.66701 20.5897L 1.70766 20.4715L 1.70766 20.4715L 1.66701 20.5897ZM 3.24776 20.9653L 3.37171 20.9491L 3.35994 20.859L 3.27058 20.8424L 3.24776 20.9653ZM 3.36234 21.5263L 3.48214 21.4906L 3.48213 21.4906L 3.36234 21.5263ZM 4.48253 22.8425L 4.53094 22.7273L 4.53093 22.7273L 4.48253 22.8425ZM 6.23582 22.9722L 6.24504 23.0968L 6.24505 23.0968L 6.23582 22.9722ZM 8.17785 23.0964L 8.23023 22.9829L 8.23021 22.9829L 8.17785 23.0964ZM 9.24969 23.6829L 9.31293 23.5751L 9.31293 23.5751L 9.24969 23.6829ZM 16.7503 23.6829L 16.8136 23.7908L 16.8136 23.7908L 16.7503 23.6829ZM 17.8222 23.0964L 17.8746 23.2099L 17.8746 23.2099L 17.8222 23.0964ZM 19.7642 22.9722L 19.7734 22.8475L 19.7734 22.8475L 19.7642 22.9722ZM 21.5175 22.8425L 21.4691 22.7273L 21.4691 22.7273L 21.5175 22.8425ZM 22.6377 21.5263L 22.5179 21.4906L 22.5179 21.4906L 22.6377 21.5263ZM 22.7522 20.9653L 22.7294 20.8424L 22.64 20.859L 22.6283 20.9492L 22.7522 20.9653ZM 24.333 20.5897L 24.2923 20.4715L 24.2923 20.4715L 24.333 20.5897ZM 25.2477 20.1245L 25.1719 20.0252L 25.1719 20.0252L 25.2477 20.1245ZM 25.0353 17.2191L 25.0908 17.1071L 25.0908 17.1071L 25.0353 17.2191ZM 24.3216 16.953L 24.3595 16.8339L 24.3595 16.8339L 24.3216 16.953ZM 21.0268 13.688L 20.9801 13.5721L 20.8718 13.6158L 20.908 13.7268L 21.0268 13.688ZM 22.2446 13.1971L 22.2012 13.0798L 22.1979 13.0811L 22.2446 13.1971ZM 23.6218 10.6702L 23.7439 10.6431L 23.7439 10.6431L 23.6218 10.6702ZM 22.9005 9.53503L 22.9771 9.43622L 22.9771 9.43621L 22.9005 9.53503ZM 21.2152 9.16698L 21.1868 9.04527L 21.1867 9.04527L 21.2152 9.16698ZM 20.8085 9.26224L 20.6836 9.26761L 20.6901 9.41835L 20.837 9.38394L 20.8085 9.26224ZM 20.7768 7.78061L 20.9018 7.78046L 20.9018 7.78046L 20.7768 7.78061ZM 20.1534 4.76302L 20.0385 4.81232L 20.0385 4.81233L 20.1534 4.76302ZM 18.4772 2.29446L 18.3888 2.3829L 18.4772 2.29446ZM 16.0068 0.620661L 16.056 0.505748L 16.056 0.505747L 16.0068 0.620661ZM 12.9884 1.51115C 16.409 1.51229 19.2598 4.35792 19.264 7.78254L 19.514 7.78223C 19.5097 4.21967 16.547 1.26233 12.9885 1.26115L 12.9884 1.51115ZM 19.264 7.78254C 19.265 8.60327 19.2903 9.35952 19.3367 10.0566L 19.5862 10.04C 19.5401 9.34882 19.515 8.59804 19.514 7.78223L 19.264 7.78254ZM 19.3367 10.0566C 19.3697 10.552 19.7823 10.9189 20.2556 10.9189L 20.2556 10.6689C 19.911 10.6689 19.6102 10.4011 19.5862 10.04L 19.3367 10.0566ZM 20.2556 10.9189C 20.3254 10.9189 20.3963 10.911 20.4673 10.8944L 20.4103 10.6509C 20.3581 10.6631 20.3063 10.6689 20.2556 10.6689L 20.2556 10.9189ZM 20.4673 10.8943L 21.5605 10.6384L 21.5035 10.395L 20.4103 10.6509L 20.4673 10.8943ZM 21.5605 10.6384C 21.5975 10.6297 21.6346 10.6256 21.6713 10.6256L 21.6713 10.3756C 21.6157 10.3756 21.5594 10.3818 21.5034 10.395L 21.5605 10.6384ZM 21.6713 10.6256C 21.894 10.6256 22.096 10.7778 22.1449 10.9977L 22.389 10.9435C 22.3131 10.6022 22.0039 10.3756 21.6713 10.3756L 21.6713 10.6256ZM 22.1449 10.9977C 22.2193 11.3324 22.0315 11.6708 21.7065 11.7846L 21.7892 12.0205C 22.2336 11.8649 22.4908 11.4019 22.389 10.9435L 22.1449 10.9977ZM 21.7011 11.7866L 20.0418 12.4556L 20.1352 12.6875L 21.7946 12.0185L 21.7011 11.7866ZM 20.0418 12.4556C 19.5638 12.6483 19.3075 13.1677 19.4419 13.6641L 19.6832 13.5988C 19.5817 13.224 19.7753 12.8326 20.1352 12.6875L 20.0418 12.4556ZM 19.4419 13.6641C 20.1171 16.1571 21.4033 17.2859 22.5292 17.868C 23.0882 18.157 23.6054 18.3099 23.9721 18.4279C 24.1591 18.4881 24.2978 18.5366 24.3899 18.5868C 24.486 18.6393 24.4872 18.6693 24.4872 18.6761L 24.7372 18.6761C 24.7372 18.5228 24.6221 18.4287 24.5097 18.3674C 24.3932 18.3038 24.2311 18.2487 24.0487 18.19C 23.6766 18.0702 23.1809 17.9235 22.644 17.6459C 21.5779 17.0947 20.3393 16.0213 19.6832 13.5988L 19.4419 13.6641ZM 24.4872 18.6761C 24.4872 18.7365 24.462 18.7968 24.401 18.8605C 24.3384 18.9259 24.2428 18.9894 24.1163 19.05C 23.8634 19.1711 23.5171 19.2661 23.1524 19.3461C 22.7874 19.4261 22.4201 19.4878 22.1164 19.5476C 21.9667 19.5771 21.8321 19.6063 21.7259 19.6367C 21.6728 19.6519 21.624 19.6682 21.5826 19.6861C 21.5436 19.703 21.5005 19.7258 21.4679 19.7584L 21.6446 19.9352C 21.6437 19.9362 21.6521 19.9284 21.682 19.9155C 21.7095 19.9036 21.7469 19.8907 21.7947 19.877C 21.8902 19.8497 22.0161 19.8222 22.1647 19.7929C 22.4578 19.7352 22.8387 19.6708 23.2059 19.5903C 23.5736 19.5097 23.9438 19.4098 24.2243 19.2755C 24.3645 19.2083 24.4899 19.1291 24.5815 19.0334C 24.6748 18.936 24.7372 18.8167 24.7372 18.6761L 24.4872 18.6761ZM 21.4679 19.7584C 21.4161 19.8102 21.3844 19.8785 21.363 19.9453C 21.3411 20.0134 21.3264 20.091 21.3151 20.1711C 21.2935 20.3248 21.2804 20.5256 21.2609 20.6975C 21.2402 20.8795 21.2109 21.0493 21.1566 21.1855C 21.1028 21.3204 21.0304 21.408 20.9311 21.4497L 21.0279 21.6802C 21.2116 21.603 21.321 21.448 21.3888 21.2781C 21.4561 21.1094 21.4882 20.9119 21.5093 20.7257C 21.5316 20.5294 21.5408 20.361 21.5627 20.206C 21.5731 20.1317 21.5855 20.0701 21.601 20.0217C 21.617 19.972 21.6332 19.9467 21.6446 19.9352L 21.4679 19.7584ZM 20.9311 21.4497C 20.849 21.4841 20.7191 21.5003 20.5366 21.5003L 20.5366 21.7503C 20.7236 21.7503 20.8967 21.7353 21.0279 21.6801L 20.9311 21.4497ZM 20.5366 21.5003C 20.3293 21.5003 20.078 21.48 19.7921 21.4591C 19.5086 21.4383 19.1951 21.4172 18.8726 21.4172L 18.8726 21.6672C 19.1852 21.6672 19.4907 21.6877 19.7738 21.7084C 20.0546 21.729 20.3177 21.7503 20.5366 21.7503L 20.5366 21.5003ZM 18.8726 21.4172C 18.3141 21.4172 17.7176 21.4802 17.1878 21.7246L 17.2925 21.9516C 17.7746 21.7292 18.329 21.6672 18.8726 21.6672L 18.8726 21.4172ZM 17.1878 21.7246C 16.8464 21.8822 16.5094 22.0732 16.174 22.2689C 15.8371 22.4655 15.5027 22.6661 15.1598 22.8478C 14.4745 23.2109 13.7717 23.489 13 23.489L 13 23.739C 13.8324 23.739 14.5786 23.4387 15.2769 23.0687C 15.6257 22.8839 15.9667 22.6793 16.3 22.4848C 16.6348 22.2895 16.9629 22.1037 17.2925 21.9516L 17.1878 21.7246ZM 13 23.489C 12.2284 23.489 11.5255 23.2109 10.8403 22.8478C 10.4973 22.6661 10.163 22.4655 9.82604 22.2689C 9.49062 22.0732 9.15365 21.8822 8.81224 21.7246L 8.70751 21.9516C 9.03717 22.1037 9.36526 22.2895 9.70005 22.4848C 10.0333 22.6793 10.3744 22.8839 10.7232 23.0687C 11.4215 23.4387 12.1676 23.739 13 23.739L 13 23.489ZM 8.81225 21.7246C 8.28233 21.4801 7.68603 21.4172 7.1275 21.4172L 7.1275 21.6672C 7.67107 21.6672 8.22538 21.7292 8.70751 21.9516L 8.81225 21.7246ZM 7.1275 21.4172C 6.80495 21.4172 6.49147 21.4383 6.20796 21.4591C 5.92208 21.48 5.67074 21.5003 5.46349 21.5003L 5.46349 21.7503C 5.68232 21.7503 5.94541 21.729 6.22623 21.7084C 6.50942 21.6877 6.81491 21.6672 7.1275 21.6672L 7.1275 21.4172ZM 5.46349 21.5003C 5.28108 21.5003 5.15097 21.4841 5.06891 21.4496L 4.97215 21.6802C 5.10327 21.7352 5.27649 21.7503 5.46349 21.7503L 5.46349 21.5003ZM 5.06894 21.4497C 4.9697 21.408 4.89727 21.3204 4.84345 21.1855C 4.78912 21.0493 4.75982 20.8795 4.73915 20.6975C 4.71963 20.5256 4.70659 20.3248 4.68494 20.1711C 4.67366 20.091 4.65894 20.0134 4.63706 19.9453C 4.61562 19.8785 4.58396 19.8102 4.53212 19.7584L 4.35544 19.9352C 4.3669 19.9467 4.38306 19.972 4.39905 20.0217C 4.4146 20.0701 4.42692 20.1317 4.43738 20.206C 4.45921 20.361 4.46845 20.5294 4.49075 20.7257C 4.51189 20.9119 4.54395 21.1094 4.61124 21.2781C 4.67903 21.448 4.78848 21.603 4.97212 21.6802L 5.06894 21.4497ZM 4.53212 19.7584C 4.49951 19.7258 4.45643 19.703 4.41744 19.6861C 4.37609 19.6682 4.3273 19.6519 4.27419 19.6367C 4.16793 19.6063 4.03331 19.5771 3.88364 19.5476C 3.57997 19.4878 3.2127 19.4261 2.84765 19.346C 2.48299 19.2661 2.13667 19.171 1.88374 19.0499C 1.75729 18.9894 1.66168 18.9258 1.5991 18.8604C 1.5381 18.7967 1.51288 18.7365 1.51288 18.6761L 1.26288 18.6761C 1.26288 18.8167 1.32525 18.9359 1.41852 19.0333C 1.51019 19.1291 1.63553 19.2083 1.77578 19.2754C 2.05627 19.4097 2.42645 19.5096 2.79411 19.5903C 3.16139 19.6708 3.54226 19.7352 3.83531 19.7929C 3.984 19.8222 4.10988 19.8497 4.20536 19.877C 4.25312 19.8907 4.29051 19.9036 4.31803 19.9155C 4.34791 19.9284 4.3564 19.9362 4.35544 19.9352L 4.53212 19.7584ZM 1.51288 18.6761C 1.51288 18.6692 1.51403 18.6392 1.61015 18.5867C 1.70223 18.5365 1.841 18.4881 2.02799 18.4279C 2.39471 18.3098 2.91183 18.1569 3.47088 17.8679C 4.59673 17.2858 5.883 16.157 6.55816 13.6641L 6.31685 13.5987C 5.66075 16.0212 4.42221 17.0946 3.35606 17.6458C 2.81911 17.9234 2.32345 18.0701 1.95137 18.1899C 1.76896 18.2486 1.60684 18.3037 1.49037 18.3673C 1.37793 18.4287 1.26288 18.5228 1.26288 18.6761L 1.51288 18.6761ZM 6.55816 13.6641C 6.6926 13.1677 6.43621 12.6483 5.95824 12.4556L 5.86475 12.6875C 6.22473 12.8326 6.41835 13.224 6.31685 13.5987L 6.55816 13.6641ZM 5.95824 12.4556L 4.29888 11.7866L 4.2054 12.0184L 5.86476 12.6875L 5.95824 12.4556ZM 4.29345 11.7845C 3.96842 11.6707 3.78069 11.3324 3.85509 10.9977L 3.61105 10.9435C 3.50914 11.4019 3.76631 11.8648 4.21083 12.0205L 4.29345 11.7845ZM 3.8551 10.9977C 3.90396 10.7777 4.106 10.6255 4.32867 10.6255L 4.32872 10.3755C 3.99613 10.3754 3.68687 10.6021 3.61105 10.9435L 3.8551 10.9977ZM 4.3287 10.6255C 4.36534 10.6255 4.40249 10.6297 4.43947 10.6383L 4.49661 10.395C 4.44055 10.3818 4.38421 10.3755 4.3287 10.3755L 4.3287 10.6255ZM 4.43955 10.6384L 5.5327 10.8943L 5.58969 10.6509L 4.49654 10.3949L 4.43955 10.6384ZM 5.53272 10.8943C 5.60371 10.9109 5.67461 10.9189 5.74439 10.9189L 5.74439 10.6689C 5.69371 10.6689 5.64192 10.6631 5.58967 10.6509L 5.53272 10.8943ZM 5.74439 10.9189C 6.21767 10.9189 6.63026 10.5519 6.66327 10.0565L 6.41382 10.0399C 6.38976 10.401 6.08897 10.6689 5.74439 10.6689L 5.74439 10.9189ZM 6.66327 10.0565C 6.70971 9.35947 6.7351 8.60322 6.7361 7.78248L 6.4861 7.78218C 6.4851 8.59798 6.45987 9.34875 6.41382 10.0399L 6.66327 10.0565ZM 6.7361 7.78248C 6.74024 4.35734 9.56847 1.51234 12.9885 1.51115L 12.9884 1.26115C 9.42933 1.26239 6.4904 4.22025 6.4861 7.78218L 6.7361 7.78248ZM 12.9889 -0.125L 12.9884 -0.125L 12.9884 0.125L 12.9889 0.125L 12.9889 -0.125ZM 12.9884 -0.125L 12.9879 -0.125L 12.9879 0.125L 12.9884 0.125L 12.9884 -0.125ZM 12.9879 -0.125C 11.9293 -0.124662 10.8979 0.0878351 9.92296 0.506468L 10.0216 0.736186C 10.9655 0.330892 11.9634 0.125327 12.988 0.125L 12.9879 -0.125ZM 9.92296 0.506465C 8.98722 0.908203 8.14508 1.48107 7.42022 2.2088L 7.59735 2.38523C 8.29989 1.6799 9.11544 1.12522 10.0216 0.736188L 9.92296 0.506465ZM 7.42022 2.2088C 6.69632 2.93557 6.12639 3.77959 5.72662 4.71716L 5.95659 4.81521C 6.3438 3.9071 6.89572 3.08963 7.59735 2.38523L 7.42022 2.2088ZM 5.72662 4.71716C 5.3109 5.69218 5.0994 6.72301 5.09811 7.78051L 5.34811 7.78082C 5.34936 6.75699 5.55401 5.7594 5.95659 4.81521L 5.72662 4.71716ZM 5.09811 7.78052C 5.0975 8.28983 5.08693 8.78394 5.06658 9.25692L 5.31635 9.26766C 5.33686 8.79097 5.34749 8.29337 5.34811 7.78082L 5.09811 7.78052ZM 5.21997 9.14058L 4.81326 9.04533L 4.75625 9.28874L 5.16296 9.384L 5.21997 9.14058ZM 4.81325 9.04533C 4.65469 9.00821 4.4917 8.98937 4.32885 8.98931L 4.32876 9.23931C 4.47247 9.23936 4.61637 9.256 4.75627 9.28875L 4.81325 9.04533ZM 4.32882 8.98931C 3.85845 8.98925 3.39489 9.14791 3.0228 9.43622L 3.17593 9.63384C 3.50423 9.37945 3.91392 9.23925 4.32879 9.23931L 4.32882 8.98931ZM 3.0228 9.43622C 2.63454 9.73709 2.36216 10.1655 2.25603 10.6431L 2.50008 10.6973C 2.59348 10.277 2.8335 9.89919 3.17593 9.63384L 3.0228 9.43622ZM 2.25603 10.6431C 2.00499 11.7729 2.6296 12.9132 3.71179 13.3142L 3.79866 13.0798C 2.83322 12.7221 2.27624 11.7048 2.50008 10.6973L 2.25603 10.6431ZM 3.70849 13.3129L 4.92633 13.8039L 5.0198 13.5721L 3.80196 13.0811L 3.70849 13.3129ZM 4.85423 13.6492C 4.4578 14.8645 3.89771 15.5791 3.3218 16.0294C 2.74362 16.4814 2.14135 16.6742 1.64039 16.8338L 1.71629 17.072C 2.21666 16.9126 2.85855 16.7089 3.47579 16.2263C 4.09531 15.7419 4.68192 14.9836 5.0919 13.7267L 4.85423 13.6492ZM 1.64039 16.8338C 1.37649 16.9179 1.13765 16.9938 0.90913 17.107L 1.02014 17.331C 1.22864 17.2277 1.4488 17.1573 1.71629 17.072L 1.64039 16.8338ZM 0.909117 17.107C -0.0209039 17.568 -0.125 18.3565 -0.125 18.6761L 0.125 18.6761C 0.125 18.407 0.208879 17.7332 1.02015 17.331L 0.909117 17.107ZM -0.125 18.6761C -0.125 19.2823 0.16327 19.8322 0.676444 20.2239L 0.828133 20.0252C 0.371009 19.6762 0.125 19.1972 0.125 18.6761L -0.125 18.6761ZM 0.676435 20.2239C 0.931291 20.4185 1.24336 20.5762 1.62637 20.7079L 1.70766 20.4715C 1.34277 20.346 1.05638 20.1994 0.828142 20.0252L 0.676435 20.2239ZM 1.62637 20.7079C 2.14624 20.8866 2.74624 20.9993 3.22494 21.0882L 3.27058 20.8424C 2.78886 20.753 2.20716 20.6432 1.70766 20.4715L 1.62637 20.7079ZM 3.12381 20.9815C 3.14753 21.1632 3.18267 21.3611 3.24255 21.562L 3.48213 21.4906C 3.42733 21.3067 3.39439 21.1229 3.37171 20.9491L 3.12381 20.9815ZM 3.24255 21.562C 3.49328 22.4034 4.0268 22.7867 4.43413 22.9578L 4.53093 22.7273C 4.17903 22.5795 3.70761 22.2473 3.48214 21.4906L 3.24255 21.562ZM 4.43412 22.9578C 4.81786 23.119 5.21044 23.1363 5.46349 23.1363L 5.46349 22.8863C 5.21934 22.8863 4.86757 22.8687 4.53094 22.7273L 4.43412 22.9578ZM 5.46349 23.1363C 5.71212 23.1363 5.97394 23.1169 6.24504 23.0968L 6.2266 22.8475C 5.95342 22.8677 5.70117 22.8863 5.46349 22.8863L 5.46349 23.1363ZM 6.24505 23.0968C 6.53776 23.0752 6.83505 23.0533 7.1275 23.0533L 7.1275 22.8033C 6.82427 22.8033 6.51778 22.8259 6.22658 22.8475L 6.24505 23.0968ZM 7.1275 23.0533C 7.58205 23.0533 7.90443 23.1079 8.1255 23.2099L 8.23021 22.9829C 7.96086 22.8586 7.59607 22.8033 7.1275 22.8033L 7.1275 23.0533ZM 8.12548 23.2099C 8.45551 23.3622 8.80699 23.5682 9.18645 23.7908L 9.31293 23.5751C 8.93627 23.3542 8.5736 23.1413 8.23023 22.9829L 8.12548 23.2099ZM 9.18645 23.7908C 10.2358 24.4063 11.4565 25.125 13 25.125L 13 24.875C 11.5335 24.875 10.3685 24.1942 9.31293 23.5751L 9.18645 23.7908ZM 13 25.125C 14.5436 25.125 15.7642 24.4063 16.8136 23.7908L 16.6871 23.5751C 15.6315 24.1942 14.4665 24.875 13 24.875L 13 25.125ZM 16.8136 23.7908C 17.193 23.5682 17.5445 23.3622 17.8746 23.2099L 17.7698 22.9829C 17.4264 23.1413 17.0637 23.3541 16.6871 23.5751L 16.8136 23.7908ZM 17.8746 23.2099C 18.0956 23.1079 18.418 23.0533 18.8726 23.0533L 18.8726 22.8033C 18.404 22.8033 18.0392 22.8586 17.7698 22.9829L 17.8746 23.2099ZM 18.8726 23.0533C 19.165 23.0533 19.4623 23.0752 19.755 23.0968L 19.7734 22.8475C 19.4823 22.826 19.1758 22.8033 18.8726 22.8033L 18.8726 23.0533ZM 19.755 23.0968C 20.0261 23.1169 20.2879 23.1363 20.5365 23.1363L 20.5365 22.8863C 20.2988 22.8863 20.0466 22.8677 19.7734 22.8475L 19.755 23.0968ZM 20.5365 23.1363C 20.7896 23.1363 21.1821 23.119 21.5659 22.9578L 21.4691 22.7273C 21.1324 22.8687 20.7807 22.8863 20.5365 22.8863L 20.5365 23.1363ZM 21.5659 22.9578C 21.9732 22.7867 22.5067 22.4034 22.7575 21.562L 22.5179 21.4906C 22.2924 22.2473 21.821 22.5795 21.4691 22.7273L 21.5659 22.9578ZM 22.7575 21.562C 22.8173 21.3611 22.8525 21.1632 22.8762 20.9815L 22.6283 20.9492C 22.6057 21.1229 22.5727 21.3067 22.5179 21.4906L 22.7575 21.562ZM 22.7751 21.0882C 23.2537 20.9993 23.8538 20.8866 24.3736 20.7079L 24.2923 20.4715C 23.7929 20.6432 23.2112 20.7529 22.7294 20.8424L 22.7751 21.0882ZM 24.3736 20.7079C 24.7567 20.5762 25.0687 20.4185 25.3236 20.2239L 25.1719 20.0252C 24.9436 20.1994 24.6573 20.346 24.2923 20.4715L 24.3736 20.7079ZM 25.3236 20.2239C 25.8367 19.8322 26.125 19.2823 26.125 18.6761L 25.875 18.6761C 25.875 19.1972 25.6289 19.6762 25.1719 20.0252L 25.3236 20.2239ZM 26.125 18.6761C 26.125 18.3565 26.0209 17.568 25.0908 17.1071L 24.9797 17.3311C 25.7911 17.7332 25.875 18.407 25.875 18.6761L 26.125 18.6761ZM 25.0908 17.1071C 24.8622 16.9938 24.6234 16.918 24.3595 16.8339L 24.2836 17.0721C 24.5511 17.1573 24.7712 17.2277 24.9797 17.3311L 25.0908 17.1071ZM 24.3595 16.8339C 23.8585 16.6743 23.2563 16.4815 22.6781 16.0294C 22.1022 15.5791 21.5421 14.8646 21.1457 13.6493L 20.908 13.7268C 21.318 14.9836 21.9046 15.742 22.5241 16.2264C 23.1413 16.709 23.7832 16.9126 24.2836 17.0721L 24.3595 16.8339ZM 21.0736 13.804L 22.2913 13.313L 22.1979 13.0811L 20.9801 13.5721L 21.0736 13.804ZM 22.288 13.3143C 23.3702 12.9133 23.9949 11.7729 23.7439 10.6431L 23.4998 10.6973C 23.7237 11.7048 23.1666 12.7221 22.2012 13.0799L 22.288 13.3143ZM 23.7439 10.6431C 23.6377 10.1655 23.3654 9.73709 22.9771 9.43622L 22.824 9.63384C 23.1664 9.89919 23.4064 10.277 23.4998 10.6973L 23.7439 10.6431ZM 22.9771 9.43621C 22.605 9.14797 22.1416 8.98931 21.6713 8.98931L 21.6713 9.23931C 22.0861 9.23931 22.4957 9.3795 22.824 9.63385L 22.9771 9.43621ZM 21.6713 8.98931C 21.5084 8.98931 21.3454 9.00816 21.1868 9.04527L 21.2437 9.2887C 21.3837 9.25594 21.5276 9.23931 21.6713 9.23931L 21.6713 8.98931ZM 21.1867 9.04527L 20.78 9.14053L 20.837 9.38394L 21.2437 9.28869L 21.1867 9.04527ZM 20.9334 9.25686C 20.913 8.78394 20.9024 8.28983 20.9018 7.78046L 20.6518 7.78076C 20.6525 8.29337 20.6631 8.79097 20.6836 9.26761L 20.9334 9.25686ZM 20.9018 7.78046C 20.9005 6.72199 20.6873 5.69007 20.2683 4.71372L 20.0385 4.81233C 20.4443 5.75774 20.6506 6.75624 20.6518 7.78077L 20.9018 7.78046ZM 20.2683 4.71372C 19.8661 3.77658 19.293 2.9328 18.5655 2.20603L 18.3888 2.3829C 19.0941 3.0874 19.649 3.90467 20.0385 4.81232L 20.2683 4.71372ZM 18.5655 2.20603C 17.8381 1.47931 16.9936 0.907111 16.056 0.505748L 15.9577 0.735575C 16.8657 1.12432 17.6837 1.67845 18.3888 2.3829L 18.5655 2.20603ZM 16.056 0.505747C 15.0793 0.0876623 14.0472 -0.124606 12.989 -0.125L 12.9889 0.125C 14.0132 0.125382 15.0119 0.330732 15.9577 0.735576L 16.056 0.505747Z"/>
<path id="path2_fill" d="M 18.1008 0L 6.89895 0C 3.09487 0 0 3.09502 0 6.8991L 0 18.1009C 0 21.9051 3.09487 25 6.89895 25L 18.1008 25C 21.9051 25 25 21.905 25 18.1009L 25 6.8991C 25.0001 3.09502 21.9051 0 18.1008 0ZM 22.782 18.1009C 22.782 20.6821 20.6821 22.7819 18.1009 22.7819L 6.89895 22.7819C 4.31794 22.782 2.21812 20.6821 2.21812 18.1009L 2.21812 6.8991C 2.21812 4.31809 4.31794 2.21812 6.89895 2.21812L 18.1008 2.21812C 20.6819 2.21812 22.7819 4.31809 22.7819 6.8991L 22.7819 18.1009L 22.782 18.1009Z"/>
<path id="path3_fill" d="M 6.44187 1.80511e-07C 2.88977 1.80511e-07 -2.21126e-07 2.88977 -2.21126e-07 6.44187C -2.21126e-07 9.99382 2.88977 12.8834 6.44187 12.8834C 9.99397 12.8834 12.8837 9.99382 12.8837 6.44187C 12.8837 2.88977 9.99397 1.80511e-07 6.44187 1.80511e-07ZM 6.44187 10.6652C 4.11299 10.6652 2.21812 8.7706 2.21812 6.44172C 2.21812 4.11269 4.11284 2.21797 6.44187 2.21797C 8.7709 2.21797 10.6656 4.11269 10.6656 6.44172C 10.6656 8.7706 8.77075 10.6652 6.44187 10.6652Z"/>
<path id="path4_fill" d="M 1.62662 -8.123e-08C 1.19927 -8.123e-08 0.779448 0.173014 0.477636 0.476157C 0.174344 0.777821 -3.51997e-07 1.19779 -3.51997e-07 1.62662C -3.51997e-07 2.05413 0.174492 2.47394 0.477636 2.77709C 0.7793 3.07875 1.19927 3.25324 1.62662 3.25324C 2.05546 3.25324 2.47395 3.07875 2.77709 2.77709C 3.08023 2.47394 3.25325 2.05398 3.25325 1.62662C 3.25325 1.19779 3.08023 0.777821 2.77709 0.476157C 2.47542 0.173014 2.05546 -8.123e-08 1.62662 -8.123e-08Z"/>
<path id="path5_fill" d="M 56.25 0L 0 0L 0 75L 56.25 75L 56.25 0ZM 5.85938 6.57539L 13.6723 6.57539L 13.6723 11.2629L 5.85938 11.2629L 5.85938 6.57539ZM 49.9992 68.2934L 6.24961 68.2934L 6.24961 66.7312L 49.9992 66.7312L 49.9992 68.2934ZM 49.9992 65.1691L 6.24961 65.1691L 6.24961 63.607L 49.9992 63.607L 49.9992 65.1691ZM 49.9992 62.0438L 6.24961 62.0438L 6.24961 60.4816L 49.9992 60.4816L 49.9992 62.0438ZM 49.9992 55.7941L 6.24961 55.7941L 6.24961 54.232L 49.9992 54.232L 49.9992 55.7941ZM 50.3906 47.1996C 50.3906 48.4887 49.3359 49.5434 48.0469 49.5434L 31.0008 49.5434L 25.2504 49.5434L 8.20312 49.5434C 6.91406 49.5434 5.85938 48.4887 5.85938 47.1996L 5.85938 18.2941C 5.85938 17.0051 6.91406 15.9504 8.20312 15.9504L 48.0469 15.9504C 49.3359 15.9504 50.3906 17.0051 50.3906 18.2941L 50.3906 47.1996ZM 50.3906 11.2629L 18.3598 11.2629L 18.3598 6.57539L 50.3906 6.57539L 50.3906 11.2629Z"/>
<path id="path6_fill" d="M 43.7461 0L 0 0L 0 1.56211L 43.7461 1.56211L 43.7461 0Z"/>
<path id="path7_fill" d="M 43.7461 0L 0 0L 0 1.56211L 43.7461 1.56211L 43.7461 0Z"/>
<path id="path8_fill" d="M 43.7461 0L 0 0L 0 1.56211L 43.7461 1.56211L 43.7461 0Z"/>
<path id="path9_fill" d="M 42.1875 7.15256e-08L 2.34375 7.15256e-08C 1.05469 7.15256e-08 0 1.05469 0 2.34375L 0 31.2504C 0 32.5395 1.05469 33.5941 2.34375 33.5941L 19.3898 33.5941L 19.3898 18.4254L 13.2246 24.7113L 9.1207 20.707L 22.2656 7.30547L 35.4094 20.707L 31.3055 24.7113L 25.1402 18.4254L 25.1402 33.5941L 42.1875 33.5941C 43.4766 33.5941 44.5312 32.5395 44.5312 31.2504L 44.5312 2.34375C 44.5312 1.05469 43.4766 7.15256e-08 42.1875 7.15256e-08Z"/>
<path id="path10_fill" d="M 7.81289 0L 0 0L 0 4.6875L 7.81289 4.6875L 7.81289 0Z"/>
<path id="path11_fill" d="M 32.0309 0L 0 0L 0 4.6875L 32.0309 4.6875L 32.0309 0Z"/>
<path id="path12_fill" d="M 22.1836 17.4059L 26.2875 13.4016L 13.1437 -8.04663e-07L 4.64916e-07 13.4016L 4.10391 17.4059L 10.268 11.1199L 10.268 26.2875L 16.0195 26.2875L 16.0195 11.1199L 22.1836 17.4059Z"/>
</defs>
</svg>
